{"glyphs":{"0":{"ha":875,"x_min":0,"x_max":0,"o":"m 437 -23 b 783 489 653 -23 783 174 l 783 490 b 437 1002 783 805 653 1002 b 92 490 220 1002 92 805 l 92 489 b 437 -23 92 174 220 -23 z m 437 83 b 214 489 296 83 214 239 l 214 490 b 437 895 214 740 296 895 b 661 490 577 895 661 740 l 661 489 b 437 83 661 239 577 83 z "},"1":{"ha":644,"x_min":0,"x_max":0,"o":"m 349 0 l 471 0 l 471 979 l 349 979 l 89 791 l 89 663 l 338 843 l 349 843 z "},"2":{"ha":838,"x_min":0,"x_max":0,"o":"m 109 0 l 743 0 l 743 110 l 279 110 l 279 121 l 501 351 b 726 726 678 533 726 614 l 726 728 b 425 1002 726 886 595 1002 b 102 703 237 1002 103 877 l 104 703 l 220 702 l 221 703 b 416 895 221 819 299 895 b 602 715 532 895 602 818 l 602 713 b 440 442 602 628 565 577 l 109 84 z "},"3":{"ha":871,"x_min":0,"x_max":0,"o":"m 442 -16 b 782 268 638 -16 782 104 l 782 269 b 543 509 782 408 685 497 l 543 512 b 750 741 665 538 750 621 l 750 743 b 441 995 750 891 627 995 b 116 729 258 995 132 888 l 115 722 l 233 722 l 233 729 b 441 889 243 828 326 889 b 627 728 560 889 627 830 l 627 726 b 429 557 627 629 546 557 l 312 557 l 312 454 l 435 454 b 658 267 572 454 658 387 l 658 265 b 442 90 658 161 570 90 b 214 252 312 90 223 156 l 213 259 l 96 259 l 96 251 b 442 -16 109 96 240 -16 z "},"4":{"ha":894,"x_min":0,"x_max":0,"o":"m 556 0 l 675 0 l 675 203 l 814 203 l 814 312 l 675 312 l 675 979 l 498 979 b 79 314 361 774 212 536 l 79 203 l 556 203 z m 204 311 l 204 319 b 549 865 311 499 439 701 l 557 865 l 557 311 z "},"5":{"ha":859,"x_min":0,"x_max":0,"o":"m 431 -23 b 771 312 629 -23 771 115 l 771 313 b 455 640 771 503 639 640 b 246 538 366 640 290 604 l 235 538 l 269 869 l 717 869 l 717 979 l 172 979 l 121 416 l 227 416 b 271 475 239 439 254 458 b 434 534 313 515 369 534 b 652 311 561 534 652 441 l 652 310 b 432 85 652 178 562 85 b 221 253 317 85 233 159 l 220 258 l 103 258 l 104 251 b 431 -23 118 94 248 -23 z "},"6":{"ha":884,"x_min":0,"x_max":0,"o":"m 455 -23 b 798 314 652 -23 798 119 l 798 315 b 477 643 798 503 661 643 b 216 492 345 643 252 572 l 203 492 b 204 515 203 499 203 507 b 462 892 212 719 284 892 b 659 760 561 892 629 842 l 662 752 l 785 752 l 783 761 b 463 1002 749 905 627 1002 b 87 473 226 1002 87 806 l 87 471 b 455 -23 87 103 276 -23 z m 233 315 l 233 316 b 456 536 233 444 329 536 b 675 313 583 536 675 443 l 675 311 b 454 85 675 184 576 85 b 233 315 330 85 233 186 z "},"7":{"ha":791,"x_min":0,"x_max":0,"o":"m 150 0 l 278 0 l 713 865 l 713 979 l 66 979 l 66 869 l 589 869 l 589 860 z "},"8":{"ha":887,"x_min":0,"x_max":0,"o":"m 444 -16 b 799 264 651 -16 799 100 l 799 266 b 589 516 799 387 714 487 l 589 519 b 764 736 696 552 764 633 l 764 738 b 444 995 764 886 629 995 b 123 738 258 995 123 886 l 123 736 b 298 519 123 633 191 552 l 298 516 b 88 266 173 487 88 387 l 88 264 b 444 -16 88 100 236 -16 z m 444 564 b 245 726 326 564 245 631 l 245 728 b 444 890 245 823 326 890 b 642 728 562 890 642 823 l 642 726 b 444 564 642 631 562 564 z m 444 90 b 212 272 309 90 212 166 l 212 273 b 444 457 212 380 308 457 b 675 273 579 457 675 380 l 675 272 b 444 90 675 166 578 90 z "},"9":{"ha":884,"x_min":0,"x_max":0,"o":"m 429 1002 b 87 665 232 1002 87 860 l 87 663 b 408 336 87 475 224 336 b 668 487 540 336 632 407 l 681 487 b 680 464 681 479 681 471 b 422 86 673 260 600 86 b 225 219 323 86 255 137 l 222 227 l 100 227 l 102 218 b 421 -23 135 73 257 -23 b 798 506 659 -23 798 172 l 798 507 b 429 1002 798 876 608 1002 z m 429 442 b 210 666 302 442 210 536 l 210 667 b 431 894 210 794 308 894 b 652 663 555 894 652 792 l 652 663 b 429 442 652 535 555 442 z "}," ":{"ha":0,"x_min":0,"x_max":0,"o":""}," ":{"ha":391,"x_min":0,"x_max":0,"o":""}," ":{"ha":392,"x_min":0,"x_max":0,"o":""}," ":{"ha":195,"x_min":0,"x_max":0,"o":""}," ":{"ha":694,"x_min":0,"x_max":0,"o":""}," ":{"ha":1389,"x_min":0,"x_max":0,"o":""}," ":{"ha":694,"x_min":0,"x_max":0,"o":""}," ":{"ha":1389,"x_min":0,"x_max":0,"o":""}," ":{"ha":463,"x_min":0,"x_max":0,"o":""}," ":{"ha":347,"x_min":0,"x_max":0,"o":""}," ":{"ha":231,"x_min":0,"x_max":0,"o":""}," ":{"ha":875,"x_min":0,"x_max":0,"o":""}," ":{"ha":412,"x_min":0,"x_max":0,"o":""}," ":{"ha":195,"x_min":0,"x_max":0,"o":""}," ":{"ha":98,"x_min":0,"x_max":0,"o":""},"​":{"ha":0,"x_min":0,"x_max":0,"o":""}," ":{"ha":309,"x_min":0,"x_max":0,"o":""},"A":{"ha":936,"x_min":0,"x_max":0,"o":"m 47 0 l 175 0 l 273 280 l 663 280 l 761 0 l 889 0 l 528 979 l 408 979 z m 463 821 l 473 821 l 627 384 l 309 384 z "},"À":{"ha":936,"x_min":0,"x_max":0,"o":"m 418 1076 l 518 1076 l 405 1296 l 269 1296 z m 47 0 l 175 0 l 273 280 l 663 280 l 761 0 l 889 0 l 528 979 l 408 979 z m 463 821 l 473 821 l 627 384 l 309 384 z "},"Á":{"ha":936,"x_min":0,"x_max":0,"o":"m 521 1076 l 670 1296 l 534 1296 l 420 1076 z m 47 0 l 175 0 l 273 280 l 663 280 l 761 0 l 889 0 l 528 979 l 408 979 z m 463 821 l 473 821 l 627 384 l 309 384 z "},"Ä":{"ha":936,"x_min":0,"x_max":0,"o":"m 324 1117 b 397 1191 364 1117 397 1150 b 324 1264 397 1231 364 1264 b 251 1191 284 1264 251 1231 b 324 1117 251 1150 284 1117 z m 612 1117 b 685 1191 652 1117 685 1150 b 612 1264 685 1231 652 1264 b 538 1191 572 1264 538 1231 b 612 1117 538 1150 572 1117 z m 47 0 l 175 0 l 273 280 l 663 280 l 761 0 l 889 0 l 528 979 l 408 979 z m 463 821 l 473 821 l 627 384 l 309 384 z "},"Ǟ":{"ha":936,"x_min":0,"x_max":0,"o":"m 292 1199 l 644 1199 l 644 1280 l 292 1280 z m 583 1029 l 584 1029 b 644 1090 618 1029 644 1056 l 644 1091 b 584 1151 644 1125 618 1151 l 583 1151 b 522 1091 549 1151 522 1125 l 522 1090 b 583 1029 522 1056 549 1029 z m 353 1029 l 354 1029 b 414 1090 388 1029 414 1056 l 414 1091 b 354 1151 414 1125 388 1151 l 353 1151 b 292 1091 319 1151 292 1125 l 292 1090 b 353 1029 292 1056 319 1029 z m 47 0 l 175 0 l 273 280 l 663 280 l 761 0 l 889 0 l 528 979 l 408 979 z m 463 821 l 473 821 l 627 384 l 309 384 z "},"Å":{"ha":936,"x_min":0,"x_max":0,"o":"m 469 1024 b 612 1162 549 1024 612 1086 l 612 1162 b 469 1300 612 1239 549 1300 b 328 1162 391 1300 328 1239 l 328 1162 b 469 1024 328 1086 391 1024 z m 469 1089 b 395 1162 428 1089 395 1122 l 395 1162 b 469 1235 395 1203 428 1235 b 545 1162 511 1235 545 1203 l 545 1162 b 469 1089 545 1122 511 1089 z m 47 0 l 175 0 l 273 280 l 663 280 l 761 0 l 889 0 l 528 979 l 408 979 z m 463 821 l 473 821 l 627 384 l 309 384 z "},"Ǻ":{"ha":936,"x_min":0,"x_max":0,"o":"m 302 1190 l 634 1225 l 634 1317 l 302 1247 z m 426 1015 l 510 1015 b 607 1095 575 1015 607 1054 l 607 1096 b 510 1175 607 1136 575 1175 l 426 1175 b 329 1096 361 1175 329 1136 l 329 1095 b 426 1015 329 1055 361 1015 z m 429 1069 b 397 1094 409 1069 397 1080 l 397 1095 b 429 1120 397 1110 409 1120 l 507 1120 b 539 1095 527 1120 539 1110 l 539 1094 b 507 1069 539 1080 527 1069 z m 47 0 l 175 0 l 273 280 l 663 280 l 761 0 l 889 0 l 528 979 l 408 979 z m 463 821 l 473 821 l 627 384 l 309 384 z "},"Ã":{"ha":936,"x_min":0,"x_max":0,"o":"m 550 1080 b 694 1261 639 1080 694 1149 l 694 1267 l 602 1267 l 602 1265 b 551 1168 602 1201 585 1168 b 496 1206 534 1168 521 1177 l 490 1213 b 386 1265 458 1251 429 1265 b 241 1085 297 1265 241 1196 l 241 1078 l 334 1078 l 334 1081 b 385 1177 334 1145 351 1177 b 439 1139 402 1177 416 1168 l 446 1133 b 550 1080 477 1095 507 1080 z m 47 0 l 175 0 l 273 280 l 663 280 l 761 0 l 889 0 l 528 979 l 408 979 z m 463 821 l 473 821 l 627 384 l 309 384 z "},"Ằ":{"ha":936,"x_min":0,"x_max":0,"o":"m 524 1195 l 415 1322 l 311 1322 l 444 1195 z m 467 1026 l 469 1026 b 650 1184 581 1026 650 1085 l 650 1190 l 575 1190 l 575 1187 b 469 1097 575 1135 538 1097 l 467 1097 b 361 1187 398 1097 361 1135 l 361 1190 l 286 1190 l 286 1184 b 467 1026 286 1085 355 1026 z m 47 0 l 175 0 l 273 280 l 663 280 l 761 0 l 889 0 l 528 979 l 408 979 z m 463 821 l 473 821 l 627 384 l 309 384 z "},"Ǡ":{"ha":936,"x_min":0,"x_max":0,"o":"m 292 1202 l 644 1202 l 644 1283 l 292 1283 z m 467 1035 l 469 1035 b 529 1096 503 1035 529 1062 l 529 1097 b 469 1157 529 1131 503 1157 l 467 1157 b 406 1097 433 1157 406 1131 l 406 1096 b 467 1035 406 1062 433 1035 z m 47 0 l 175 0 l 273 280 l 663 280 l 761 0 l 889 0 l 528 979 l 408 979 z m 463 821 l 473 821 l 627 384 l 309 384 z "},"Ḁ":{"ha":936,"x_min":0,"x_max":0,"o":"m 47 0 l 175 0 l 273 280 l 663 280 l 761 0 l 889 0 l 528 979 l 408 979 z m 463 821 l 473 821 l 627 384 l 309 384 z m 468 -335 b 613 -193 549 -335 613 -271 l 613 -193 b 468 -52 613 -115 549 -52 b 322 -193 387 -52 322 -115 l 322 -193 b 468 -335 322 -271 387 -335 z m 468 -272 b 388 -193 423 -272 388 -237 b 468 -114 388 -149 423 -114 b 548 -193 513 -114 548 -149 b 468 -272 548 -237 513 -272 z "},"Â":{"ha":936,"x_min":0,"x_max":0,"o":"m 244 1076 l 369 1076 l 463 1221 l 473 1221 l 567 1076 l 692 1076 l 535 1296 l 401 1296 z m 47 0 l 175 0 l 273 280 l 663 280 l 761 0 l 889 0 l 528 979 l 408 979 z m 463 821 l 473 821 l 627 384 l 309 384 z "},"Ậ":{"ha":936,"x_min":0,"x_max":0,"o":"m 244 1076 l 369 1076 l 463 1221 l 473 1221 l 567 1076 l 692 1076 l 535 1296 l 401 1296 z m 47 0 l 175 0 l 273 280 l 663 280 l 761 0 l 889 0 l 528 979 l 408 979 z m 463 821 l 473 821 l 627 384 l 309 384 z m 468 -304 b 549 -222 513 -304 549 -267 b 468 -141 549 -178 513 -141 b 387 -222 423 -141 387 -178 b 468 -304 387 -267 423 -304 z "},"Ấ":{"ha":936,"x_min":0,"x_max":0,"o":"m 536 1195 l 616 1195 l 750 1322 l 646 1322 z m 417 1163 l 286 1026 l 385 1026 l 468 1114 l 551 1026 l 650 1026 l 518 1163 z m 47 0 l 175 0 l 273 280 l 663 280 l 761 0 l 889 0 l 528 979 l 408 979 z m 463 821 l 473 821 l 627 384 l 309 384 z "},"Ẫ":{"ha":936,"x_min":0,"x_max":0,"o":"m 551 1192 b 650 1317 608 1192 650 1233 l 650 1322 l 575 1322 l 575 1320 b 541 1265 575 1284 562 1265 b 489 1284 524 1265 510 1270 l 473 1294 b 385 1322 446 1312 418 1322 b 286 1198 326 1322 286 1282 l 286 1192 l 361 1192 l 361 1194 b 395 1249 361 1231 374 1249 b 445 1230 412 1249 425 1243 l 460 1219 b 551 1192 488 1202 515 1192 z m 417 1163 l 286 1026 l 385 1026 l 468 1114 l 551 1026 l 650 1026 l 518 1163 z m 47 0 l 175 0 l 273 280 l 663 280 l 761 0 l 889 0 l 528 979 l 408 979 z m 463 821 l 473 821 l 627 384 l 309 384 z "},"Ầ":{"ha":936,"x_min":0,"x_max":0,"o":"m 649 1195 l 540 1322 l 435 1322 l 569 1195 z m 417 1163 l 286 1026 l 385 1026 l 468 1114 l 551 1026 l 650 1026 l 518 1163 z m 47 0 l 175 0 l 273 280 l 663 280 l 761 0 l 889 0 l 528 979 l 408 979 z m 463 821 l 473 821 l 627 384 l 309 384 z "},"Ẩ":{"ha":936,"x_min":0,"x_max":0,"o":"m 543 1166 l 606 1166 b 650 1246 633 1188 650 1214 b 553 1329 650 1297 610 1329 b 501 1321 534 1329 515 1326 l 501 1253 b 525 1255 507 1254 516 1255 b 569 1219 551 1255 569 1242 b 543 1167 569 1202 560 1185 z m 417 1163 l 286 1026 l 385 1026 l 468 1114 l 551 1026 l 650 1026 l 518 1163 z m 47 0 l 175 0 l 273 280 l 663 280 l 761 0 l 889 0 l 528 979 l 408 979 z m 463 821 l 473 821 l 627 384 l 309 384 z "},"Ă":{"ha":936,"x_min":0,"x_max":0,"o":"m 467 1076 b 694 1295 614 1076 694 1166 l 694 1296 l 593 1296 l 593 1295 b 467 1161 593 1215 553 1161 b 342 1295 382 1161 342 1215 l 342 1296 l 241 1296 l 241 1295 b 467 1076 241 1166 321 1076 z m 47 0 l 175 0 l 273 280 l 663 280 l 761 0 l 889 0 l 528 979 l 408 979 z m 463 821 l 473 821 l 627 384 l 309 384 z "},"Ắ":{"ha":936,"x_min":0,"x_max":0,"o":"m 412 1195 l 492 1195 l 625 1322 l 521 1322 z m 467 1026 l 469 1026 b 650 1184 581 1026 650 1085 l 650 1190 l 575 1190 l 575 1187 b 469 1097 575 1135 538 1097 l 467 1097 b 361 1187 398 1097 361 1135 l 361 1190 l 286 1190 l 286 1184 b 467 1026 286 1085 355 1026 z m 47 0 l 175 0 l 273 280 l 663 280 l 761 0 l 889 0 l 528 979 l 408 979 z m 463 821 l 473 821 l 627 384 l 309 384 z "},"Ẵ":{"ha":936,"x_min":0,"x_max":0,"o":"m 551 1192 b 650 1317 608 1192 650 1233 l 650 1322 l 575 1322 l 575 1320 b 541 1265 575 1284 562 1265 b 489 1284 524 1265 510 1270 l 473 1294 b 385 1322 446 1312 418 1322 b 286 1198 326 1322 286 1282 l 286 1192 l 361 1192 l 361 1194 b 395 1249 361 1231 374 1249 b 445 1230 412 1249 425 1243 l 460 1219 b 551 1192 488 1202 515 1192 z m 467 1026 l 469 1026 b 650 1156 581 1026 650 1074 l 650 1162 l 575 1162 l 575 1159 b 469 1097 575 1122 538 1097 l 467 1097 b 361 1159 398 1097 361 1122 l 361 1162 l 286 1162 l 286 1156 b 467 1026 286 1074 355 1026 z m 47 0 l 175 0 l 273 280 l 663 280 l 761 0 l 889 0 l 528 979 l 408 979 z m 463 821 l 473 821 l 627 384 l 309 384 z "},"Ẳ":{"ha":936,"x_min":0,"x_max":0,"o":"m 418 1166 l 481 1166 b 526 1246 509 1188 526 1214 b 429 1329 526 1297 485 1329 b 376 1321 409 1329 390 1326 l 376 1253 b 400 1255 382 1254 391 1255 b 444 1219 427 1255 444 1242 b 418 1167 444 1202 435 1185 z m 467 1026 l 469 1026 b 650 1184 581 1026 650 1085 l 650 1190 l 575 1190 l 575 1187 b 469 1097 575 1135 538 1097 l 467 1097 b 361 1187 398 1097 361 1135 l 361 1190 l 286 1190 l 286 1184 b 467 1026 286 1085 355 1026 z m 47 0 l 175 0 l 273 280 l 663 280 l 761 0 l 889 0 l 528 979 l 408 979 z m 463 821 l 473 821 l 627 384 l 309 384 z "},"Ặ":{"ha":936,"x_min":0,"x_max":0,"o":"m 467 1076 b 694 1295 614 1076 694 1166 l 694 1296 l 593 1296 l 593 1295 b 467 1161 593 1215 553 1161 b 342 1295 382 1161 342 1215 l 342 1296 l 241 1296 l 241 1295 b 467 1076 241 1166 321 1076 z m 47 0 l 175 0 l 273 280 l 663 280 l 761 0 l 889 0 l 528 979 l 408 979 z m 463 821 l 473 821 l 627 384 l 309 384 z m 468 -304 b 549 -222 513 -304 549 -267 b 468 -141 549 -178 513 -141 b 387 -222 423 -141 387 -178 b 468 -304 387 -267 423 -304 z "},"Ȃ":{"ha":936,"x_min":0,"x_max":0,"o":"m 468 1296 b 241 1078 321 1296 241 1206 l 241 1076 l 342 1076 l 342 1077 b 468 1211 342 1158 382 1211 b 593 1077 553 1211 593 1158 l 593 1076 l 694 1076 l 694 1078 b 468 1296 694 1206 614 1296 z m 47 0 l 175 0 l 273 280 l 663 280 l 761 0 l 889 0 l 528 979 l 408 979 z m 463 821 l 473 821 l 627 384 l 309 384 z "},"Ǎ":{"ha":936,"x_min":0,"x_max":0,"o":"m 692 1296 l 567 1296 l 473 1151 l 463 1151 l 369 1296 l 244 1296 l 401 1076 l 535 1076 z m 47 0 l 175 0 l 273 280 l 663 280 l 761 0 l 889 0 l 528 979 l 408 979 z m 463 821 l 473 821 l 627 384 l 309 384 z "},"Ȧ":{"ha":936,"x_min":0,"x_max":0,"o":"m 468 1113 b 545 1190 511 1113 545 1147 b 468 1267 545 1233 511 1267 b 391 1190 425 1267 391 1233 b 468 1113 391 1147 425 1113 z m 47 0 l 175 0 l 273 280 l 663 280 l 761 0 l 889 0 l 528 979 l 408 979 z m 463 821 l 473 821 l 627 384 l 309 384 z "},"Ạ":{"ha":936,"x_min":0,"x_max":0,"o":"m 47 0 l 175 0 l 273 280 l 663 280 l 761 0 l 889 0 l 528 979 l 408 979 z m 463 821 l 473 821 l 627 384 l 309 384 z m 468 -304 b 549 -222 513 -304 549 -267 b 468 -141 549 -178 513 -141 b 387 -222 423 -141 387 -178 b 468 -304 387 -267 423 -304 z "},"Ả":{"ha":936,"x_min":0,"x_max":0,"o":"m 423 1031 l 511 1031 b 571 1145 549 1060 571 1098 b 433 1267 571 1224 509 1267 b 369 1256 408 1267 386 1262 l 369 1162 b 401 1166 378 1164 389 1166 b 475 1111 447 1166 475 1145 b 423 1032 475 1082 454 1057 z m 47 0 l 175 0 l 273 280 l 663 280 l 761 0 l 889 0 l 528 979 l 408 979 z m 463 821 l 473 821 l 627 384 l 309 384 z "},"Ȁ":{"ha":936,"x_min":0,"x_max":0,"o":"m 292 1076 l 392 1076 l 264 1296 l 127 1296 z m 538 1076 l 639 1076 l 526 1296 l 390 1296 z m 47 0 l 175 0 l 273 280 l 663 280 l 761 0 l 889 0 l 528 979 l 408 979 z m 463 821 l 473 821 l 627 384 l 309 384 z "},"Ā":{"ha":936,"x_min":0,"x_max":0,"o":"m 256 1145 l 680 1145 l 680 1235 l 256 1235 z m 47 0 l 175 0 l 273 280 l 663 280 l 761 0 l 889 0 l 528 979 l 408 979 z m 463 821 l 473 821 l 627 384 l 309 384 z "},"Ą":{"ha":936,"x_min":0,"x_max":0,"o":"m 47 0 l 175 0 l 273 280 l 663 280 l 761 0 l 771 0 b 655 -183 689 -57 655 -122 l 655 -184 b 823 -335 655 -287 737 -335 b 903 -322 850 -335 878 -330 l 903 -241 b 853 -248 885 -245 868 -248 b 772 -159 808 -248 772 -214 l 772 -157 b 889 0 772 -92 819 -43 l 528 979 l 408 979 z m 463 821 l 473 821 l 627 384 l 309 384 z "},"B":{"ha":913,"x_min":0,"x_max":0,"o":"m 125 0 l 507 0 b 838 274 715 0 838 102 l 838 275 b 620 513 838 404 753 496 l 620 524 b 789 734 714 541 789 633 l 789 735 b 499 979 789 884 679 979 l 125 979 z m 473 871 b 665 714 595 871 665 813 l 665 713 b 442 557 665 610 590 557 l 247 557 l 247 871 z m 477 452 b 713 281 633 452 713 394 l 713 280 b 488 108 713 168 635 108 l 247 108 l 247 452 z "},"Ḇ":{"ha":913,"x_min":0,"x_max":0,"o":"m 125 0 l 507 0 b 838 274 715 0 838 102 l 838 275 b 620 513 838 404 753 496 l 620 524 b 789 734 714 541 789 633 l 789 735 b 499 979 789 884 679 979 l 125 979 z m 473 871 b 665 714 595 871 665 813 l 665 713 b 442 557 665 610 590 557 l 247 557 l 247 871 z m 477 452 b 713 281 633 452 713 394 l 713 280 b 488 108 713 168 635 108 l 247 108 l 247 452 z m 193 -267 l 637 -267 l 637 -175 l 193 -175 z "},"Ḅ":{"ha":913,"x_min":0,"x_max":0,"o":"m 125 0 l 507 0 b 838 274 715 0 838 102 l 838 275 b 620 513 838 404 753 496 l 620 524 b 789 734 714 541 789 633 l 789 735 b 499 979 789 884 679 979 l 125 979 z m 473 871 b 665 714 595 871 665 813 l 665 713 b 442 557 665 610 590 557 l 247 557 l 247 871 z m 477 452 b 713 281 633 452 713 394 l 713 280 b 488 108 713 168 635 108 l 247 108 l 247 452 z m 415 -304 b 496 -222 460 -304 496 -267 b 415 -141 496 -178 460 -141 b 334 -222 370 -141 334 -178 b 415 -304 334 -267 370 -304 z "},"Ḃ":{"ha":913,"x_min":0,"x_max":0,"o":"m 415 1113 b 492 1190 458 1113 492 1147 b 415 1267 492 1233 458 1267 b 338 1190 372 1267 338 1233 b 415 1113 338 1147 372 1113 z m 125 0 l 507 0 b 838 274 715 0 838 102 l 838 275 b 620 513 838 404 753 496 l 620 524 b 789 734 714 541 789 633 l 789 735 b 499 979 789 884 679 979 l 125 979 z m 473 871 b 665 714 595 871 665 813 l 665 713 b 442 557 665 610 590 557 l 247 557 l 247 871 z m 477 452 b 713 281 633 452 713 394 l 713 280 b 488 108 713 168 635 108 l 247 108 l 247 452 z "},"Ɓ":{"ha":1069,"x_min":0,"x_max":0,"o":"m 281 0 l 663 0 b 995 274 871 0 995 102 l 995 275 b 777 513 995 404 910 496 l 777 524 b 945 734 871 541 945 633 l 945 735 b 656 979 945 884 836 979 l 224 979 b 14 782 92 979 14 906 b 33 664 14 741 20 703 l 144 664 b 127 766 132 703 127 735 b 233 869 127 834 161 869 l 281 869 z m 630 871 b 822 714 751 871 822 813 l 822 713 b 599 557 822 610 747 557 l 404 557 l 404 871 z m 633 452 b 869 281 789 452 869 394 l 869 280 b 645 108 869 168 792 108 l 404 108 l 404 452 z "},"C":{"ha":994,"x_min":0,"x_max":0,"o":"m 519 -23 b 914 272 727 -23 882 93 l 914 273 l 791 273 l 789 272 b 519 90 759 159 655 90 b 212 488 330 90 212 243 l 212 490 b 518 889 212 734 330 889 b 790 684 653 889 758 810 l 791 683 l 913 683 l 914 684 b 518 1002 885 872 724 1002 b 87 490 252 1002 87 805 l 87 488 b 519 -23 87 174 253 -23 z "},"Ć":{"ha":994,"x_min":0,"x_max":0,"o":"m 570 1076 l 720 1296 l 583 1296 l 470 1076 z m 519 -23 b 914 272 727 -23 882 93 l 914 273 l 791 273 l 789 272 b 519 90 759 159 655 90 b 212 488 330 90 212 243 l 212 490 b 518 889 212 734 330 889 b 790 684 653 889 758 810 l 791 683 l 913 683 l 914 684 b 518 1002 885 872 724 1002 b 87 490 252 1002 87 805 l 87 488 b 519 -23 87 174 253 -23 z "},"Č":{"ha":994,"x_min":0,"x_max":0,"o":"m 741 1296 l 616 1296 l 523 1151 l 512 1151 l 418 1296 l 294 1296 l 450 1076 l 585 1076 z m 519 -23 b 914 272 727 -23 882 93 l 914 273 l 791 273 l 789 272 b 519 90 759 159 655 90 b 212 488 330 90 212 243 l 212 490 b 518 889 212 734 330 889 b 790 684 653 889 758 810 l 791 683 l 913 683 l 914 684 b 518 1002 885 872 724 1002 b 87 490 252 1002 87 805 l 87 488 b 519 -23 87 174 253 -23 z "},"Ĉ":{"ha":994,"x_min":0,"x_max":0,"o":"m 294 1076 l 418 1076 l 512 1221 l 523 1221 l 616 1076 l 741 1076 l 585 1296 l 450 1296 z m 519 -23 b 914 272 727 -23 882 93 l 914 273 l 791 273 l 789 272 b 519 90 759 159 655 90 b 212 488 330 90 212 243 l 212 490 b 518 889 212 734 330 889 b 790 684 653 889 758 810 l 791 683 l 913 683 l 914 684 b 518 1002 885 872 724 1002 b 87 490 252 1002 87 805 l 87 488 b 519 -23 87 174 253 -23 z "},"Ċ":{"ha":994,"x_min":0,"x_max":0,"o":"m 517 1113 b 595 1190 560 1113 595 1147 b 517 1267 595 1233 560 1267 b 440 1190 475 1267 440 1233 b 517 1113 440 1147 475 1113 z m 519 -23 b 914 272 727 -23 882 93 l 914 273 l 791 273 l 789 272 b 519 90 759 159 655 90 b 212 488 330 90 212 243 l 212 490 b 518 889 212 734 330 889 b 790 684 653 889 758 810 l 791 683 l 913 683 l 914 684 b 518 1002 885 872 724 1002 b 87 490 252 1002 87 805 l 87 488 b 519 -23 87 174 253 -23 z "},"Ç":{"ha":994,"x_min":0,"x_max":0,"o":"m 498 -335 b 677 -197 591 -335 677 -297 l 677 -195 b 531 -71 677 -119 618 -71 l 566 -21 b 914 272 750 -5 884 106 l 914 273 l 791 273 l 789 272 b 519 90 759 159 655 90 b 212 488 330 90 212 243 l 212 490 b 518 889 212 734 330 889 b 790 684 653 889 758 810 l 791 683 l 913 683 l 914 684 b 518 1002 885 872 724 1002 b 87 490 252 1002 87 805 l 87 488 b 471 -21 87 193 233 1 l 429 -83 l 429 -144 l 454 -144 b 564 -199 527 -144 564 -155 l 564 -201 b 477 -253 564 -240 518 -253 b 389 -244 437 -253 401 -247 l 389 -323 b 498 -335 425 -331 461 -335 z "},"Ḉ":{"ha":994,"x_min":0,"x_max":0,"o":"m 570 1076 l 720 1296 l 583 1296 l 470 1076 z m 498 -335 b 677 -197 591 -335 677 -297 l 677 -195 b 531 -71 677 -119 618 -71 l 566 -21 b 914 272 750 -5 884 106 l 914 273 l 791 273 l 789 272 b 519 90 759 159 655 90 b 212 488 330 90 212 243 l 212 490 b 518 889 212 734 330 889 b 790 684 653 889 758 810 l 791 683 l 913 683 l 914 684 b 518 1002 885 872 724 1002 b 87 490 252 1002 87 805 l 87 488 b 471 -21 87 193 233 1 l 429 -83 l 429 -144 l 454 -144 b 564 -199 527 -144 564 -155 l 564 -201 b 477 -253 564 -240 518 -253 b 389 -244 437 -253 401 -247 l 389 -323 b 498 -335 425 -331 461 -335 z "},"D":{"ha":1009,"x_min":0,"x_max":0,"o":"m 125 0 l 460 0 b 922 489 751 0 922 181 l 922 490 b 460 979 922 798 751 979 l 125 979 z m 247 110 l 247 869 l 452 869 b 798 489 669 869 798 728 l 798 488 b 452 110 798 250 671 110 z "},"Ḋ":{"ha":1009,"x_min":0,"x_max":0,"o":"m 461 1113 b 538 1190 504 1113 538 1147 b 461 1267 538 1233 504 1267 b 384 1190 418 1267 384 1233 b 461 1113 384 1147 418 1113 z m 125 0 l 460 0 b 922 489 751 0 922 181 l 922 490 b 460 979 922 798 751 979 l 125 979 z m 247 110 l 247 869 l 452 869 b 798 489 669 869 798 728 l 798 488 b 452 110 798 250 671 110 z "},"Ḓ":{"ha":1009,"x_min":0,"x_max":0,"o":"m 125 0 l 460 0 b 922 489 751 0 922 181 l 922 490 b 460 979 922 798 751 979 l 125 979 z m 247 110 l 247 869 l 452 869 b 798 489 669 869 798 728 l 798 488 b 452 110 798 250 671 110 z m 229 -313 l 356 -313 l 456 -175 l 467 -175 l 566 -313 l 694 -313 l 530 -102 l 393 -102 z "},"Ḑ":{"ha":1009,"x_min":0,"x_max":0,"o":"m 125 0 l 460 0 b 922 489 751 0 922 181 l 922 490 b 460 979 922 798 751 979 l 125 979 z m 247 110 l 247 869 l 452 869 b 798 489 669 869 798 728 l 798 488 b 452 110 798 250 671 110 z m 335 -335 l 416 -335 l 520 -102 l 394 -102 z "},"Ḏ":{"ha":1009,"x_min":0,"x_max":0,"o":"m 125 0 l 460 0 b 922 489 751 0 922 181 l 922 490 b 460 979 922 798 751 979 l 125 979 z m 247 110 l 247 869 l 452 869 b 798 489 669 869 798 728 l 798 488 b 452 110 798 250 671 110 z m 239 -267 l 683 -267 l 683 -175 l 239 -175 z "},"Ď":{"ha":1009,"x_min":0,"x_max":0,"o":"m 685 1296 l 560 1296 l 467 1151 l 456 1151 l 362 1296 l 237 1296 l 394 1076 l 528 1076 z m 125 0 l 460 0 b 922 489 751 0 922 181 l 922 490 b 460 979 922 798 751 979 l 125 979 z m 247 110 l 247 869 l 452 869 b 798 489 669 869 798 728 l 798 488 b 452 110 798 250 671 110 z "},"Ḍ":{"ha":1009,"x_min":0,"x_max":0,"o":"m 125 0 l 460 0 b 922 489 751 0 922 181 l 922 490 b 460 979 922 798 751 979 l 125 979 z m 247 110 l 247 869 l 452 869 b 798 489 669 869 798 728 l 798 488 b 452 110 798 250 671 110 z m 461 -304 b 543 -222 506 -304 543 -267 b 461 -141 543 -178 506 -141 b 380 -222 416 -141 380 -178 b 461 -304 380 -267 416 -304 z "},"Ð":{"ha":1050,"x_min":0,"x_max":0,"o":"m 166 0 l 502 0 b 964 489 793 0 964 181 l 964 490 b 502 979 964 798 792 979 l 166 979 l 166 541 l 41 541 l 41 439 l 166 439 z m 288 110 l 288 439 l 516 439 l 516 541 l 288 541 l 288 869 l 494 869 b 839 489 711 869 839 728 l 839 488 b 494 110 839 250 712 110 z "},"Ɗ":{"ha":1166,"x_min":0,"x_max":0,"o":"m 281 0 l 617 0 b 1079 489 908 0 1079 181 l 1079 490 b 617 979 1079 798 907 979 l 224 979 b 14 782 92 979 14 906 b 33 664 14 741 20 703 l 144 664 b 127 766 132 703 127 735 b 233 869 127 834 161 869 l 281 869 z m 404 110 l 404 869 l 609 869 b 954 489 826 869 954 728 l 954 488 b 609 110 954 250 827 110 z "},"E":{"ha":827,"x_min":0,"x_max":0,"o":"m 125 0 l 731 0 l 731 110 l 247 110 l 247 446 l 706 446 l 706 555 l 247 555 l 247 869 l 731 869 l 731 979 l 125 979 z "},"È":{"ha":827,"x_min":0,"x_max":0,"o":"m 378 1076 l 478 1076 l 365 1296 l 229 1296 z m 125 0 l 731 0 l 731 110 l 247 110 l 247 446 l 706 446 l 706 555 l 247 555 l 247 869 l 731 869 l 731 979 l 125 979 z "},"Ȅ":{"ha":827,"x_min":0,"x_max":0,"o":"m 252 1076 l 352 1076 l 224 1296 l 87 1296 z m 498 1076 l 599 1076 l 486 1296 l 350 1296 z m 125 0 l 731 0 l 731 110 l 247 110 l 247 446 l 706 446 l 706 555 l 247 555 l 247 869 l 731 869 l 731 979 l 125 979 z "},"É":{"ha":827,"x_min":0,"x_max":0,"o":"m 481 1076 l 630 1296 l 494 1296 l 380 1076 z m 125 0 l 731 0 l 731 110 l 247 110 l 247 446 l 706 446 l 706 555 l 247 555 l 247 869 l 731 869 l 731 979 l 125 979 z "},"Ê":{"ha":827,"x_min":0,"x_max":0,"o":"m 204 1076 l 329 1076 l 422 1221 l 433 1221 l 527 1076 l 652 1076 l 495 1296 l 361 1296 z m 125 0 l 731 0 l 731 110 l 247 110 l 247 446 l 706 446 l 706 555 l 247 555 l 247 869 l 731 869 l 731 979 l 125 979 z "},"Ể":{"ha":827,"x_min":0,"x_max":0,"o":"m 503 1166 l 566 1166 b 610 1246 593 1188 610 1214 b 513 1329 610 1297 570 1329 b 461 1321 494 1329 475 1326 l 461 1253 b 485 1255 467 1254 476 1255 b 529 1219 511 1255 529 1242 b 503 1167 529 1202 520 1185 z m 377 1163 l 246 1026 l 345 1026 l 428 1114 l 511 1026 l 610 1026 l 478 1163 z m 125 0 l 731 0 l 731 110 l 247 110 l 247 446 l 706 446 l 706 555 l 247 555 l 247 869 l 731 869 l 731 979 l 125 979 z "},"Ề":{"ha":827,"x_min":0,"x_max":0,"o":"m 609 1195 l 500 1322 l 395 1322 l 529 1195 z m 377 1163 l 246 1026 l 345 1026 l 428 1114 l 511 1026 l 610 1026 l 478 1163 z m 125 0 l 731 0 l 731 110 l 247 110 l 247 446 l 706 446 l 706 555 l 247 555 l 247 869 l 731 869 l 731 979 l 125 979 z "},"Ễ":{"ha":827,"x_min":0,"x_max":0,"o":"m 511 1192 b 610 1317 568 1192 610 1233 l 610 1322 l 535 1322 l 535 1320 b 500 1265 535 1284 522 1265 b 449 1284 484 1265 470 1270 l 433 1294 b 345 1322 406 1312 378 1322 b 246 1198 286 1322 246 1282 l 246 1192 l 321 1192 l 321 1194 b 355 1249 321 1231 334 1249 b 405 1230 372 1249 385 1243 l 420 1219 b 511 1192 448 1202 475 1192 z m 377 1163 l 246 1026 l 345 1026 l 428 1114 l 511 1026 l 610 1026 l 478 1163 z m 125 0 l 731 0 l 731 110 l 247 110 l 247 446 l 706 446 l 706 555 l 247 555 l 247 869 l 731 869 l 731 979 l 125 979 z "},"Ệ":{"ha":827,"x_min":0,"x_max":0,"o":"m 204 1076 l 329 1076 l 422 1221 l 433 1221 l 527 1076 l 652 1076 l 495 1296 l 361 1296 z m 125 0 l 731 0 l 731 110 l 247 110 l 247 446 l 706 446 l 706 555 l 247 555 l 247 869 l 731 869 l 731 979 l 125 979 z m 428 -304 b 509 -222 473 -304 509 -267 b 428 -141 509 -178 473 -141 b 347 -222 383 -141 347 -178 b 428 -304 347 -267 383 -304 z "},"Ế":{"ha":827,"x_min":0,"x_max":0,"o":"m 496 1195 l 576 1195 l 710 1322 l 606 1322 z m 377 1163 l 246 1026 l 345 1026 l 428 1114 l 511 1026 l 610 1026 l 478 1163 z m 125 0 l 731 0 l 731 110 l 247 110 l 247 446 l 706 446 l 706 555 l 247 555 l 247 869 l 731 869 l 731 979 l 125 979 z "},"Ë":{"ha":827,"x_min":0,"x_max":0,"o":"m 284 1117 b 357 1191 324 1117 357 1150 b 284 1264 357 1231 324 1264 b 211 1191 244 1264 211 1231 b 284 1117 211 1150 244 1117 z m 572 1117 b 645 1191 612 1117 645 1150 b 572 1264 645 1231 612 1264 b 498 1191 532 1264 498 1231 b 572 1117 498 1150 532 1117 z m 125 0 l 731 0 l 731 110 l 247 110 l 247 446 l 706 446 l 706 555 l 247 555 l 247 869 l 731 869 l 731 979 l 125 979 z "},"Ẹ":{"ha":827,"x_min":0,"x_max":0,"o":"m 125 0 l 731 0 l 731 110 l 247 110 l 247 446 l 706 446 l 706 555 l 247 555 l 247 869 l 731 869 l 731 979 l 125 979 z m 428 -304 b 509 -222 473 -304 509 -267 b 428 -141 509 -178 473 -141 b 347 -222 383 -141 347 -178 b 428 -304 347 -267 383 -304 z "},"Ȇ":{"ha":827,"x_min":0,"x_max":0,"o":"m 428 1296 b 201 1078 281 1296 201 1206 l 201 1076 l 302 1076 l 302 1077 b 428 1211 302 1158 342 1211 b 553 1077 513 1211 553 1158 l 553 1076 l 654 1076 l 654 1078 b 428 1296 654 1206 574 1296 z m 125 0 l 731 0 l 731 110 l 247 110 l 247 446 l 706 446 l 706 555 l 247 555 l 247 869 l 731 869 l 731 979 l 125 979 z "},"Ẻ":{"ha":827,"x_min":0,"x_max":0,"o":"m 383 1031 l 471 1031 b 531 1145 509 1060 531 1098 b 393 1267 531 1224 469 1267 b 329 1256 368 1267 346 1262 l 329 1162 b 361 1166 338 1164 349 1166 b 435 1111 407 1166 435 1145 b 383 1032 435 1082 414 1057 z m 125 0 l 731 0 l 731 110 l 247 110 l 247 446 l 706 446 l 706 555 l 247 555 l 247 869 l 731 869 l 731 979 l 125 979 z "},"Ě":{"ha":827,"x_min":0,"x_max":0,"o":"m 652 1296 l 527 1296 l 433 1151 l 422 1151 l 329 1296 l 204 1296 l 361 1076 l 495 1076 z m 125 0 l 731 0 l 731 110 l 247 110 l 247 446 l 706 446 l 706 555 l 247 555 l 247 869 l 731 869 l 731 979 l 125 979 z "},"Ē":{"ha":827,"x_min":0,"x_max":0,"o":"m 216 1145 l 640 1145 l 640 1235 l 216 1235 z m 125 0 l 731 0 l 731 110 l 247 110 l 247 446 l 706 446 l 706 555 l 247 555 l 247 869 l 731 869 l 731 979 l 125 979 z "},"Ḕ":{"ha":827,"x_min":0,"x_max":0,"o":"m 484 1186 l 375 1314 l 271 1314 l 404 1186 z m 252 1046 l 604 1046 l 604 1128 l 252 1128 z m 125 0 l 731 0 l 731 110 l 247 110 l 247 446 l 706 446 l 706 555 l 247 555 l 247 869 l 731 869 l 731 979 l 125 979 z "},"Ḗ":{"ha":827,"x_min":0,"x_max":0,"o":"m 372 1186 l 452 1186 l 585 1314 l 481 1314 z m 252 1046 l 604 1046 l 604 1128 l 252 1128 z m 125 0 l 731 0 l 731 110 l 247 110 l 247 446 l 706 446 l 706 555 l 247 555 l 247 869 l 731 869 l 731 979 l 125 979 z "},"Ẽ":{"ha":827,"x_min":0,"x_max":0,"o":"m 510 1080 b 654 1261 599 1080 654 1149 l 654 1267 l 562 1267 l 562 1265 b 511 1168 562 1201 545 1168 b 456 1206 494 1168 481 1177 l 450 1213 b 346 1265 418 1251 389 1265 b 201 1085 257 1265 201 1196 l 201 1078 l 294 1078 l 294 1081 b 345 1177 294 1145 311 1177 b 399 1139 362 1177 376 1168 l 406 1133 b 510 1080 437 1095 467 1080 z m 125 0 l 731 0 l 731 110 l 247 110 l 247 446 l 706 446 l 706 555 l 247 555 l 247 869 l 731 869 l 731 979 l 125 979 z "},"Ḙ":{"ha":827,"x_min":0,"x_max":0,"o":"m 125 0 l 731 0 l 731 110 l 247 110 l 247 446 l 706 446 l 706 555 l 247 555 l 247 869 l 731 869 l 731 979 l 125 979 z m 195 -313 l 323 -313 l 422 -175 l 433 -175 l 533 -313 l 661 -313 l 496 -102 l 359 -102 z "},"Ĕ":{"ha":827,"x_min":0,"x_max":0,"o":"m 427 1076 b 654 1295 574 1076 654 1166 l 654 1296 l 553 1296 l 553 1295 b 427 1161 553 1215 513 1161 b 302 1295 342 1161 302 1215 l 302 1296 l 201 1296 l 201 1295 b 427 1076 201 1166 281 1076 z m 125 0 l 731 0 l 731 110 l 247 110 l 247 446 l 706 446 l 706 555 l 247 555 l 247 869 l 731 869 l 731 979 l 125 979 z "},"Ḛ":{"ha":827,"x_min":0,"x_max":0,"o":"m 125 0 l 731 0 l 731 110 l 247 110 l 247 446 l 706 446 l 706 555 l 247 555 l 247 869 l 731 869 l 731 979 l 125 979 z m 514 -315 b 664 -127 607 -315 664 -243 l 664 -119 l 569 -119 l 569 -122 b 516 -225 569 -191 551 -225 b 458 -184 497 -225 484 -216 l 452 -177 b 342 -122 419 -138 388 -122 b 192 -310 250 -122 192 -193 l 192 -317 l 287 -317 l 287 -315 b 340 -212 287 -245 306 -212 b 399 -252 359 -212 374 -222 l 405 -260 b 514 -315 437 -299 469 -315 z "},"Ė":{"ha":827,"x_min":0,"x_max":0,"o":"m 428 1113 b 505 1190 471 1113 505 1147 b 428 1267 505 1233 471 1267 b 351 1190 385 1267 351 1233 b 428 1113 351 1147 385 1113 z m 125 0 l 731 0 l 731 110 l 247 110 l 247 446 l 706 446 l 706 555 l 247 555 l 247 869 l 731 869 l 731 979 l 125 979 z "},"Ȩ":{"ha":827,"x_min":0,"x_max":0,"o":"m 125 0 l 395 0 l 340 -83 l 340 -144 l 365 -144 b 474 -199 437 -144 474 -155 l 474 -201 b 387 -253 474 -240 429 -253 b 300 -244 347 -253 312 -247 l 300 -323 b 409 -335 335 -331 372 -335 b 587 -197 501 -335 587 -297 l 587 -195 b 441 -71 587 -119 529 -71 l 492 0 l 731 0 l 731 110 l 247 110 l 247 446 l 706 446 l 706 555 l 247 555 l 247 869 l 731 869 l 731 979 l 125 979 z "},"Ḝ":{"ha":827,"x_min":0,"x_max":0,"o":"m 427 1076 b 654 1295 574 1076 654 1166 l 654 1296 l 553 1296 l 553 1295 b 427 1161 553 1215 513 1161 b 302 1295 342 1161 302 1215 l 302 1296 l 201 1296 l 201 1295 b 427 1076 201 1166 281 1076 z m 125 0 l 395 0 l 340 -83 l 340 -144 l 365 -144 b 474 -199 437 -144 474 -155 l 474 -201 b 387 -253 474 -240 429 -253 b 300 -244 347 -253 312 -247 l 300 -323 b 409 -335 335 -331 372 -335 b 587 -197 501 -335 587 -297 l 587 -195 b 441 -71 587 -119 529 -71 l 492 0 l 731 0 l 731 110 l 247 110 l 247 446 l 706 446 l 706 555 l 247 555 l 247 869 l 731 869 l 731 979 l 125 979 z "},"Ę":{"ha":827,"x_min":0,"x_max":0,"o":"m 125 0 l 612 0 b 496 -183 530 -57 496 -122 l 496 -184 b 664 -335 496 -287 578 -335 b 743 -322 691 -335 719 -330 l 743 -241 b 694 -248 726 -245 709 -248 b 613 -159 649 -248 613 -214 l 613 -157 b 730 0 613 -92 660 -43 l 731 0 l 731 110 l 247 110 l 247 446 l 706 446 l 706 555 l 247 555 l 247 869 l 731 869 l 731 979 l 125 979 z "},"Ǝ":{"ha":827,"x_min":0,"x_max":0,"o":"m 703 0 l 703 979 l 96 979 l 96 869 l 581 869 l 581 555 l 121 555 l 121 446 l 581 446 l 581 110 l 96 110 l 96 0 z "},"F":{"ha":795,"x_min":0,"x_max":0,"o":"m 125 0 l 247 0 l 247 424 l 680 424 l 680 532 l 247 532 l 247 869 l 719 869 l 719 979 l 125 979 z "},"Ḟ":{"ha":795,"x_min":0,"x_max":0,"o":"m 422 1113 b 499 1190 465 1113 499 1147 b 422 1267 499 1233 465 1267 b 345 1190 379 1267 345 1233 b 422 1113 345 1147 379 1113 z m 125 0 l 247 0 l 247 424 l 680 424 l 680 532 l 247 532 l 247 869 l 719 869 l 719 979 l 125 979 z "},"Ƒ":{"ha":795,"x_min":0,"x_max":0,"o":"m 247 424 l 680 424 l 680 532 l 247 532 l 247 869 l 719 869 l 719 979 l 125 979 l 125 -53 b 31 -154 125 -121 94 -154 b -2 -153 19 -154 7 -153 l -2 -248 b 50 -252 10 -250 31 -252 b 247 -49 182 -252 247 -187 z "},"G":{"ha":1037,"x_min":0,"x_max":0,"o":"m 530 -23 b 946 378 781 -23 946 137 l 946 498 l 549 498 l 549 391 l 824 391 l 824 367 b 531 90 824 201 706 90 b 212 489 334 90 212 243 l 212 490 b 530 889 212 733 336 889 b 814 694 676 889 774 820 l 817 687 l 940 687 l 939 694 b 530 1002 900 880 747 1002 b 87 490 262 1002 87 799 l 87 489 b 530 -23 87 176 260 -23 z "},"Ǵ":{"ha":1037,"x_min":0,"x_max":0,"o":"m 586 1076 l 735 1296 l 599 1296 l 486 1076 z m 530 -23 b 946 378 781 -23 946 137 l 946 498 l 549 498 l 549 391 l 824 391 l 824 367 b 531 90 824 201 706 90 b 212 489 334 90 212 243 l 212 490 b 530 889 212 733 336 889 b 814 694 676 889 774 820 l 817 687 l 940 687 l 939 694 b 530 1002 900 880 747 1002 b 87 490 262 1002 87 799 l 87 489 b 530 -23 87 176 260 -23 z "},"Ǧ":{"ha":1037,"x_min":0,"x_max":0,"o":"m 757 1296 l 632 1296 l 538 1151 l 528 1151 l 434 1296 l 309 1296 l 466 1076 l 600 1076 z m 530 -23 b 946 378 781 -23 946 137 l 946 498 l 549 498 l 549 391 l 824 391 l 824 367 b 531 90 824 201 706 90 b 212 489 334 90 212 243 l 212 490 b 530 889 212 733 336 889 b 814 694 676 889 774 820 l 817 687 l 940 687 l 939 694 b 530 1002 900 880 747 1002 b 87 490 262 1002 87 799 l 87 489 b 530 -23 87 176 260 -23 z "},"Ĝ":{"ha":1037,"x_min":0,"x_max":0,"o":"m 309 1076 l 434 1076 l 528 1221 l 538 1221 l 632 1076 l 757 1076 l 600 1296 l 466 1296 z m 530 -23 b 946 378 781 -23 946 137 l 946 498 l 549 498 l 549 391 l 824 391 l 824 367 b 531 90 824 201 706 90 b 212 489 334 90 212 243 l 212 490 b 530 889 212 733 336 889 b 814 694 676 889 774 820 l 817 687 l 940 687 l 939 694 b 530 1002 900 880 747 1002 b 87 490 262 1002 87 799 l 87 489 b 530 -23 87 176 260 -23 z "},"Ğ":{"ha":1037,"x_min":0,"x_max":0,"o":"m 532 1076 b 760 1295 680 1076 760 1166 l 760 1296 l 658 1296 l 658 1295 b 532 1161 658 1215 618 1161 b 408 1295 447 1161 408 1215 l 408 1296 l 306 1296 l 306 1295 b 532 1076 306 1166 386 1076 z m 530 -23 b 946 378 781 -23 946 137 l 946 498 l 549 498 l 549 391 l 824 391 l 824 367 b 531 90 824 201 706 90 b 212 489 334 90 212 243 l 212 490 b 530 889 212 733 336 889 b 814 694 676 889 774 820 l 817 687 l 940 687 l 939 694 b 530 1002 900 880 747 1002 b 87 490 262 1002 87 799 l 87 489 b 530 -23 87 176 260 -23 z "},"Ḡ":{"ha":1037,"x_min":0,"x_max":0,"o":"m 321 1145 l 745 1145 l 745 1235 l 321 1235 z m 530 -23 b 946 378 781 -23 946 137 l 946 498 l 549 498 l 549 391 l 824 391 l 824 367 b 531 90 824 201 706 90 b 212 489 334 90 212 243 l 212 490 b 530 889 212 733 336 889 b 814 694 676 889 774 820 l 817 687 l 940 687 l 939 694 b 530 1002 900 880 747 1002 b 87 490 262 1002 87 799 l 87 489 b 530 -23 87 176 260 -23 z "},"Ġ":{"ha":1037,"x_min":0,"x_max":0,"o":"m 533 1113 b 610 1190 576 1113 610 1147 b 533 1267 610 1233 576 1267 b 456 1190 490 1267 456 1233 b 533 1113 456 1147 490 1113 z m 530 -23 b 946 378 781 -23 946 137 l 946 498 l 549 498 l 549 391 l 824 391 l 824 367 b 531 90 824 201 706 90 b 212 489 334 90 212 243 l 212 490 b 530 889 212 733 336 889 b 814 694 676 889 774 820 l 817 687 l 940 687 l 939 694 b 530 1002 900 880 747 1002 b 87 490 262 1002 87 799 l 87 489 b 530 -23 87 176 260 -23 z "},"Ģ":{"ha":1037,"x_min":0,"x_max":0,"o":"m 530 -23 b 946 378 781 -23 946 137 l 946 498 l 549 498 l 549 391 l 824 391 l 824 367 b 531 90 824 201 706 90 b 212 489 334 90 212 243 l 212 490 b 530 889 212 733 336 889 b 814 694 676 889 774 820 l 817 687 l 940 687 l 939 694 b 530 1002 900 880 747 1002 b 87 490 262 1002 87 799 l 87 489 b 530 -23 87 176 260 -23 z m 407 -335 l 488 -335 l 592 -102 l 466 -102 z "},"H":{"ha":1031,"x_min":0,"x_max":0,"o":"m 125 0 l 247 0 l 247 446 l 784 446 l 784 0 l 906 0 l 906 979 l 784 979 l 784 555 l 247 555 l 247 979 l 125 979 z "},"Ḧ":{"ha":1031,"x_min":0,"x_max":0,"o":"m 372 1117 b 445 1191 412 1117 445 1150 b 372 1264 445 1231 412 1264 b 298 1191 332 1264 298 1231 b 372 1117 298 1150 332 1117 z m 659 1117 b 732 1191 699 1117 732 1150 b 659 1264 732 1231 699 1264 b 586 1191 619 1264 586 1231 b 659 1117 586 1150 619 1117 z m 125 0 l 247 0 l 247 446 l 784 446 l 784 0 l 906 0 l 906 979 l 784 979 l 784 555 l 247 555 l 247 979 l 125 979 z "},"Ȟ":{"ha":1031,"x_min":0,"x_max":0,"o":"m 739 1296 l 614 1296 l 521 1151 l 510 1151 l 416 1296 l 292 1296 l 448 1076 l 583 1076 z m 125 0 l 247 0 l 247 446 l 784 446 l 784 0 l 906 0 l 906 979 l 784 979 l 784 555 l 247 555 l 247 979 l 125 979 z "},"Ĥ":{"ha":1031,"x_min":0,"x_max":0,"o":"m 292 1076 l 416 1076 l 510 1221 l 521 1221 l 614 1076 l 739 1076 l 583 1296 l 448 1296 z m 125 0 l 247 0 l 247 446 l 784 446 l 784 0 l 906 0 l 906 979 l 784 979 l 784 555 l 247 555 l 247 979 l 125 979 z "},"Ḥ":{"ha":1031,"x_min":0,"x_max":0,"o":"m 125 0 l 247 0 l 247 446 l 784 446 l 784 0 l 906 0 l 906 979 l 784 979 l 784 555 l 247 555 l 247 979 l 125 979 z m 515 -304 b 597 -222 560 -304 597 -267 b 515 -141 597 -178 560 -141 b 434 -222 471 -141 434 -178 b 515 -304 434 -267 471 -304 z "},"Ḣ":{"ha":1031,"x_min":0,"x_max":0,"o":"m 515 1113 b 593 1190 558 1113 593 1147 b 515 1267 593 1233 558 1267 b 438 1190 473 1267 438 1233 b 515 1113 438 1147 473 1113 z m 125 0 l 247 0 l 247 446 l 784 446 l 784 0 l 906 0 l 906 979 l 784 979 l 784 555 l 247 555 l 247 979 l 125 979 z "},"Ḫ":{"ha":1031,"x_min":0,"x_max":0,"o":"m 125 0 l 247 0 l 247 446 l 784 446 l 784 0 l 906 0 l 906 979 l 784 979 l 784 555 l 247 555 l 247 979 l 125 979 z m 515 -313 b 752 -103 669 -313 752 -227 l 752 -102 l 648 -102 l 648 -103 b 515 -230 648 -179 606 -230 b 383 -103 425 -230 383 -179 l 383 -102 l 279 -102 l 279 -103 b 515 -313 279 -227 361 -313 z "},"Ḩ":{"ha":1031,"x_min":0,"x_max":0,"o":"m 125 0 l 151 0 l 95 -83 l 95 -144 l 120 -144 b 229 -199 193 -144 229 -155 l 229 -201 b 142 -253 229 -240 184 -253 b 55 -244 102 -253 67 -247 l 55 -323 b 164 -335 90 -331 127 -335 b 342 -197 256 -335 342 -297 l 342 -195 b 197 -71 342 -119 284 -71 l 247 0 l 247 446 l 784 446 l 784 0 l 906 0 l 906 979 l 784 979 l 784 555 l 247 555 l 247 979 l 125 979 z "},"Ħ":{"ha":1113,"x_min":0,"x_max":0,"o":"m 166 0 l 288 0 l 288 446 l 825 446 l 825 0 l 947 0 l 947 722 l 1072 722 l 1072 824 l 947 824 l 947 979 l 825 979 l 825 824 l 288 824 l 288 979 l 166 979 l 166 824 l 41 824 l 41 722 l 166 722 z m 288 555 l 288 722 l 825 722 l 825 555 z "},"I":{"ha":372,"x_min":0,"x_max":0,"o":"m 125 0 l 247 0 l 247 979 l 125 979 z "},"İ":{"ha":372,"x_min":0,"x_max":0,"o":"m 186 1113 b 263 1190 229 1113 263 1147 b 186 1267 263 1233 229 1267 b 109 1190 143 1267 109 1233 b 186 1113 109 1147 143 1113 z m 125 0 l 247 0 l 247 979 l 125 979 z "},"Ì":{"ha":372,"x_min":0,"x_max":0,"o":"m 136 1076 l 236 1076 l 123 1296 l -14 1296 z m 125 0 l 247 0 l 247 979 l 125 979 z "},"Ȉ":{"ha":372,"x_min":0,"x_max":0,"o":"m 9 1076 l 110 1076 l -18 1296 l -155 1296 z m 256 1076 l 357 1076 l 244 1296 l 108 1296 z m 125 0 l 247 0 l 247 979 l 125 979 z "},"Í":{"ha":372,"x_min":0,"x_max":0,"o":"m 239 1076 l 388 1296 l 252 1296 l 138 1076 z m 125 0 l 247 0 l 247 979 l 125 979 z "},"Î":{"ha":372,"x_min":0,"x_max":0,"o":"m -38 1076 l 87 1076 l 180 1221 l 191 1221 l 285 1076 l 410 1076 l 253 1296 l 119 1296 z m 125 0 l 247 0 l 247 979 l 125 979 z "},"Ǐ":{"ha":372,"x_min":0,"x_max":0,"o":"m 410 1296 l 285 1296 l 191 1151 l 180 1151 l 87 1296 l -38 1296 l 119 1076 l 253 1076 z m 125 0 l 247 0 l 247 979 l 125 979 z "},"Ï":{"ha":372,"x_min":0,"x_max":0,"o":"m 42 1117 b 115 1191 82 1117 115 1150 b 42 1264 115 1231 82 1264 b -31 1191 2 1264 -31 1231 b 42 1117 -31 1150 2 1117 z m 330 1117 b 403 1191 370 1117 403 1150 b 330 1264 403 1231 370 1264 b 256 1191 290 1264 256 1231 b 330 1117 256 1150 290 1117 z m 125 0 l 247 0 l 247 979 l 125 979 z "},"Ḯ":{"ha":372,"x_min":0,"x_max":0,"o":"m 20 1190 l 352 1224 l 352 1316 l 20 1246 z m 300 1029 l 302 1029 b 362 1090 336 1029 362 1056 l 362 1091 b 302 1151 362 1125 336 1151 l 300 1151 b 239 1091 267 1151 239 1125 l 239 1090 b 300 1029 239 1056 267 1029 z m 71 1029 l 72 1029 b 132 1090 106 1029 132 1056 l 132 1091 b 72 1151 132 1125 106 1151 l 71 1151 b 9 1091 37 1151 9 1125 l 9 1090 b 71 1029 9 1056 37 1029 z m 125 0 l 247 0 l 247 979 l 125 979 z "},"Ĭ":{"ha":372,"x_min":0,"x_max":0,"o":"m 185 1076 b 412 1295 332 1076 412 1166 l 412 1296 l 311 1296 l 311 1295 b 185 1161 311 1215 271 1161 b 60 1295 100 1161 60 1215 l 60 1296 l -41 1296 l -41 1295 b 185 1076 -41 1166 39 1076 z m 125 0 l 247 0 l 247 979 l 125 979 z "},"Ị":{"ha":372,"x_min":0,"x_max":0,"o":"m 125 0 l 247 0 l 247 979 l 125 979 z m 186 -304 b 267 -222 231 -304 267 -267 b 186 -141 267 -178 231 -141 b 104 -222 141 -141 104 -178 b 186 -304 104 -267 141 -304 z "},"Ȋ":{"ha":372,"x_min":0,"x_max":0,"o":"m 186 1296 b -41 1078 39 1296 -41 1206 l -41 1076 l 60 1076 l 60 1077 b 186 1211 60 1158 100 1211 b 311 1077 271 1211 311 1158 l 311 1076 l 412 1076 l 412 1078 b 186 1296 412 1206 332 1296 z m 125 0 l 247 0 l 247 979 l 125 979 z "},"Ī":{"ha":372,"x_min":0,"x_max":0,"o":"m -26 1145 l 398 1145 l 398 1235 l -26 1235 z m 125 0 l 247 0 l 247 979 l 125 979 z "},"Ḭ":{"ha":372,"x_min":0,"x_max":0,"o":"m 125 0 l 247 0 l 247 979 l 125 979 z m 272 -315 b 422 -127 365 -315 422 -243 l 422 -119 l 327 -119 l 327 -122 b 274 -225 327 -191 309 -225 b 216 -184 255 -225 242 -216 l 210 -177 b 100 -122 177 -138 146 -122 b -50 -310 7 -122 -50 -193 l -50 -317 l 45 -317 l 45 -315 b 98 -212 45 -245 64 -212 b 157 -252 117 -212 132 -222 l 163 -260 b 272 -315 195 -299 227 -315 z "},"Ỉ":{"ha":372,"x_min":0,"x_max":0,"o":"m 141 1031 l 229 1031 b 289 1145 267 1060 289 1098 b 151 1267 289 1224 227 1267 b 87 1256 126 1267 104 1262 l 87 1162 b 119 1166 96 1164 106 1166 b 193 1111 165 1166 193 1145 b 141 1032 193 1082 172 1057 z m 125 0 l 247 0 l 247 979 l 125 979 z "},"Ĩ":{"ha":372,"x_min":0,"x_max":0,"o":"m 268 1080 b 412 1261 357 1080 412 1149 l 412 1267 l 319 1267 l 319 1265 b 269 1168 319 1201 302 1168 b 214 1206 252 1168 239 1177 l 208 1213 b 104 1265 176 1251 146 1265 b -41 1085 15 1265 -41 1196 l -41 1078 l 52 1078 l 52 1081 b 102 1177 52 1145 69 1177 b 157 1139 120 1177 134 1168 l 164 1133 b 268 1080 195 1095 225 1080 z m 125 0 l 247 0 l 247 979 l 125 979 z "},"Į":{"ha":372,"x_min":0,"x_max":0,"o":"m 125 0 l 127 0 b 12 -183 45 -57 12 -122 l 12 -184 b 180 -335 12 -287 94 -335 b 259 -322 207 -335 235 -330 l 259 -241 b 210 -248 241 -245 224 -248 b 129 -159 165 -248 129 -214 l 129 -157 b 245 0 129 -92 176 -43 l 247 0 l 247 979 l 125 979 z "},"J":{"ha":747,"x_min":0,"x_max":0,"o":"m 334 -23 b 623 272 515 -23 623 87 l 623 979 l 500 979 l 500 273 b 334 90 500 154 442 90 b 181 225 237 90 189 151 l 180 232 l 58 232 l 59 222 b 334 -23 69 82 165 -23 z "},"Ĵ":{"ha":747,"x_min":0,"x_max":0,"o":"m 338 1076 l 463 1076 l 556 1221 l 567 1221 l 661 1076 l 785 1076 l 629 1296 l 494 1296 z m 334 -23 b 623 272 515 -23 623 87 l 623 979 l 500 979 l 500 273 b 334 90 500 154 442 90 b 181 225 237 90 189 151 l 180 232 l 58 232 l 59 222 b 334 -23 69 82 165 -23 z "},"Ĳ":{"ha":1119,"x_min":0,"x_max":0,"o":"m 125 0 l 247 0 l 247 979 l 125 979 z m 706 -23 b 994 272 887 -23 994 87 l 994 979 l 872 979 l 872 273 b 705 90 872 154 814 90 b 553 225 608 90 560 151 l 552 232 l 430 232 l 431 222 b 706 -23 441 82 536 -23 z "},"K":{"ha":915,"x_min":0,"x_max":0,"o":"m 125 0 l 247 0 l 247 342 l 364 471 l 718 0 l 876 0 l 448 556 l 840 979 l 686 979 l 258 503 l 247 503 l 247 979 l 125 979 z "},"Ḱ":{"ha":915,"x_min":0,"x_max":0,"o":"m 496 1076 l 645 1296 l 509 1296 l 395 1076 z m 125 0 l 247 0 l 247 342 l 364 471 l 718 0 l 876 0 l 448 556 l 840 979 l 686 979 l 258 503 l 247 503 l 247 979 l 125 979 z "},"Ǩ":{"ha":915,"x_min":0,"x_max":0,"o":"m 667 1296 l 542 1296 l 448 1151 l 437 1151 l 344 1296 l 219 1296 l 376 1076 l 510 1076 z m 125 0 l 247 0 l 247 342 l 364 471 l 718 0 l 876 0 l 448 556 l 840 979 l 686 979 l 258 503 l 247 503 l 247 979 l 125 979 z "},"Ḳ":{"ha":915,"x_min":0,"x_max":0,"o":"m 125 0 l 247 0 l 247 342 l 364 471 l 718 0 l 876 0 l 448 556 l 840 979 l 686 979 l 258 503 l 247 503 l 247 979 l 125 979 z m 443 -304 b 524 -222 488 -304 524 -267 b 443 -141 524 -178 488 -141 b 361 -222 398 -141 361 -178 b 443 -304 361 -267 398 -304 z "},"Ḵ":{"ha":915,"x_min":0,"x_max":0,"o":"m 125 0 l 247 0 l 247 342 l 364 471 l 718 0 l 876 0 l 448 556 l 840 979 l 686 979 l 258 503 l 247 503 l 247 979 l 125 979 z m 221 -267 l 665 -267 l 665 -175 l 221 -175 z "},"Ķ":{"ha":915,"x_min":0,"x_max":0,"o":"m 125 0 l 247 0 l 247 342 l 364 471 l 718 0 l 876 0 l 448 556 l 840 979 l 686 979 l 258 503 l 247 503 l 247 979 l 125 979 z m 317 -335 l 398 -335 l 502 -102 l 376 -102 z "},"Ƙ":{"ha":915,"x_min":0,"x_max":0,"o":"m 125 0 l 247 0 l 247 342 l 364 471 l 718 0 l 876 0 l 448 556 l 707 836 b 798 878 736 867 761 878 b 866 866 819 878 842 875 l 866 976 b 786 991 842 987 811 991 b 627 912 724 991 677 967 l 258 503 l 247 503 l 247 979 l 125 979 z "},"L":{"ha":789,"x_min":0,"x_max":0,"o":"m 125 0 l 719 0 l 719 110 l 247 110 l 247 979 l 125 979 z "},"Ĺ":{"ha":789,"x_min":0,"x_max":0,"o":"m 239 1076 l 388 1296 l 252 1296 l 138 1076 z m 125 0 l 719 0 l 719 110 l 247 110 l 247 979 l 125 979 z "},"Ḽ":{"ha":789,"x_min":0,"x_max":0,"o":"m 125 0 l 719 0 l 719 110 l 247 110 l 247 979 l 125 979 z m 189 -313 l 317 -313 l 416 -175 l 427 -175 l 527 -313 l 654 -313 l 490 -102 l 353 -102 z "},"Ŀ":{"ha":789,"x_min":0,"x_max":0,"o":"m 125 0 l 719 0 l 719 110 l 247 110 l 247 979 l 125 979 z m 668 501 b 581 589 668 550 629 589 l 579 589 b 492 501 530 589 492 550 l 492 500 b 579 412 492 451 530 412 l 581 412 b 668 500 629 412 668 451 z "},"Ḷ":{"ha":789,"x_min":0,"x_max":0,"o":"m 125 0 l 719 0 l 719 110 l 247 110 l 247 979 l 125 979 z m 422 -304 b 503 -222 467 -304 503 -267 b 422 -141 503 -178 467 -141 b 340 -222 377 -141 340 -178 b 422 -304 340 -267 377 -304 z "},"Ḹ":{"ha":789,"x_min":0,"x_max":0,"o":"m -26 1145 l 398 1145 l 398 1235 l -26 1235 z m 125 0 l 719 0 l 719 110 l 247 110 l 247 979 l 125 979 z m 422 -304 b 503 -222 467 -304 503 -267 b 422 -141 503 -178 467 -141 b 340 -222 377 -141 340 -178 b 422 -304 340 -267 377 -304 z "},"Ḻ":{"ha":789,"x_min":0,"x_max":0,"o":"m 125 0 l 719 0 l 719 110 l 247 110 l 247 979 l 125 979 z m 200 -267 l 644 -267 l 644 -175 l 200 -175 z "},"Ļ":{"ha":789,"x_min":0,"x_max":0,"o":"m 125 0 l 719 0 l 719 110 l 247 110 l 247 979 l 125 979 z m 296 -335 l 377 -335 l 481 -102 l 355 -102 z "},"Ľ":{"ha":789,"x_min":0,"x_max":0,"o":"m 407 699 l 487 699 l 578 979 l 455 979 z m 125 0 l 719 0 l 719 110 l 247 110 l 247 979 l 125 979 z "},"Ł":{"ha":784,"x_min":0,"x_max":0,"o":"m 120 0 l 714 0 l 714 110 l 242 110 l 242 444 l 517 581 l 517 690 l 242 553 l 242 979 l 120 979 l 120 492 l 41 452 l 41 343 l 120 382 z "},"M":{"ha":1214,"x_min":0,"x_max":0,"o":"m 125 0 l 239 0 l 239 747 l 246 747 l 555 0 l 659 0 l 968 747 l 975 747 l 975 0 l 1089 0 l 1089 979 l 947 979 l 612 162 l 602 162 l 267 979 l 125 979 z "},"Ḿ":{"ha":1214,"x_min":0,"x_max":0,"o":"m 660 1076 l 809 1296 l 673 1296 l 559 1076 z m 125 0 l 239 0 l 239 747 l 246 747 l 555 0 l 659 0 l 968 747 l 975 747 l 975 0 l 1089 0 l 1089 979 l 947 979 l 612 162 l 602 162 l 267 979 l 125 979 z "},"Ṁ":{"ha":1214,"x_min":0,"x_max":0,"o":"m 607 1113 b 684 1190 650 1113 684 1147 b 607 1267 684 1233 650 1267 b 530 1190 564 1267 530 1233 b 607 1113 530 1147 564 1113 z m 125 0 l 239 0 l 239 747 l 246 747 l 555 0 l 659 0 l 968 747 l 975 747 l 975 0 l 1089 0 l 1089 979 l 947 979 l 612 162 l 602 162 l 267 979 l 125 979 z "},"Ṃ":{"ha":1214,"x_min":0,"x_max":0,"o":"m 125 0 l 239 0 l 239 747 l 246 747 l 555 0 l 659 0 l 968 747 l 975 747 l 975 0 l 1089 0 l 1089 979 l 947 979 l 612 162 l 602 162 l 267 979 l 125 979 z m 607 -304 b 688 -222 652 -304 688 -267 b 607 -141 688 -178 652 -141 b 526 -222 562 -141 526 -178 b 607 -304 526 -267 562 -304 z "},"N":{"ha":1031,"x_min":0,"x_max":0,"o":"m 125 0 l 245 0 l 245 759 l 256 759 l 787 0 l 906 0 l 906 979 l 785 979 l 785 217 l 774 217 l 243 979 l 125 979 z "},"Ǹ":{"ha":1031,"x_min":0,"x_max":0,"o":"m 465 1076 l 566 1076 l 452 1296 l 316 1296 z m 125 0 l 245 0 l 245 759 l 256 759 l 787 0 l 906 0 l 906 979 l 785 979 l 785 217 l 774 217 l 243 979 l 125 979 z "},"Ń":{"ha":1031,"x_min":0,"x_max":0,"o":"m 568 1076 l 718 1296 l 581 1296 l 468 1076 z m 125 0 l 245 0 l 245 759 l 256 759 l 787 0 l 906 0 l 906 979 l 785 979 l 785 217 l 774 217 l 243 979 l 125 979 z "},"Ñ":{"ha":1031,"x_min":0,"x_max":0,"o":"m 597 1080 b 741 1261 686 1080 741 1149 l 741 1267 l 649 1267 l 649 1265 b 599 1168 649 1201 632 1168 b 543 1206 581 1168 568 1177 l 537 1213 b 433 1265 506 1251 476 1265 b 289 1085 345 1265 289 1196 l 289 1078 l 381 1078 l 381 1081 b 432 1177 381 1145 399 1177 b 487 1139 450 1177 464 1168 l 494 1133 b 597 1080 525 1095 555 1080 z m 125 0 l 245 0 l 245 759 l 256 759 l 787 0 l 906 0 l 906 979 l 785 979 l 785 217 l 774 217 l 243 979 l 125 979 z "},"Ṇ":{"ha":1031,"x_min":0,"x_max":0,"o":"m 125 0 l 245 0 l 245 759 l 256 759 l 787 0 l 906 0 l 906 979 l 785 979 l 785 217 l 774 217 l 243 979 l 125 979 z m 515 -304 b 597 -222 560 -304 597 -267 b 515 -141 597 -178 560 -141 b 434 -222 471 -141 434 -178 b 515 -304 434 -267 471 -304 z "},"Ṅ":{"ha":1031,"x_min":0,"x_max":0,"o":"m 515 1113 b 593 1190 558 1113 593 1147 b 515 1267 593 1233 558 1267 b 438 1190 473 1267 438 1233 b 515 1113 438 1147 473 1113 z m 125 0 l 245 0 l 245 759 l 256 759 l 787 0 l 906 0 l 906 979 l 785 979 l 785 217 l 774 217 l 243 979 l 125 979 z "},"Ň":{"ha":1031,"x_min":0,"x_max":0,"o":"m 739 1296 l 614 1296 l 521 1151 l 510 1151 l 416 1296 l 292 1296 l 448 1076 l 583 1076 z m 125 0 l 245 0 l 245 759 l 256 759 l 787 0 l 906 0 l 906 979 l 785 979 l 785 217 l 774 217 l 243 979 l 125 979 z "},"Ṋ":{"ha":1031,"x_min":0,"x_max":0,"o":"m 125 0 l 245 0 l 245 759 l 256 759 l 787 0 l 906 0 l 906 979 l 785 979 l 785 217 l 774 217 l 243 979 l 125 979 z m 283 -313 l 410 -313 l 510 -175 l 521 -175 l 621 -313 l 748 -313 l 584 -102 l 447 -102 z "},"Ṉ":{"ha":1031,"x_min":0,"x_max":0,"o":"m 125 0 l 245 0 l 245 759 l 256 759 l 787 0 l 906 0 l 906 979 l 785 979 l 785 217 l 774 217 l 243 979 l 125 979 z m 294 -267 l 737 -267 l 737 -175 l 294 -175 z "},"Ņ":{"ha":1031,"x_min":0,"x_max":0,"o":"m 125 0 l 245 0 l 245 759 l 256 759 l 787 0 l 906 0 l 906 979 l 785 979 l 785 217 l 774 217 l 243 979 l 125 979 z m 389 -335 l 471 -335 l 574 -102 l 448 -102 z "},"Ŋ":{"ha":1031,"x_min":0,"x_max":0,"o":"m 125 0 l 245 0 l 245 759 l 256 759 l 784 5 l 784 -53 b 690 -154 784 -121 753 -154 b 657 -153 678 -154 666 -153 l 657 -248 b 709 -252 669 -250 690 -252 b 906 -49 842 -252 906 -187 l 906 979 l 785 979 l 785 217 l 774 217 l 243 979 l 125 979 z "},"O":{"ha":1072,"x_min":0,"x_max":0,"o":"m 536 -23 b 985 489 815 -23 985 177 l 985 490 b 536 1002 985 804 814 1002 b 87 490 259 1002 87 804 l 87 489 b 536 -23 87 176 255 -23 z m 536 90 b 212 489 332 90 212 247 l 212 490 b 536 889 212 734 336 889 b 860 490 736 889 860 734 l 860 489 b 536 90 860 247 736 90 z "},"Ö":{"ha":1072,"x_min":0,"x_max":0,"o":"m 392 1117 b 465 1191 432 1117 465 1150 b 392 1264 465 1231 432 1264 b 319 1191 352 1264 319 1231 b 392 1117 319 1150 352 1117 z m 680 1117 b 753 1191 720 1117 753 1150 b 680 1264 753 1231 720 1264 b 606 1191 640 1264 606 1231 b 680 1117 606 1150 640 1117 z m 536 -23 b 985 489 815 -23 985 177 l 985 490 b 536 1002 985 804 814 1002 b 87 490 259 1002 87 804 l 87 489 b 536 -23 87 176 255 -23 z m 536 90 b 212 489 332 90 212 247 l 212 490 b 536 889 212 734 336 889 b 860 490 736 889 860 734 l 860 489 b 536 90 860 247 736 90 z "},"Õ":{"ha":1072,"x_min":0,"x_max":0,"o":"m 618 1080 b 762 1261 707 1080 762 1149 l 762 1267 l 669 1267 l 669 1265 b 619 1168 669 1201 652 1168 b 564 1206 602 1168 589 1177 l 557 1213 b 454 1265 526 1251 496 1265 b 309 1085 365 1265 309 1196 l 309 1078 l 401 1078 l 401 1081 b 452 1177 401 1145 419 1177 b 507 1139 470 1177 484 1168 l 514 1133 b 618 1080 545 1095 575 1080 z m 536 -23 b 985 489 815 -23 985 177 l 985 490 b 536 1002 985 804 814 1002 b 87 490 259 1002 87 804 l 87 489 b 536 -23 87 176 255 -23 z m 536 90 b 212 489 332 90 212 247 l 212 490 b 536 889 212 734 336 889 b 860 490 736 889 860 734 l 860 489 b 536 90 860 247 736 90 z "},"Ó":{"ha":1072,"x_min":0,"x_max":0,"o":"m 589 1076 l 738 1296 l 602 1296 l 488 1076 z m 536 -23 b 985 489 815 -23 985 177 l 985 490 b 536 1002 985 804 814 1002 b 87 490 259 1002 87 804 l 87 489 b 536 -23 87 176 255 -23 z m 536 90 b 212 489 332 90 212 247 l 212 490 b 536 889 212 734 336 889 b 860 490 736 889 860 734 l 860 489 b 536 90 860 247 736 90 z "},"Ô":{"ha":1072,"x_min":0,"x_max":0,"o":"m 312 1076 l 437 1076 l 530 1221 l 541 1221 l 635 1076 l 760 1076 l 603 1296 l 469 1296 z m 536 -23 b 985 489 815 -23 985 177 l 985 490 b 536 1002 985 804 814 1002 b 87 490 259 1002 87 804 l 87 489 b 536 -23 87 176 255 -23 z m 536 90 b 212 489 332 90 212 247 l 212 490 b 536 889 212 734 336 889 b 860 490 736 889 860 734 l 860 489 b 536 90 860 247 736 90 z "},"Ò":{"ha":1072,"x_min":0,"x_max":0,"o":"m 486 1076 l 586 1076 l 473 1296 l 336 1296 z m 536 -23 b 985 489 815 -23 985 177 l 985 490 b 536 1002 985 804 814 1002 b 87 490 259 1002 87 804 l 87 489 b 536 -23 87 176 255 -23 z m 536 90 b 212 489 332 90 212 247 l 212 490 b 536 889 212 734 336 889 b 860 490 736 889 860 734 l 860 489 b 536 90 860 247 736 90 z "},"Ổ":{"ha":1072,"x_min":0,"x_max":0,"o":"m 611 1166 l 674 1166 b 718 1246 701 1188 718 1214 b 621 1329 718 1297 677 1329 b 569 1321 602 1329 583 1326 l 569 1253 b 593 1255 574 1254 584 1255 b 637 1219 619 1255 637 1242 b 611 1167 637 1202 628 1185 z m 485 1163 l 354 1026 l 453 1026 l 536 1114 l 618 1026 l 718 1026 l 586 1163 z m 536 -23 b 985 489 815 -23 985 177 l 985 490 b 536 1002 985 804 814 1002 b 87 490 259 1002 87 804 l 87 489 b 536 -23 87 176 255 -23 z m 536 90 b 212 489 332 90 212 247 l 212 490 b 536 889 212 734 336 889 b 860 490 736 889 860 734 l 860 489 b 536 90 860 247 736 90 z "},"Ồ":{"ha":1072,"x_min":0,"x_max":0,"o":"m 717 1195 l 608 1322 l 503 1322 l 637 1195 z m 485 1163 l 354 1026 l 453 1026 l 536 1114 l 618 1026 l 718 1026 l 586 1163 z m 536 -23 b 985 489 815 -23 985 177 l 985 490 b 536 1002 985 804 814 1002 b 87 490 259 1002 87 804 l 87 489 b 536 -23 87 176 255 -23 z m 536 90 b 212 489 332 90 212 247 l 212 490 b 536 889 212 734 336 889 b 860 490 736 889 860 734 l 860 489 b 536 90 860 247 736 90 z "},"Ọ":{"ha":1072,"x_min":0,"x_max":0,"o":"m 536 -23 b 985 489 815 -23 985 177 l 985 490 b 536 1002 985 804 814 1002 b 87 490 259 1002 87 804 l 87 489 b 536 -23 87 176 255 -23 z m 536 90 b 212 489 332 90 212 247 l 212 490 b 536 889 212 734 336 889 b 860 490 736 889 860 734 l 860 489 b 536 90 860 247 736 90 z m 536 -304 b 617 -222 581 -304 617 -267 b 536 -141 617 -178 581 -141 b 454 -222 491 -141 454 -178 b 536 -304 454 -267 491 -304 z "},"Ȍ":{"ha":1072,"x_min":0,"x_max":0,"o":"m 359 1076 l 460 1076 l 332 1296 l 195 1296 z m 606 1076 l 707 1076 l 594 1296 l 458 1296 z m 536 -23 b 985 489 815 -23 985 177 l 985 490 b 536 1002 985 804 814 1002 b 87 490 259 1002 87 804 l 87 489 b 536 -23 87 176 255 -23 z m 536 90 b 212 489 332 90 212 247 l 212 490 b 536 889 212 734 336 889 b 860 490 736 889 860 734 l 860 489 b 536 90 860 247 736 90 z "},"Ṍ":{"ha":1072,"x_min":0,"x_max":0,"o":"m 479 1195 l 559 1195 l 693 1322 l 589 1322 z m 618 1031 b 718 1156 676 1031 718 1072 l 718 1162 l 643 1162 l 643 1160 b 608 1105 643 1123 630 1105 b 557 1123 591 1105 578 1109 l 541 1133 b 453 1162 514 1151 486 1162 b 354 1037 394 1162 354 1121 l 354 1031 l 429 1031 l 429 1034 b 463 1088 429 1070 441 1088 b 513 1069 479 1088 492 1082 l 528 1059 b 618 1031 556 1041 583 1031 z m 536 -23 b 985 489 815 -23 985 177 l 985 490 b 536 1002 985 804 814 1002 b 87 490 259 1002 87 804 l 87 489 b 536 -23 87 176 255 -23 z m 536 90 b 212 489 332 90 212 247 l 212 490 b 536 889 212 734 336 889 b 860 490 736 889 860 734 l 860 489 b 536 90 860 247 736 90 z "},"Ṓ":{"ha":1072,"x_min":0,"x_max":0,"o":"m 479 1186 l 559 1186 l 693 1314 l 589 1314 z m 359 1046 l 712 1046 l 712 1128 l 359 1128 z m 536 -23 b 985 489 815 -23 985 177 l 985 490 b 536 1002 985 804 814 1002 b 87 490 259 1002 87 804 l 87 489 b 536 -23 87 176 255 -23 z m 536 90 b 212 489 332 90 212 247 l 212 490 b 536 889 212 734 336 889 b 860 490 736 889 860 734 l 860 489 b 536 90 860 247 736 90 z "},"Ỗ":{"ha":1072,"x_min":0,"x_max":0,"o":"m 618 1192 b 718 1317 676 1192 718 1233 l 718 1322 l 643 1322 l 643 1320 b 608 1265 643 1284 630 1265 b 557 1284 591 1265 578 1270 l 541 1294 b 453 1322 514 1312 486 1322 b 354 1198 394 1322 354 1282 l 354 1192 l 429 1192 l 429 1194 b 463 1249 429 1231 441 1249 b 513 1230 479 1249 492 1243 l 528 1219 b 618 1192 556 1202 583 1192 z m 485 1163 l 354 1026 l 453 1026 l 536 1114 l 618 1026 l 718 1026 l 586 1163 z m 536 -23 b 985 489 815 -23 985 177 l 985 490 b 536 1002 985 804 814 1002 b 87 490 259 1002 87 804 l 87 489 b 536 -23 87 176 255 -23 z m 536 90 b 212 489 332 90 212 247 l 212 490 b 536 889 212 734 336 889 b 860 490 736 889 860 734 l 860 489 b 536 90 860 247 736 90 z "},"Ȱ":{"ha":1072,"x_min":0,"x_max":0,"o":"m 359 1202 l 712 1202 l 712 1283 l 359 1283 z m 535 1035 l 536 1035 b 597 1096 570 1035 597 1062 l 597 1097 b 536 1157 597 1131 570 1157 l 535 1157 b 474 1097 501 1157 474 1131 l 474 1096 b 535 1035 474 1062 501 1035 z m 536 -23 b 985 489 815 -23 985 177 l 985 490 b 536 1002 985 804 814 1002 b 87 490 259 1002 87 804 l 87 489 b 536 -23 87 176 255 -23 z m 536 90 b 212 489 332 90 212 247 l 212 490 b 536 889 212 734 336 889 b 860 490 736 889 860 734 l 860 489 b 536 90 860 247 736 90 z "},"Ṑ":{"ha":1072,"x_min":0,"x_max":0,"o":"m 592 1186 l 483 1314 l 378 1314 l 512 1186 z m 359 1046 l 712 1046 l 712 1128 l 359 1128 z m 536 -23 b 985 489 815 -23 985 177 l 985 490 b 536 1002 985 804 814 1002 b 87 490 259 1002 87 804 l 87 489 b 536 -23 87 176 255 -23 z m 536 90 b 212 489 332 90 212 247 l 212 490 b 536 889 212 734 336 889 b 860 490 736 889 860 734 l 860 489 b 536 90 860 247 736 90 z "},"Ǒ":{"ha":1072,"x_min":0,"x_max":0,"o":"m 760 1296 l 635 1296 l 541 1151 l 530 1151 l 437 1296 l 312 1296 l 469 1076 l 603 1076 z m 536 -23 b 985 489 815 -23 985 177 l 985 490 b 536 1002 985 804 814 1002 b 87 490 259 1002 87 804 l 87 489 b 536 -23 87 176 255 -23 z m 536 90 b 212 489 332 90 212 247 l 212 490 b 536 889 212 734 336 889 b 860 490 736 889 860 734 l 860 489 b 536 90 860 247 736 90 z "},"Ő":{"ha":1072,"x_min":0,"x_max":0,"o":"m 462 1076 l 595 1296 l 459 1296 l 361 1076 z m 709 1076 l 859 1296 l 722 1296 l 609 1076 z m 536 -23 b 985 489 815 -23 985 177 l 985 490 b 536 1002 985 804 814 1002 b 87 490 259 1002 87 804 l 87 489 b 536 -23 87 176 255 -23 z m 536 90 b 212 489 332 90 212 247 l 212 490 b 536 889 212 734 336 889 b 860 490 736 889 860 734 l 860 489 b 536 90 860 247 736 90 z "},"Ŏ":{"ha":1072,"x_min":0,"x_max":0,"o":"m 535 1076 b 762 1295 682 1076 762 1166 l 762 1296 l 661 1296 l 661 1295 b 535 1161 661 1215 621 1161 b 410 1295 450 1161 410 1215 l 410 1296 l 309 1296 l 309 1295 b 535 1076 309 1166 389 1076 z m 536 -23 b 985 489 815 -23 985 177 l 985 490 b 536 1002 985 804 814 1002 b 87 490 259 1002 87 804 l 87 489 b 536 -23 87 176 255 -23 z m 536 90 b 212 489 332 90 212 247 l 212 490 b 536 889 212 734 336 889 b 860 490 736 889 860 734 l 860 489 b 536 90 860 247 736 90 z "},"Ȏ":{"ha":1072,"x_min":0,"x_max":0,"o":"m 536 1296 b 309 1078 389 1296 309 1206 l 309 1076 l 410 1076 l 410 1077 b 536 1211 410 1158 450 1211 b 661 1077 621 1211 661 1158 l 661 1076 l 762 1076 l 762 1078 b 536 1296 762 1206 682 1296 z m 536 -23 b 985 489 815 -23 985 177 l 985 490 b 536 1002 985 804 814 1002 b 87 490 259 1002 87 804 l 87 489 b 536 -23 87 176 255 -23 z m 536 90 b 212 489 332 90 212 247 l 212 490 b 536 889 212 734 336 889 b 860 490 736 889 860 734 l 860 489 b 536 90 860 247 736 90 z "},"Ỏ":{"ha":1072,"x_min":0,"x_max":0,"o":"m 491 1031 l 579 1031 b 639 1145 616 1060 639 1098 b 500 1267 639 1224 577 1267 b 437 1256 476 1267 454 1262 l 437 1162 b 469 1166 446 1164 456 1166 b 543 1111 515 1166 543 1145 b 491 1032 543 1082 522 1057 z m 536 -23 b 985 489 815 -23 985 177 l 985 490 b 536 1002 985 804 814 1002 b 87 490 259 1002 87 804 l 87 489 b 536 -23 87 176 255 -23 z m 536 90 b 212 489 332 90 212 247 l 212 490 b 536 889 212 734 336 889 b 860 490 736 889 860 734 l 860 489 b 536 90 860 247 736 90 z "},"Ȫ":{"ha":1072,"x_min":0,"x_max":0,"o":"m 359 1199 l 712 1199 l 712 1280 l 359 1280 z m 650 1029 l 652 1029 b 712 1090 686 1029 712 1056 l 712 1091 b 652 1151 712 1125 686 1151 l 650 1151 b 589 1091 616 1151 589 1125 l 589 1090 b 650 1029 589 1056 616 1029 z m 420 1029 l 422 1029 b 482 1090 456 1029 482 1056 l 482 1091 b 422 1151 482 1125 456 1151 l 420 1151 b 359 1091 387 1151 359 1125 l 359 1090 b 420 1029 359 1056 387 1029 z m 536 -23 b 985 489 815 -23 985 177 l 985 490 b 536 1002 985 804 814 1002 b 87 490 259 1002 87 804 l 87 489 b 536 -23 87 176 255 -23 z m 536 90 b 212 489 332 90 212 247 l 212 490 b 536 889 212 734 336 889 b 860 490 736 889 860 734 l 860 489 b 536 90 860 247 736 90 z "},"Ȭ":{"ha":1072,"x_min":0,"x_max":0,"o":"m 359 1207 l 712 1207 l 712 1289 l 359 1289 z m 618 1031 b 718 1156 676 1031 718 1072 l 718 1162 l 643 1162 l 643 1160 b 608 1105 643 1123 630 1105 b 557 1123 591 1105 578 1109 l 541 1133 b 453 1162 514 1151 486 1162 b 354 1037 394 1162 354 1121 l 354 1031 l 429 1031 l 429 1034 b 463 1088 429 1070 441 1088 b 513 1069 479 1088 492 1082 l 528 1059 b 618 1031 556 1041 583 1031 z m 536 -23 b 985 489 815 -23 985 177 l 985 490 b 536 1002 985 804 814 1002 b 87 490 259 1002 87 804 l 87 489 b 536 -23 87 176 255 -23 z m 536 90 b 212 489 332 90 212 247 l 212 490 b 536 889 212 734 336 889 b 860 490 736 889 860 734 l 860 489 b 536 90 860 247 736 90 z "},"Ȯ":{"ha":1072,"x_min":0,"x_max":0,"o":"m 536 1113 b 613 1190 578 1113 613 1147 b 536 1267 613 1233 578 1267 b 458 1190 493 1267 458 1233 b 536 1113 458 1147 493 1113 z m 536 -23 b 985 489 815 -23 985 177 l 985 490 b 536 1002 985 804 814 1002 b 87 490 259 1002 87 804 l 87 489 b 536 -23 87 176 255 -23 z m 536 90 b 212 489 332 90 212 247 l 212 490 b 536 889 212 734 336 889 b 860 490 736 889 860 734 l 860 489 b 536 90 860 247 736 90 z "},"Ộ":{"ha":1072,"x_min":0,"x_max":0,"o":"m 312 1076 l 437 1076 l 530 1221 l 541 1221 l 635 1076 l 760 1076 l 603 1296 l 469 1296 z m 536 -23 b 985 489 815 -23 985 177 l 985 490 b 536 1002 985 804 814 1002 b 87 490 259 1002 87 804 l 87 489 b 536 -23 87 176 255 -23 z m 536 90 b 212 489 332 90 212 247 l 212 490 b 536 889 212 734 336 889 b 860 490 736 889 860 734 l 860 489 b 536 90 860 247 736 90 z m 536 -304 b 617 -222 581 -304 617 -267 b 536 -141 617 -178 581 -141 b 454 -222 491 -141 454 -178 b 536 -304 454 -267 491 -304 z "},"Ố":{"ha":1072,"x_min":0,"x_max":0,"o":"m 604 1195 l 684 1195 l 818 1322 l 713 1322 z m 485 1163 l 354 1026 l 453 1026 l 536 1114 l 618 1026 l 718 1026 l 586 1163 z m 536 -23 b 985 489 815 -23 985 177 l 985 490 b 536 1002 985 804 814 1002 b 87 490 259 1002 87 804 l 87 489 b 536 -23 87 176 255 -23 z m 536 90 b 212 489 332 90 212 247 l 212 490 b 536 889 212 734 336 889 b 860 490 736 889 860 734 l 860 489 b 536 90 860 247 736 90 z "},"Ṏ":{"ha":1072,"x_min":0,"x_max":0,"o":"m 650 1192 l 652 1192 b 712 1253 686 1192 712 1219 l 712 1255 b 652 1314 712 1289 686 1314 l 650 1314 b 589 1255 616 1314 589 1289 l 589 1253 b 650 1192 589 1219 616 1192 z m 420 1192 l 422 1192 b 482 1253 456 1192 482 1219 l 482 1255 b 422 1314 482 1289 456 1314 l 420 1314 b 359 1255 387 1314 359 1289 l 359 1253 b 420 1192 359 1219 387 1192 z m 618 1031 b 718 1156 676 1031 718 1072 l 718 1162 l 643 1162 l 643 1160 b 608 1105 643 1123 630 1105 b 557 1123 591 1105 578 1109 l 541 1133 b 453 1162 514 1151 486 1162 b 354 1037 394 1162 354 1121 l 354 1031 l 429 1031 l 429 1034 b 463 1088 429 1070 441 1088 b 513 1069 479 1088 492 1082 l 528 1059 b 618 1031 556 1041 583 1031 z m 536 -23 b 985 489 815 -23 985 177 l 985 490 b 536 1002 985 804 814 1002 b 87 490 259 1002 87 804 l 87 489 b 536 -23 87 176 255 -23 z m 536 90 b 212 489 332 90 212 247 l 212 490 b 536 889 212 734 336 889 b 860 490 736 889 860 734 l 860 489 b 536 90 860 247 736 90 z "},"Ō":{"ha":1072,"x_min":0,"x_max":0,"o":"m 323 1145 l 748 1145 l 748 1235 l 323 1235 z m 536 -23 b 985 489 815 -23 985 177 l 985 490 b 536 1002 985 804 814 1002 b 87 490 259 1002 87 804 l 87 489 b 536 -23 87 176 255 -23 z m 536 90 b 212 489 332 90 212 247 l 212 490 b 536 889 212 734 336 889 b 860 490 736 889 860 734 l 860 489 b 536 90 860 247 736 90 z "},"Ǫ":{"ha":1072,"x_min":0,"x_max":0,"o":"m 549 -335 b 628 -322 576 -335 604 -330 l 628 -241 b 578 -248 610 -245 593 -248 b 498 -159 534 -248 498 -214 l 498 -157 b 583 -21 498 -102 531 -59 b 985 489 834 0 985 195 l 985 490 b 536 1002 985 804 814 1002 b 87 490 259 1002 87 804 l 87 489 b 471 -19 87 201 229 9 b 380 -183 407 -72 380 -129 l 380 -184 b 549 -335 380 -287 463 -335 z m 536 90 b 212 489 332 90 212 247 l 212 490 b 536 889 212 734 336 889 b 860 490 736 889 860 734 l 860 489 b 536 90 860 247 736 90 z "},"Ǭ":{"ha":1072,"x_min":0,"x_max":0,"o":"m 323 1145 l 748 1145 l 748 1235 l 323 1235 z m 549 -335 b 628 -322 576 -335 604 -330 l 628 -241 b 578 -248 610 -245 593 -248 b 498 -159 534 -248 498 -214 l 498 -157 b 583 -21 498 -102 531 -59 b 985 489 834 0 985 195 l 985 490 b 536 1002 985 804 814 1002 b 87 490 259 1002 87 804 l 87 489 b 471 -19 87 201 229 9 b 380 -183 407 -72 380 -129 l 380 -184 b 549 -335 380 -287 463 -335 z m 536 90 b 212 489 332 90 212 247 l 212 490 b 536 889 212 734 336 889 b 860 490 736 889 860 734 l 860 489 b 536 90 860 247 736 90 z "},"Ơ":{"ha":1072,"x_min":0,"x_max":0,"o":"m 536 -23 b 985 489 815 -23 985 177 l 985 490 b 762 947 985 706 903 867 b 935 1183 884 975 930 1040 l 825 1183 b 536 1002 820 1059 772 1004 b 87 490 259 1002 87 804 l 87 489 b 536 -23 87 176 255 -23 z m 536 90 b 212 489 332 90 212 247 l 212 490 b 536 889 212 734 336 889 b 860 490 736 889 860 734 l 860 489 b 536 90 860 247 736 90 z "},"Ợ":{"ha":1072,"x_min":0,"x_max":0,"o":"m 536 -23 b 985 489 815 -23 985 177 l 985 490 b 762 947 985 706 903 867 b 935 1183 884 975 930 1040 l 825 1183 b 536 1002 820 1059 772 1004 b 87 490 259 1002 87 804 l 87 489 b 536 -23 87 176 255 -23 z m 536 90 b 212 489 332 90 212 247 l 212 490 b 536 889 212 734 336 889 b 860 490 736 889 860 734 l 860 489 b 536 90 860 247 736 90 z m 536 -304 b 617 -222 581 -304 617 -267 b 536 -141 617 -178 581 -141 b 454 -222 491 -141 454 -178 b 536 -304 454 -267 491 -304 z "},"Ở":{"ha":1072,"x_min":0,"x_max":0,"o":"m 491 1031 l 579 1031 b 639 1145 616 1060 639 1098 b 500 1267 639 1224 577 1267 b 437 1256 476 1267 454 1262 l 437 1162 b 469 1166 446 1164 456 1166 b 543 1111 515 1166 543 1145 b 491 1032 543 1082 522 1057 z m 536 -23 b 985 489 815 -23 985 177 l 985 490 b 762 947 985 706 903 867 b 935 1183 884 975 930 1040 l 825 1183 b 536 1002 820 1059 772 1004 b 87 490 259 1002 87 804 l 87 489 b 536 -23 87 176 255 -23 z m 536 90 b 212 489 332 90 212 247 l 212 490 b 536 889 212 734 336 889 b 860 490 736 889 860 734 l 860 489 b 536 90 860 247 736 90 z "},"Ỡ":{"ha":1072,"x_min":0,"x_max":0,"o":"m 611 1080 b 741 1261 691 1080 741 1149 l 741 1267 l 656 1267 l 656 1265 b 611 1168 656 1201 641 1168 b 562 1206 595 1168 584 1177 l 555 1213 b 461 1265 527 1251 500 1265 b 330 1085 381 1265 330 1196 l 330 1078 l 415 1078 l 415 1081 b 461 1177 415 1145 431 1177 b 510 1139 477 1177 490 1168 l 517 1133 b 611 1080 545 1095 572 1080 z m 536 -23 b 985 489 815 -23 985 177 l 985 490 b 770 943 985 703 907 861 b 965 1183 908 966 960 1033 l 855 1183 b 536 1002 850 1057 798 1002 b 87 490 259 1002 87 804 l 87 489 b 536 -23 87 176 255 -23 z m 536 90 b 212 489 332 90 212 247 l 212 490 b 536 889 212 734 336 889 b 860 490 736 889 860 734 l 860 489 b 536 90 860 247 736 90 z "},"Ờ":{"ha":1072,"x_min":0,"x_max":0,"o":"m 486 1076 l 586 1076 l 473 1296 l 336 1296 z m 536 -23 b 985 489 815 -23 985 177 l 985 490 b 762 947 985 706 903 867 b 935 1183 884 975 930 1040 l 825 1183 b 536 1002 820 1059 772 1004 b 87 490 259 1002 87 804 l 87 489 b 536 -23 87 176 255 -23 z m 536 90 b 212 489 332 90 212 247 l 212 490 b 536 889 212 734 336 889 b 860 490 736 889 860 734 l 860 489 b 536 90 860 247 736 90 z "},"Ớ":{"ha":1072,"x_min":0,"x_max":0,"o":"m 589 1076 l 738 1296 l 602 1296 l 488 1076 z m 536 -23 b 985 489 815 -23 985 177 l 985 490 b 762 947 985 706 903 867 b 935 1183 884 975 930 1040 l 825 1183 b 536 1002 820 1059 772 1004 b 87 490 259 1002 87 804 l 87 489 b 536 -23 87 176 255 -23 z m 536 90 b 212 489 332 90 212 247 l 212 490 b 536 889 212 734 336 889 b 860 490 736 889 860 734 l 860 489 b 536 90 860 247 736 90 z "},"Ø":{"ha":1067,"x_min":0,"x_max":0,"o":"m 534 -23 b 981 489 812 -23 981 177 l 981 490 b 885 833 981 630 947 747 l 986 954 l 913 1015 l 821 904 b 534 1002 747 967 650 1002 b 87 490 258 1002 87 804 l 87 489 b 182 145 87 349 120 232 l 82 26 l 155 -35 l 247 75 b 534 -23 320 12 417 -23 z m 204 489 l 204 491 b 534 892 204 736 331 892 b 745 814 619 892 691 865 l 262 240 b 204 489 224 306 204 390 z m 534 87 b 322 164 448 87 376 115 l 806 739 b 863 491 843 673 863 589 l 863 489 b 534 87 863 245 738 87 z "},"Ǿ":{"ha":1067,"x_min":0,"x_max":0,"o":"m 587 1076 l 736 1296 l 600 1296 l 486 1076 z m 534 -23 b 981 489 812 -23 981 177 l 981 490 b 885 833 981 630 947 747 l 986 954 l 913 1015 l 821 904 b 534 1002 747 967 650 1002 b 87 490 258 1002 87 804 l 87 489 b 182 145 87 349 120 232 l 82 26 l 155 -35 l 247 75 b 534 -23 320 12 417 -23 z m 204 489 l 204 491 b 534 892 204 736 331 892 b 745 814 619 892 691 865 l 262 240 b 204 489 224 306 204 390 z m 534 87 b 322 164 448 87 376 115 l 806 739 b 863 491 843 673 863 589 l 863 489 b 534 87 863 245 738 87 z "},"Ɵ":{"ha":1072,"x_min":0,"x_max":0,"o":"m 536 -23 b 985 489 815 -23 985 177 l 985 490 b 536 1002 985 804 814 1002 b 87 490 259 1002 87 804 l 87 489 b 536 -23 87 176 255 -23 z m 536 889 b 857 551 719 889 838 760 l 214 551 b 536 889 233 760 353 889 z m 536 90 b 213 449 344 90 225 230 l 859 449 b 536 90 846 230 725 90 z "},"P":{"ha":882,"x_min":0,"x_max":0,"o":"m 125 0 l 247 0 l 247 349 l 494 349 b 808 665 677 349 808 479 l 808 666 b 494 979 808 852 677 979 l 125 979 z m 463 870 b 683 665 602 870 683 793 l 683 663 b 463 458 683 534 602 458 l 247 458 l 247 870 z "},"Ṗ":{"ha":882,"x_min":0,"x_max":0,"o":"m 380 1113 b 457 1190 422 1113 457 1147 b 380 1267 457 1233 422 1267 b 302 1190 337 1267 302 1233 b 380 1113 302 1147 337 1113 z m 125 0 l 247 0 l 247 349 l 494 349 b 808 665 677 349 808 479 l 808 666 b 494 979 808 852 677 979 l 125 979 z m 463 870 b 683 665 602 870 683 793 l 683 663 b 463 458 683 534 602 458 l 247 458 l 247 870 z "},"Ṕ":{"ha":882,"x_min":0,"x_max":0,"o":"m 433 1076 l 582 1296 l 446 1296 l 332 1076 z m 125 0 l 247 0 l 247 349 l 494 349 b 808 665 677 349 808 479 l 808 666 b 494 979 808 852 677 979 l 125 979 z m 463 870 b 683 665 602 870 683 793 l 683 663 b 463 458 683 534 602 458 l 247 458 l 247 870 z "},"Q":{"ha":1072,"x_min":0,"x_max":0,"o":"m 536 -23 b 715 9 602 -23 661 -12 l 802 -111 l 939 -111 l 811 64 b 985 489 922 152 985 300 l 985 490 b 536 1002 985 804 814 1002 b 87 490 259 1002 87 804 l 87 489 b 536 -23 87 176 255 -23 z m 536 90 b 212 489 332 90 212 247 l 212 490 b 536 889 212 734 336 889 b 860 490 736 889 860 734 l 860 489 b 740 163 860 346 817 232 l 654 280 l 517 280 l 644 106 b 536 90 611 96 574 90 z "},"R":{"ha":907,"x_min":0,"x_max":0,"o":"m 125 0 l 247 0 l 247 387 l 488 387 l 697 0 l 840 0 l 614 406 b 810 686 736 445 810 551 l 810 688 b 498 979 810 863 687 979 l 125 979 z m 247 496 l 247 870 l 482 870 b 684 684 608 870 684 800 l 684 682 b 488 496 684 563 613 496 z "},"Ř":{"ha":907,"x_min":0,"x_max":0,"o":"m 633 1296 l 508 1296 l 414 1151 l 404 1151 l 310 1296 l 185 1296 l 342 1076 l 476 1076 z m 125 0 l 247 0 l 247 387 l 488 387 l 697 0 l 840 0 l 614 406 b 810 686 736 445 810 551 l 810 688 b 498 979 810 863 687 979 l 125 979 z m 247 496 l 247 870 l 482 870 b 684 684 608 870 684 800 l 684 682 b 488 496 684 563 613 496 z "},"Ṟ":{"ha":907,"x_min":0,"x_max":0,"o":"m 125 0 l 247 0 l 247 387 l 488 387 l 697 0 l 840 0 l 614 406 b 810 686 736 445 810 551 l 810 688 b 498 979 810 863 687 979 l 125 979 z m 247 496 l 247 870 l 482 870 b 684 684 608 870 684 800 l 684 682 b 488 496 684 563 613 496 z m 187 -267 l 631 -267 l 631 -175 l 187 -175 z "},"Ṝ":{"ha":907,"x_min":0,"x_max":0,"o":"m 197 1145 l 621 1145 l 621 1235 l 197 1235 z m 125 0 l 247 0 l 247 387 l 488 387 l 697 0 l 840 0 l 614 406 b 810 686 736 445 810 551 l 810 688 b 498 979 810 863 687 979 l 125 979 z m 247 496 l 247 870 l 482 870 b 684 684 608 870 684 800 l 684 682 b 488 496 684 563 613 496 z m 409 -304 b 490 -222 454 -304 490 -267 b 409 -141 490 -178 454 -141 b 328 -222 364 -141 328 -178 b 409 -304 328 -267 364 -304 z "},"Ȑ":{"ha":907,"x_min":0,"x_max":0,"o":"m 233 1076 l 333 1076 l 205 1296 l 68 1296 z m 479 1076 l 580 1076 l 467 1296 l 331 1296 z m 125 0 l 247 0 l 247 387 l 488 387 l 697 0 l 840 0 l 614 406 b 810 686 736 445 810 551 l 810 688 b 498 979 810 863 687 979 l 125 979 z m 247 496 l 247 870 l 482 870 b 684 684 608 870 684 800 l 684 682 b 488 496 684 563 613 496 z "},"Ȓ":{"ha":907,"x_min":0,"x_max":0,"o":"m 409 1296 b 182 1078 262 1296 182 1206 l 182 1076 l 283 1076 l 283 1077 b 409 1211 283 1158 323 1211 b 534 1077 494 1211 534 1158 l 534 1076 l 635 1076 l 635 1078 b 409 1296 635 1206 555 1296 z m 125 0 l 247 0 l 247 387 l 488 387 l 697 0 l 840 0 l 614 406 b 810 686 736 445 810 551 l 810 688 b 498 979 810 863 687 979 l 125 979 z m 247 496 l 247 870 l 482 870 b 684 684 608 870 684 800 l 684 682 b 488 496 684 563 613 496 z "},"Ŕ":{"ha":907,"x_min":0,"x_max":0,"o":"m 462 1076 l 611 1296 l 475 1296 l 361 1076 z m 125 0 l 247 0 l 247 387 l 488 387 l 697 0 l 840 0 l 614 406 b 810 686 736 445 810 551 l 810 688 b 498 979 810 863 687 979 l 125 979 z m 247 496 l 247 870 l 482 870 b 684 684 608 870 684 800 l 684 682 b 488 496 684 563 613 496 z "},"Ṛ":{"ha":907,"x_min":0,"x_max":0,"o":"m 125 0 l 247 0 l 247 387 l 488 387 l 697 0 l 840 0 l 614 406 b 810 686 736 445 810 551 l 810 688 b 498 979 810 863 687 979 l 125 979 z m 247 496 l 247 870 l 482 870 b 684 684 608 870 684 800 l 684 682 b 488 496 684 563 613 496 z m 409 -304 b 490 -222 454 -304 490 -267 b 409 -141 490 -178 454 -141 b 328 -222 364 -141 328 -178 b 409 -304 328 -267 364 -304 z "},"Ṙ":{"ha":907,"x_min":0,"x_max":0,"o":"m 409 1113 b 486 1190 452 1113 486 1147 b 409 1267 486 1233 452 1267 b 332 1190 366 1267 332 1233 b 409 1113 332 1147 366 1113 z m 125 0 l 247 0 l 247 387 l 488 387 l 697 0 l 840 0 l 614 406 b 810 686 736 445 810 551 l 810 688 b 498 979 810 863 687 979 l 125 979 z m 247 496 l 247 870 l 482 870 b 684 684 608 870 684 800 l 684 682 b 488 496 684 563 613 496 z "},"Ŗ":{"ha":907,"x_min":0,"x_max":0,"o":"m 125 0 l 247 0 l 247 387 l 488 387 l 697 0 l 840 0 l 614 406 b 810 686 736 445 810 551 l 810 688 b 498 979 810 863 687 979 l 125 979 z m 247 496 l 247 870 l 482 870 b 684 684 608 870 684 800 l 684 682 b 488 496 684 563 613 496 z m 283 -335 l 364 -335 l 468 -102 l 342 -102 z "},"S":{"ha":885,"x_min":0,"x_max":0,"o":"m 446 -23 b 807 274 664 -23 807 91 l 807 275 b 522 543 807 416 726 498 l 414 568 b 227 728 281 597 227 650 l 227 728 b 444 889 227 831 321 888 b 666 740 571 890 652 826 l 667 731 l 789 731 l 789 741 b 447 1002 779 886 642 1002 b 102 725 245 1002 103 887 l 102 724 b 383 449 102 583 187 492 l 492 425 b 682 258 626 395 682 340 l 682 258 b 452 90 682 158 585 90 b 201 249 311 90 210 151 l 200 256 l 78 256 l 79 249 b 446 -23 93 90 231 -23 z "},"Š":{"ha":885,"x_min":0,"x_max":0,"o":"m 675 1296 l 551 1296 l 457 1151 l 446 1151 l 353 1296 l 228 1296 l 385 1076 l 519 1076 z m 446 -23 b 807 274 664 -23 807 91 l 807 275 b 522 543 807 416 726 498 l 414 568 b 227 728 281 597 227 650 l 227 728 b 444 889 227 831 321 888 b 666 740 571 890 652 826 l 667 731 l 789 731 l 789 741 b 447 1002 779 886 642 1002 b 102 725 245 1002 103 887 l 102 724 b 383 449 102 583 187 492 l 492 425 b 682 258 626 395 682 340 l 682 258 b 452 90 682 158 585 90 b 201 249 311 90 210 151 l 200 256 l 78 256 l 79 249 b 446 -23 93 90 231 -23 z "},"Ş":{"ha":885,"x_min":0,"x_max":0,"o":"m 421 -335 b 600 -197 513 -335 600 -297 l 600 -195 b 454 -71 600 -119 541 -71 l 488 -22 b 807 274 682 -7 807 103 l 807 275 b 522 543 807 416 726 498 l 414 568 b 227 728 281 597 227 650 l 227 728 b 444 889 227 831 321 888 b 666 740 571 890 652 826 l 667 731 l 789 731 l 789 741 b 447 1002 779 886 642 1002 b 102 725 245 1002 103 887 l 102 724 b 383 449 102 583 187 492 l 492 425 b 682 258 626 395 682 340 l 682 258 b 452 90 682 158 585 90 b 201 249 311 90 210 151 l 200 256 l 78 256 l 79 249 b 394 -21 92 103 209 -4 l 352 -83 l 352 -144 l 377 -144 b 486 -199 450 -144 486 -155 l 486 -201 b 399 -253 486 -240 441 -253 b 312 -244 359 -253 324 -247 l 312 -323 b 421 -335 347 -331 384 -335 z "},"Ṡ":{"ha":885,"x_min":0,"x_max":0,"o":"m 452 1113 b 529 1190 494 1113 529 1147 b 452 1267 529 1233 494 1267 b 374 1190 409 1267 374 1233 b 452 1113 374 1147 409 1113 z m 446 -23 b 807 274 664 -23 807 91 l 807 275 b 522 543 807 416 726 498 l 414 568 b 227 728 281 597 227 650 l 227 728 b 444 889 227 831 321 888 b 666 740 571 890 652 826 l 667 731 l 789 731 l 789 741 b 447 1002 779 886 642 1002 b 102 725 245 1002 103 887 l 102 724 b 383 449 102 583 187 492 l 492 425 b 682 258 626 395 682 340 l 682 258 b 452 90 682 158 585 90 b 201 249 311 90 210 151 l 200 256 l 78 256 l 79 249 b 446 -23 93 90 231 -23 z "},"Ṣ":{"ha":885,"x_min":0,"x_max":0,"o":"m 446 -23 b 807 274 664 -23 807 91 l 807 275 b 522 543 807 416 726 498 l 414 568 b 227 728 281 597 227 650 l 227 728 b 444 889 227 831 321 888 b 666 740 571 890 652 826 l 667 731 l 789 731 l 789 741 b 447 1002 779 886 642 1002 b 102 725 245 1002 103 887 l 102 724 b 383 449 102 583 187 492 l 492 425 b 682 258 626 395 682 340 l 682 258 b 452 90 682 158 585 90 b 201 249 311 90 210 151 l 200 256 l 78 256 l 79 249 b 446 -23 93 90 231 -23 z m 440 -304 b 522 -222 485 -304 522 -267 b 440 -141 522 -178 485 -141 b 359 -222 395 -141 359 -178 b 440 -304 359 -267 395 -304 z "},"Ș":{"ha":885,"x_min":0,"x_max":0,"o":"m 446 -23 b 807 274 664 -23 807 91 l 807 275 b 522 543 807 416 726 498 l 414 568 b 227 728 281 597 227 650 l 227 728 b 444 889 227 831 321 888 b 666 740 571 890 652 826 l 667 731 l 789 731 l 789 741 b 447 1002 779 886 642 1002 b 102 725 245 1002 103 887 l 102 724 b 383 449 102 583 187 492 l 492 425 b 682 258 626 395 682 340 l 682 258 b 452 90 682 158 585 90 b 201 249 311 90 210 151 l 200 256 l 78 256 l 79 249 b 446 -23 93 90 231 -23 z m 314 -335 l 395 -335 l 499 -102 l 373 -102 z "},"Ṩ":{"ha":885,"x_min":0,"x_max":0,"o":"m 452 1113 b 529 1190 494 1113 529 1147 b 452 1267 529 1233 494 1267 b 374 1190 409 1267 374 1233 b 452 1113 374 1147 409 1113 z m 446 -23 b 807 274 664 -23 807 91 l 807 275 b 522 543 807 416 726 498 l 414 568 b 227 728 281 597 227 650 l 227 728 b 444 889 227 831 321 888 b 666 740 571 890 652 826 l 667 731 l 789 731 l 789 741 b 447 1002 779 886 642 1002 b 102 725 245 1002 103 887 l 102 724 b 383 449 102 583 187 492 l 492 425 b 682 258 626 395 682 340 l 682 258 b 452 90 682 158 585 90 b 201 249 311 90 210 151 l 200 256 l 78 256 l 79 249 b 446 -23 93 90 231 -23 z m 440 -304 b 522 -222 485 -304 522 -267 b 440 -141 522 -178 485 -141 b 359 -222 395 -141 359 -178 b 440 -304 359 -267 395 -304 z "},"Ṧ":{"ha":885,"x_min":0,"x_max":0,"o":"m 451 1185 l 452 1185 b 513 1246 486 1185 513 1212 l 513 1247 b 452 1307 513 1281 486 1307 l 451 1307 b 390 1247 417 1307 390 1281 l 390 1246 b 451 1185 390 1212 417 1185 z m 503 1033 l 633 1170 l 534 1170 l 452 1082 l 369 1170 l 270 1170 l 401 1033 z m 446 -23 b 807 274 664 -23 807 91 l 807 275 b 522 543 807 416 726 498 l 414 568 b 227 728 281 597 227 650 l 227 728 b 444 889 227 831 321 888 b 666 740 571 890 652 826 l 667 731 l 789 731 l 789 741 b 447 1002 779 886 642 1002 b 102 725 245 1002 103 887 l 102 724 b 383 449 102 583 187 492 l 492 425 b 682 258 626 395 682 340 l 682 258 b 452 90 682 158 585 90 b 201 249 311 90 210 151 l 200 256 l 78 256 l 79 249 b 446 -23 93 90 231 -23 z "},"Ŝ":{"ha":885,"x_min":0,"x_max":0,"o":"m 228 1076 l 353 1076 l 446 1221 l 457 1221 l 551 1076 l 675 1076 l 519 1296 l 385 1296 z m 446 -23 b 807 274 664 -23 807 91 l 807 275 b 522 543 807 416 726 498 l 414 568 b 227 728 281 597 227 650 l 227 728 b 444 889 227 831 321 888 b 666 740 571 890 652 826 l 667 731 l 789 731 l 789 741 b 447 1002 779 886 642 1002 b 102 725 245 1002 103 887 l 102 724 b 383 449 102 583 187 492 l 492 425 b 682 258 626 395 682 340 l 682 258 b 452 90 682 158 585 90 b 201 249 311 90 210 151 l 200 256 l 78 256 l 79 249 b 446 -23 93 90 231 -23 z "},"Ṥ":{"ha":885,"x_min":0,"x_max":0,"o":"m 451 1185 l 452 1185 b 513 1246 486 1185 513 1212 l 513 1247 b 452 1307 513 1281 486 1307 l 451 1307 b 390 1247 417 1307 390 1281 l 390 1246 b 451 1185 390 1212 417 1185 z m 286 1037 l 618 1072 l 618 1164 l 286 1094 z m 446 -23 b 807 274 664 -23 807 91 l 807 275 b 522 543 807 416 726 498 l 414 568 b 227 728 281 597 227 650 l 227 728 b 444 889 227 831 321 888 b 666 740 571 890 652 826 l 667 731 l 789 731 l 789 741 b 447 1002 779 886 642 1002 b 102 725 245 1002 103 887 l 102 724 b 383 449 102 583 187 492 l 492 425 b 682 258 626 395 682 340 l 682 258 b 452 90 682 158 585 90 b 201 249 311 90 210 151 l 200 256 l 78 256 l 79 249 b 446 -23 93 90 231 -23 z "},"Ś":{"ha":885,"x_min":0,"x_max":0,"o":"m 505 1076 l 654 1296 l 517 1296 l 404 1076 z m 446 -23 b 807 274 664 -23 807 91 l 807 275 b 522 543 807 416 726 498 l 414 568 b 227 728 281 597 227 650 l 227 728 b 444 889 227 831 321 888 b 666 740 571 890 652 826 l 667 731 l 789 731 l 789 741 b 447 1002 779 886 642 1002 b 102 725 245 1002 103 887 l 102 724 b 383 449 102 583 187 492 l 492 425 b 682 258 626 395 682 340 l 682 258 b 452 90 682 158 585 90 b 201 249 311 90 210 151 l 200 256 l 78 256 l 79 249 b 446 -23 93 90 231 -23 z "},"ẞ":{"ha":1020,"x_min":0,"x_max":0,"o":"m 642 -23 b 942 266 827 -23 942 87 l 942 267 b 658 543 942 414 852 501 l 642 546 l 882 814 l 882 905 b 522 1002 758 967 629 1002 b 123 633 272 1002 123 861 l 123 0 l 245 0 l 245 621 b 519 889 245 790 343 889 b 749 837 595 889 669 872 l 509 564 l 509 467 l 591 452 b 817 265 745 424 817 365 l 817 264 b 637 90 817 157 747 90 b 421 144 565 90 496 106 l 421 22 b 642 -23 490 -7 568 -23 z "},"T":{"ha":880,"x_min":0,"x_max":0,"o":"m 379 0 l 501 0 l 501 869 l 817 869 l 817 979 l 64 979 l 64 869 l 379 869 z "},"Ṱ":{"ha":880,"x_min":0,"x_max":0,"o":"m 379 0 l 501 0 l 501 869 l 817 869 l 817 979 l 64 979 l 64 869 l 379 869 z m 208 -313 l 335 -313 l 435 -175 l 446 -175 l 545 -313 l 673 -313 l 509 -102 l 372 -102 z "},"Ṭ":{"ha":880,"x_min":0,"x_max":0,"o":"m 379 0 l 501 0 l 501 869 l 817 869 l 817 979 l 64 979 l 64 869 l 379 869 z m 440 -304 b 522 -222 485 -304 522 -267 b 440 -141 522 -178 485 -141 b 359 -222 395 -141 359 -178 b 440 -304 359 -267 395 -304 z "},"Ț":{"ha":880,"x_min":0,"x_max":0,"o":"m 379 0 l 501 0 l 501 869 l 817 869 l 817 979 l 64 979 l 64 869 l 379 869 z m 314 -335 l 395 -335 l 499 -102 l 373 -102 z "},"Ṫ":{"ha":880,"x_min":0,"x_max":0,"o":"m 440 1113 b 517 1190 483 1113 517 1147 b 440 1267 517 1233 483 1267 b 363 1190 397 1267 363 1233 b 440 1113 363 1147 397 1113 z m 379 0 l 501 0 l 501 869 l 817 869 l 817 979 l 64 979 l 64 869 l 379 869 z "},"Ţ":{"ha":880,"x_min":0,"x_max":0,"o":"m 379 0 l 405 0 l 349 -83 l 349 -144 l 374 -144 b 484 -199 447 -144 484 -155 l 484 -201 b 397 -253 484 -240 438 -253 b 309 -244 357 -253 321 -247 l 309 -323 b 418 -335 345 -331 381 -335 b 597 -197 511 -335 597 -297 l 597 -195 b 451 -71 597 -119 538 -71 l 501 0 l 501 869 l 817 869 l 817 979 l 64 979 l 64 869 l 379 869 z "},"Ṯ":{"ha":880,"x_min":0,"x_max":0,"o":"m 379 0 l 501 0 l 501 869 l 817 869 l 817 979 l 64 979 l 64 869 l 379 869 z m 218 -267 l 662 -267 l 662 -175 l 218 -175 z "},"Ť":{"ha":880,"x_min":0,"x_max":0,"o":"m 664 1296 l 539 1296 l 446 1151 l 435 1151 l 341 1296 l 216 1296 l 373 1076 l 507 1076 z m 379 0 l 501 0 l 501 869 l 817 869 l 817 979 l 64 979 l 64 869 l 379 869 z "},"Ŧ":{"ha":880,"x_min":0,"x_max":0,"o":"m 379 0 l 501 0 l 501 437 l 723 437 l 723 539 l 501 539 l 501 869 l 817 869 l 817 979 l 64 979 l 64 869 l 379 869 l 379 539 l 158 539 l 158 437 l 379 437 z "},"U":{"ha":1024,"x_min":0,"x_max":0,"o":"m 513 -23 b 901 336 755 -23 901 123 l 901 979 l 779 979 l 779 345 b 513 90 779 194 682 90 b 245 345 343 90 245 194 l 245 979 l 123 979 l 123 336 b 513 -23 123 123 270 -23 z "},"Ù":{"ha":1024,"x_min":0,"x_max":0,"o":"m 462 1076 l 562 1076 l 449 1296 l 313 1296 z m 513 -23 b 901 336 755 -23 901 123 l 901 979 l 779 979 l 779 345 b 513 90 779 194 682 90 b 245 345 343 90 245 194 l 245 979 l 123 979 l 123 336 b 513 -23 123 123 270 -23 z "},"Ȕ":{"ha":1024,"x_min":0,"x_max":0,"o":"m 336 1076 l 436 1076 l 308 1296 l 172 1296 z m 583 1076 l 683 1076 l 570 1296 l 434 1296 z m 513 -23 b 901 336 755 -23 901 123 l 901 979 l 779 979 l 779 345 b 513 90 779 194 682 90 b 245 345 343 90 245 194 l 245 979 l 123 979 l 123 336 b 513 -23 123 123 270 -23 z "},"Ú":{"ha":1024,"x_min":0,"x_max":0,"o":"m 565 1076 l 714 1296 l 578 1296 l 465 1076 z m 513 -23 b 901 336 755 -23 901 123 l 901 979 l 779 979 l 779 345 b 513 90 779 194 682 90 b 245 345 343 90 245 194 l 245 979 l 123 979 l 123 336 b 513 -23 123 123 270 -23 z "},"Ű":{"ha":1024,"x_min":0,"x_max":0,"o":"m 438 1076 l 572 1296 l 435 1296 l 338 1076 z m 686 1076 l 835 1296 l 699 1296 l 585 1076 z m 513 -23 b 901 336 755 -23 901 123 l 901 979 l 779 979 l 779 345 b 513 90 779 194 682 90 b 245 345 343 90 245 194 l 245 979 l 123 979 l 123 336 b 513 -23 123 123 270 -23 z "},"Û":{"ha":1024,"x_min":0,"x_max":0,"o":"m 288 1076 l 413 1076 l 507 1221 l 517 1221 l 611 1076 l 736 1076 l 579 1296 l 445 1296 z m 513 -23 b 901 336 755 -23 901 123 l 901 979 l 779 979 l 779 345 b 513 90 779 194 682 90 b 245 345 343 90 245 194 l 245 979 l 123 979 l 123 336 b 513 -23 123 123 270 -23 z "},"Ǔ":{"ha":1024,"x_min":0,"x_max":0,"o":"m 736 1296 l 611 1296 l 517 1151 l 507 1151 l 413 1296 l 288 1296 l 445 1076 l 579 1076 z m 513 -23 b 901 336 755 -23 901 123 l 901 979 l 779 979 l 779 345 b 513 90 779 194 682 90 b 245 345 343 90 245 194 l 245 979 l 123 979 l 123 336 b 513 -23 123 123 270 -23 z "},"Ṷ":{"ha":1024,"x_min":0,"x_max":0,"o":"m 513 -23 b 901 336 755 -23 901 123 l 901 979 l 779 979 l 779 345 b 513 90 779 194 682 90 b 245 345 343 90 245 194 l 245 979 l 123 979 l 123 336 b 513 -23 123 123 270 -23 z m 279 -313 l 407 -313 l 507 -175 l 517 -175 l 617 -313 l 745 -313 l 581 -102 l 444 -102 z "},"Ü":{"ha":1024,"x_min":0,"x_max":0,"o":"m 368 1117 b 441 1191 408 1117 441 1150 b 368 1264 441 1231 408 1264 b 295 1191 328 1264 295 1231 b 368 1117 295 1150 328 1117 z m 656 1117 b 729 1191 696 1117 729 1150 b 656 1264 729 1231 696 1264 b 583 1191 616 1264 583 1231 b 656 1117 583 1150 616 1117 z m 513 -23 b 901 336 755 -23 901 123 l 901 979 l 779 979 l 779 345 b 513 90 779 194 682 90 b 245 345 343 90 245 194 l 245 979 l 123 979 l 123 336 b 513 -23 123 123 270 -23 z "},"Ǜ":{"ha":1024,"x_min":0,"x_max":0,"o":"m 678 1190 l 678 1246 l 346 1316 l 346 1224 z m 627 1029 l 628 1029 b 688 1090 662 1029 688 1056 l 688 1091 b 628 1151 688 1125 662 1151 l 627 1151 b 566 1091 593 1151 566 1125 l 566 1090 b 627 1029 566 1056 593 1029 z m 397 1029 l 398 1029 b 458 1090 432 1029 458 1056 l 458 1091 b 398 1151 458 1125 432 1151 l 397 1151 b 336 1091 363 1151 336 1125 l 336 1090 b 397 1029 336 1056 363 1029 z m 513 -23 b 901 336 755 -23 901 123 l 901 979 l 779 979 l 779 345 b 513 90 779 194 682 90 b 245 345 343 90 245 194 l 245 979 l 123 979 l 123 336 b 513 -23 123 123 270 -23 z "},"Ǘ":{"ha":1024,"x_min":0,"x_max":0,"o":"m 346 1190 l 678 1224 l 678 1316 l 346 1246 z m 627 1029 l 628 1029 b 688 1090 662 1029 688 1056 l 688 1091 b 628 1151 688 1125 662 1151 l 627 1151 b 566 1091 593 1151 566 1125 l 566 1090 b 627 1029 566 1056 593 1029 z m 397 1029 l 398 1029 b 458 1090 432 1029 458 1056 l 458 1091 b 398 1151 458 1125 432 1151 l 397 1151 b 336 1091 363 1151 336 1125 l 336 1090 b 397 1029 336 1056 363 1029 z m 513 -23 b 901 336 755 -23 901 123 l 901 979 l 779 979 l 779 345 b 513 90 779 194 682 90 b 245 345 343 90 245 194 l 245 979 l 123 979 l 123 336 b 513 -23 123 123 270 -23 z "},"Ǖ":{"ha":1024,"x_min":0,"x_max":0,"o":"m 336 1199 l 688 1199 l 688 1280 l 336 1280 z m 627 1029 l 628 1029 b 688 1090 662 1029 688 1056 l 688 1091 b 628 1151 688 1125 662 1151 l 627 1151 b 566 1091 593 1151 566 1125 l 566 1090 b 627 1029 566 1056 593 1029 z m 397 1029 l 398 1029 b 458 1090 432 1029 458 1056 l 458 1091 b 398 1151 458 1125 432 1151 l 397 1151 b 336 1091 363 1151 336 1125 l 336 1090 b 397 1029 336 1056 363 1029 z m 513 -23 b 901 336 755 -23 901 123 l 901 979 l 779 979 l 779 345 b 513 90 779 194 682 90 b 245 345 343 90 245 194 l 245 979 l 123 979 l 123 336 b 513 -23 123 123 270 -23 z "},"Ǚ":{"ha":1024,"x_min":0,"x_max":0,"o":"m 563 1181 l 694 1318 l 595 1318 l 512 1230 l 429 1318 l 330 1318 l 462 1181 z m 627 1029 l 628 1029 b 688 1090 662 1029 688 1056 l 688 1091 b 628 1151 688 1125 662 1151 l 627 1151 b 566 1091 593 1151 566 1125 l 566 1090 b 627 1029 566 1056 593 1029 z m 397 1029 l 398 1029 b 458 1090 432 1029 458 1056 l 458 1091 b 398 1151 458 1125 432 1151 l 397 1151 b 336 1091 363 1151 336 1125 l 336 1090 b 397 1029 336 1056 363 1029 z m 513 -23 b 901 336 755 -23 901 123 l 901 979 l 779 979 l 779 345 b 513 90 779 194 682 90 b 245 345 343 90 245 194 l 245 979 l 123 979 l 123 336 b 513 -23 123 123 270 -23 z "},"Ṳ":{"ha":1024,"x_min":0,"x_max":0,"o":"m 513 -23 b 901 336 755 -23 901 123 l 901 979 l 779 979 l 779 345 b 513 90 779 194 682 90 b 245 345 343 90 245 194 l 245 979 l 123 979 l 123 336 b 513 -23 123 123 270 -23 z m 362 -254 b 437 -179 403 -254 437 -220 b 362 -104 437 -138 403 -104 b 287 -179 321 -104 287 -138 b 362 -254 287 -220 321 -254 z m 661 -254 b 736 -179 703 -254 736 -220 b 661 -104 736 -138 703 -104 b 587 -179 621 -104 587 -138 b 661 -254 587 -220 621 -254 z "},"Ṵ":{"ha":1024,"x_min":0,"x_max":0,"o":"m 513 -23 b 901 336 755 -23 901 123 l 901 979 l 779 979 l 779 345 b 513 90 779 194 682 90 b 245 345 343 90 245 194 l 245 979 l 123 979 l 123 336 b 513 -23 123 123 270 -23 z m 598 -315 b 748 -127 691 -315 748 -243 l 748 -119 l 653 -119 l 653 -122 b 600 -225 653 -191 635 -225 b 542 -184 581 -225 568 -216 l 536 -177 b 427 -122 503 -138 472 -122 b 276 -310 334 -122 276 -193 l 276 -317 l 371 -317 l 371 -315 b 425 -212 371 -245 390 -212 b 483 -252 444 -212 458 -222 l 489 -260 b 598 -315 522 -299 553 -315 z "},"Ủ":{"ha":1024,"x_min":0,"x_max":0,"o":"m 467 1031 l 555 1031 b 615 1145 593 1060 615 1098 b 477 1267 615 1224 553 1267 b 413 1256 452 1267 430 1262 l 413 1162 b 446 1166 422 1164 433 1166 b 519 1111 491 1166 519 1145 b 467 1032 519 1082 498 1057 z m 513 -23 b 901 336 755 -23 901 123 l 901 979 l 779 979 l 779 345 b 513 90 779 194 682 90 b 245 345 343 90 245 194 l 245 979 l 123 979 l 123 336 b 513 -23 123 123 270 -23 z "},"Ŭ":{"ha":1024,"x_min":0,"x_max":0,"o":"m 511 1076 b 739 1295 659 1076 739 1166 l 739 1296 l 637 1296 l 637 1295 b 511 1161 637 1215 597 1161 b 387 1295 426 1161 387 1215 l 387 1296 l 285 1296 l 285 1295 b 511 1076 285 1166 365 1076 z m 513 -23 b 901 336 755 -23 901 123 l 901 979 l 779 979 l 779 345 b 513 90 779 194 682 90 b 245 345 343 90 245 194 l 245 979 l 123 979 l 123 336 b 513 -23 123 123 270 -23 z "},"Ȗ":{"ha":1024,"x_min":0,"x_max":0,"o":"m 512 1296 b 285 1078 365 1296 285 1206 l 285 1076 l 387 1076 l 387 1077 b 512 1211 387 1158 426 1211 b 637 1077 597 1211 637 1158 l 637 1076 l 739 1076 l 739 1078 b 512 1296 739 1206 659 1296 z m 513 -23 b 901 336 755 -23 901 123 l 901 979 l 779 979 l 779 345 b 513 90 779 194 682 90 b 245 345 343 90 245 194 l 245 979 l 123 979 l 123 336 b 513 -23 123 123 270 -23 z "},"Ṹ":{"ha":1024,"x_min":0,"x_max":0,"o":"m 456 1195 l 536 1195 l 669 1322 l 565 1322 z m 595 1031 b 694 1156 652 1031 694 1072 l 694 1162 l 619 1162 l 619 1160 b 585 1105 619 1123 606 1105 b 533 1123 568 1105 554 1109 l 517 1133 b 429 1162 490 1151 463 1162 b 330 1037 370 1162 330 1121 l 330 1031 l 405 1031 l 405 1034 b 439 1088 405 1070 418 1088 b 489 1069 456 1088 469 1082 l 505 1059 b 595 1031 532 1041 559 1031 z m 513 -23 b 901 336 755 -23 901 123 l 901 979 l 779 979 l 779 345 b 513 90 779 194 682 90 b 245 345 343 90 245 194 l 245 979 l 123 979 l 123 336 b 513 -23 123 123 270 -23 z "},"Ụ":{"ha":1024,"x_min":0,"x_max":0,"o":"m 513 -23 b 901 336 755 -23 901 123 l 901 979 l 779 979 l 779 345 b 513 90 779 194 682 90 b 245 345 343 90 245 194 l 245 979 l 123 979 l 123 336 b 513 -23 123 123 270 -23 z m 512 -304 b 593 -222 557 -304 593 -267 b 512 -141 593 -178 557 -141 b 431 -222 467 -141 431 -178 b 512 -304 431 -267 467 -304 z "},"Ũ":{"ha":1024,"x_min":0,"x_max":0,"o":"m 594 1080 b 738 1261 683 1080 738 1149 l 738 1267 l 646 1267 l 646 1265 b 595 1168 646 1201 629 1168 b 540 1206 578 1168 565 1177 l 534 1213 b 430 1265 503 1251 473 1265 b 286 1085 341 1265 286 1196 l 286 1078 l 378 1078 l 378 1081 b 429 1177 378 1145 395 1177 b 484 1139 446 1177 460 1168 l 490 1133 b 594 1080 522 1095 551 1080 z m 513 -23 b 901 336 755 -23 901 123 l 901 979 l 779 979 l 779 345 b 513 90 779 194 682 90 b 245 345 343 90 245 194 l 245 979 l 123 979 l 123 336 b 513 -23 123 123 270 -23 z "},"Ū":{"ha":1024,"x_min":0,"x_max":0,"o":"m 300 1145 l 724 1145 l 724 1235 l 300 1235 z m 513 -23 b 901 336 755 -23 901 123 l 901 979 l 779 979 l 779 345 b 513 90 779 194 682 90 b 245 345 343 90 245 194 l 245 979 l 123 979 l 123 336 b 513 -23 123 123 270 -23 z "},"Ṻ":{"ha":1024,"x_min":0,"x_max":0,"o":"m 627 1183 l 628 1183 b 688 1244 662 1183 688 1211 l 688 1246 b 628 1305 688 1280 662 1305 l 627 1305 b 566 1246 593 1305 566 1280 l 566 1244 b 627 1183 566 1211 593 1183 z m 397 1183 l 398 1183 b 458 1244 432 1183 458 1211 l 458 1246 b 398 1305 458 1280 432 1305 l 397 1305 b 336 1246 363 1305 336 1280 l 336 1244 b 397 1183 336 1211 363 1183 z m 336 1046 l 688 1046 l 688 1128 l 336 1128 z m 513 -23 b 901 336 755 -23 901 123 l 901 979 l 779 979 l 779 345 b 513 90 779 194 682 90 b 245 345 343 90 245 194 l 245 979 l 123 979 l 123 336 b 513 -23 123 123 270 -23 z "},"Ů":{"ha":1024,"x_min":0,"x_max":0,"o":"m 513 1024 b 656 1162 593 1024 656 1086 l 656 1162 b 513 1300 656 1239 593 1300 b 372 1162 435 1300 372 1239 l 372 1162 b 513 1024 372 1086 435 1024 z m 513 1089 b 439 1162 472 1089 439 1122 l 439 1162 b 513 1235 439 1203 472 1235 b 589 1162 555 1235 589 1203 l 589 1162 b 513 1089 589 1122 555 1089 z m 513 -23 b 901 336 755 -23 901 123 l 901 979 l 779 979 l 779 345 b 513 90 779 194 682 90 b 245 345 343 90 245 194 l 245 979 l 123 979 l 123 336 b 513 -23 123 123 270 -23 z "},"Ų":{"ha":1024,"x_min":0,"x_max":0,"o":"m 522 -335 b 602 -322 549 -335 577 -330 l 602 -241 b 552 -248 584 -245 567 -248 b 471 -159 507 -248 471 -214 l 471 -157 b 556 -22 471 -103 504 -59 b 901 336 772 -5 901 136 l 901 979 l 779 979 l 779 345 b 513 90 779 194 682 90 b 245 345 343 90 245 194 l 245 979 l 123 979 l 123 336 b 445 -19 123 144 243 6 b 354 -183 380 -71 354 -129 l 354 -184 b 522 -335 354 -287 436 -335 z "},"Ư":{"ha":1024,"x_min":0,"x_max":0,"o":"m 513 -23 b 901 336 755 -23 901 123 l 901 916 b 1086 1183 1039 947 1086 1011 l 977 1183 b 779 979 977 1050 948 987 l 779 345 b 513 90 779 194 682 90 b 245 345 343 90 245 194 l 245 979 l 123 979 l 123 336 b 513 -23 123 123 270 -23 z "},"Ừ":{"ha":1024,"x_min":0,"x_max":0,"o":"m 462 1076 l 562 1076 l 449 1296 l 313 1296 z m 513 -23 b 901 336 755 -23 901 123 l 901 916 b 1086 1183 1039 947 1086 1011 l 977 1183 b 779 979 977 1050 948 987 l 779 345 b 513 90 779 194 682 90 b 245 345 343 90 245 194 l 245 979 l 123 979 l 123 336 b 513 -23 123 123 270 -23 z "},"Ứ":{"ha":1024,"x_min":0,"x_max":0,"o":"m 565 1076 l 714 1296 l 578 1296 l 465 1076 z m 513 -23 b 901 336 755 -23 901 123 l 901 916 b 1086 1183 1039 947 1086 1011 l 977 1183 b 779 979 977 1050 948 987 l 779 345 b 513 90 779 194 682 90 b 245 345 343 90 245 194 l 245 979 l 123 979 l 123 336 b 513 -23 123 123 270 -23 z "},"Ự":{"ha":1024,"x_min":0,"x_max":0,"o":"m 513 -23 b 901 336 755 -23 901 123 l 901 916 b 1086 1183 1039 947 1086 1011 l 977 1183 b 779 979 977 1050 948 987 l 779 345 b 513 90 779 194 682 90 b 245 345 343 90 245 194 l 245 979 l 123 979 l 123 336 b 513 -23 123 123 270 -23 z m 512 -304 b 593 -222 557 -304 593 -267 b 512 -141 593 -178 557 -141 b 431 -222 467 -141 431 -178 b 512 -304 431 -267 467 -304 z "},"Ử":{"ha":1024,"x_min":0,"x_max":0,"o":"m 467 1031 l 555 1031 b 615 1145 593 1060 615 1098 b 477 1267 615 1224 553 1267 b 413 1256 452 1267 430 1262 l 413 1162 b 446 1166 422 1164 433 1166 b 519 1111 491 1166 519 1145 b 467 1032 519 1082 498 1057 z m 513 -23 b 901 336 755 -23 901 123 l 901 916 b 1086 1183 1039 947 1086 1011 l 977 1183 b 779 979 977 1050 948 987 l 779 345 b 513 90 779 194 682 90 b 245 345 343 90 245 194 l 245 979 l 123 979 l 123 336 b 513 -23 123 123 270 -23 z "},"Ữ":{"ha":1024,"x_min":0,"x_max":0,"o":"m 606 1080 b 736 1261 686 1080 736 1149 l 736 1267 l 651 1267 l 651 1265 b 606 1168 651 1201 635 1168 b 556 1206 590 1168 578 1177 l 550 1213 b 456 1265 522 1251 494 1265 b 325 1085 376 1265 325 1196 l 325 1078 l 410 1078 l 410 1081 b 456 1177 410 1145 426 1177 b 505 1139 471 1177 484 1168 l 511 1133 b 606 1080 540 1095 567 1080 z m 513 -23 b 901 336 755 -23 901 123 l 901 916 b 1086 1183 1039 947 1086 1011 l 977 1183 b 779 979 977 1050 948 987 l 779 345 b 513 90 779 194 682 90 b 245 345 343 90 245 194 l 245 979 l 123 979 l 123 336 b 513 -23 123 123 270 -23 z "},"V":{"ha":936,"x_min":0,"x_max":0,"o":"m 408 0 l 528 0 l 889 979 l 761 979 l 473 158 l 463 158 l 175 979 l 47 979 z "},"Ṽ":{"ha":936,"x_min":0,"x_max":0,"o":"m 550 1080 b 694 1261 639 1080 694 1149 l 694 1267 l 602 1267 l 602 1265 b 551 1168 602 1201 585 1168 b 496 1206 534 1168 521 1177 l 490 1213 b 386 1265 458 1251 429 1265 b 241 1085 297 1265 241 1196 l 241 1078 l 334 1078 l 334 1081 b 385 1177 334 1145 351 1177 b 439 1139 402 1177 416 1168 l 446 1133 b 550 1080 477 1095 507 1080 z m 408 0 l 528 0 l 889 979 l 761 979 l 473 158 l 463 158 l 175 979 l 47 979 z "},"Ṿ":{"ha":936,"x_min":0,"x_max":0,"o":"m 408 0 l 528 0 l 889 979 l 761 979 l 473 158 l 463 158 l 175 979 l 47 979 z m 468 -304 b 549 -222 513 -304 549 -267 b 468 -141 549 -178 513 -141 b 387 -222 423 -141 387 -178 b 468 -304 387 -267 423 -304 z "},"W":{"ha":1344,"x_min":0,"x_max":0,"o":"m 328 0 l 443 0 l 668 772 l 676 772 l 901 0 l 1017 0 l 1283 979 l 1156 979 l 961 183 l 953 183 l 734 979 l 610 979 l 391 183 l 383 183 l 189 979 l 61 979 z "},"Ẁ":{"ha":1344,"x_min":0,"x_max":0,"o":"m 622 1076 l 722 1076 l 609 1296 l 473 1296 z m 328 0 l 443 0 l 668 772 l 676 772 l 901 0 l 1017 0 l 1283 979 l 1156 979 l 961 183 l 953 183 l 734 979 l 610 979 l 391 183 l 383 183 l 189 979 l 61 979 z "},"Ẃ":{"ha":1344,"x_min":0,"x_max":0,"o":"m 725 1076 l 874 1296 l 738 1296 l 625 1076 z m 328 0 l 443 0 l 668 772 l 676 772 l 901 0 l 1017 0 l 1283 979 l 1156 979 l 961 183 l 953 183 l 734 979 l 610 979 l 391 183 l 383 183 l 189 979 l 61 979 z "},"Ẇ":{"ha":1344,"x_min":0,"x_max":0,"o":"m 672 1113 b 749 1190 715 1113 749 1147 b 672 1267 749 1233 715 1267 b 595 1190 629 1267 595 1233 b 672 1113 595 1147 629 1113 z m 328 0 l 443 0 l 668 772 l 676 772 l 901 0 l 1017 0 l 1283 979 l 1156 979 l 961 183 l 953 183 l 734 979 l 610 979 l 391 183 l 383 183 l 189 979 l 61 979 z "},"Ẉ":{"ha":1344,"x_min":0,"x_max":0,"o":"m 328 0 l 443 0 l 668 772 l 676 772 l 901 0 l 1017 0 l 1283 979 l 1156 979 l 961 183 l 953 183 l 734 979 l 610 979 l 391 183 l 383 183 l 189 979 l 61 979 z m 672 -304 b 753 -222 717 -304 753 -267 b 672 -141 753 -178 717 -141 b 591 -222 627 -141 591 -178 b 672 -304 591 -267 627 -304 z "},"Ẅ":{"ha":1344,"x_min":0,"x_max":0,"o":"m 528 1117 b 602 1191 568 1117 602 1150 b 528 1264 602 1231 568 1264 b 455 1191 488 1264 455 1231 b 528 1117 455 1150 488 1117 z m 816 1117 b 889 1191 856 1117 889 1150 b 816 1264 889 1231 856 1264 b 743 1191 776 1264 743 1231 b 816 1117 743 1150 776 1117 z m 328 0 l 443 0 l 668 772 l 676 772 l 901 0 l 1017 0 l 1283 979 l 1156 979 l 961 183 l 953 183 l 734 979 l 610 979 l 391 183 l 383 183 l 189 979 l 61 979 z "},"Ŵ":{"ha":1344,"x_min":0,"x_max":0,"o":"m 448 1076 l 573 1076 l 667 1221 l 677 1221 l 771 1076 l 896 1076 l 739 1296 l 605 1296 z m 328 0 l 443 0 l 668 772 l 676 772 l 901 0 l 1017 0 l 1283 979 l 1156 979 l 961 183 l 953 183 l 734 979 l 610 979 l 391 183 l 383 183 l 189 979 l 61 979 z "},"X":{"ha":943,"x_min":0,"x_max":0,"o":"m 60 0 l 199 0 l 463 391 l 467 391 l 727 0 l 873 0 l 543 486 l 543 488 l 881 979 l 742 979 l 477 585 l 473 585 l 212 979 l 64 979 l 394 494 l 394 492 z "},"Ẋ":{"ha":943,"x_min":0,"x_max":0,"o":"m 476 1113 b 553 1190 519 1113 553 1147 b 476 1267 553 1233 519 1267 b 399 1190 433 1267 399 1233 b 476 1113 399 1147 433 1113 z m 60 0 l 199 0 l 463 391 l 467 391 l 727 0 l 873 0 l 543 486 l 543 488 l 881 979 l 742 979 l 477 585 l 473 585 l 212 979 l 64 979 l 394 494 l 394 492 z "},"Ẍ":{"ha":943,"x_min":0,"x_max":0,"o":"m 332 1117 b 406 1191 372 1117 406 1150 b 332 1264 406 1231 372 1264 b 259 1191 292 1264 259 1231 b 332 1117 259 1150 292 1117 z m 620 1117 b 693 1191 660 1117 693 1150 b 620 1264 693 1231 660 1264 b 547 1191 580 1264 547 1231 b 620 1117 547 1150 580 1117 z m 60 0 l 199 0 l 463 391 l 467 391 l 727 0 l 873 0 l 543 486 l 543 488 l 881 979 l 742 979 l 477 585 l 473 585 l 212 979 l 64 979 l 394 494 l 394 492 z "},"Y":{"ha":910,"x_min":0,"x_max":0,"o":"m 394 0 l 516 0 l 516 421 l 863 979 l 724 979 l 460 544 l 450 544 l 186 979 l 47 979 l 394 421 z "},"Ỳ":{"ha":910,"x_min":0,"x_max":0,"o":"m 405 1076 l 505 1076 l 392 1296 l 256 1296 z m 394 0 l 516 0 l 516 421 l 863 979 l 724 979 l 460 544 l 450 544 l 186 979 l 47 979 l 394 421 z "},"Ý":{"ha":910,"x_min":0,"x_max":0,"o":"m 508 1076 l 657 1296 l 521 1296 l 408 1076 z m 394 0 l 516 0 l 516 421 l 863 979 l 724 979 l 460 544 l 450 544 l 186 979 l 47 979 l 394 421 z "},"Ẏ":{"ha":910,"x_min":0,"x_max":0,"o":"m 455 1113 b 532 1190 498 1113 532 1147 b 455 1267 532 1233 498 1267 b 378 1190 412 1267 378 1233 b 455 1113 378 1147 412 1113 z m 394 0 l 516 0 l 516 421 l 863 979 l 724 979 l 460 544 l 450 544 l 186 979 l 47 979 l 394 421 z "},"Ỵ":{"ha":910,"x_min":0,"x_max":0,"o":"m 394 0 l 516 0 l 516 421 l 863 979 l 724 979 l 460 544 l 450 544 l 186 979 l 47 979 l 394 421 z m 455 -304 b 536 -222 500 -304 536 -267 b 455 -141 536 -178 500 -141 b 374 -222 410 -141 374 -178 b 455 -304 374 -267 410 -304 z "},"Ÿ":{"ha":910,"x_min":0,"x_max":0,"o":"m 311 1117 b 385 1191 351 1117 385 1150 b 311 1264 385 1231 351 1264 b 238 1191 271 1264 238 1231 b 311 1117 238 1150 271 1117 z m 599 1117 b 672 1191 639 1117 672 1150 b 599 1264 672 1231 639 1264 b 526 1191 559 1264 526 1231 b 599 1117 526 1150 559 1117 z m 394 0 l 516 0 l 516 421 l 863 979 l 724 979 l 460 544 l 450 544 l 186 979 l 47 979 l 394 421 z "},"Ỹ":{"ha":910,"x_min":0,"x_max":0,"o":"m 537 1080 b 681 1261 626 1080 681 1149 l 681 1267 l 589 1267 l 589 1265 b 538 1168 589 1201 572 1168 b 483 1206 521 1168 508 1177 l 477 1213 b 373 1265 446 1251 416 1265 b 229 1085 284 1265 229 1196 l 229 1078 l 321 1078 l 321 1081 b 372 1177 321 1145 338 1177 b 427 1139 389 1177 404 1168 l 433 1133 b 537 1080 465 1095 494 1080 z m 394 0 l 516 0 l 516 421 l 863 979 l 724 979 l 460 544 l 450 544 l 186 979 l 47 979 l 394 421 z "},"Ŷ":{"ha":910,"x_min":0,"x_max":0,"o":"m 231 1076 l 356 1076 l 450 1221 l 460 1221 l 554 1076 l 679 1076 l 522 1296 l 388 1296 z m 394 0 l 516 0 l 516 421 l 863 979 l 724 979 l 460 544 l 450 544 l 186 979 l 47 979 l 394 421 z "},"Ȳ":{"ha":910,"x_min":0,"x_max":0,"o":"m 243 1145 l 667 1145 l 667 1235 l 243 1235 z m 394 0 l 516 0 l 516 421 l 863 979 l 724 979 l 460 544 l 450 544 l 186 979 l 47 979 l 394 421 z "},"Ỷ":{"ha":910,"x_min":0,"x_max":0,"o":"m 410 1031 l 498 1031 b 558 1145 536 1060 558 1098 b 420 1267 558 1224 496 1267 b 356 1256 395 1267 373 1262 l 356 1162 b 389 1166 366 1164 376 1166 b 462 1111 434 1166 462 1145 b 410 1032 462 1082 441 1057 z m 394 0 l 516 0 l 516 421 l 863 979 l 724 979 l 460 544 l 450 544 l 186 979 l 47 979 l 394 421 z "},"Z":{"ha":919,"x_min":0,"x_max":0,"o":"m 98 0 l 821 0 l 821 110 l 258 110 l 258 121 l 810 892 l 810 979 l 117 979 l 117 869 l 652 869 l 652 858 l 98 87 z "},"Ź":{"ha":919,"x_min":0,"x_max":0,"o":"m 513 1076 l 662 1296 l 526 1296 l 412 1076 z m 98 0 l 821 0 l 821 110 l 258 110 l 258 121 l 810 892 l 810 979 l 117 979 l 117 869 l 652 869 l 652 858 l 98 87 z "},"Ž":{"ha":919,"x_min":0,"x_max":0,"o":"m 684 1296 l 559 1296 l 465 1151 l 454 1151 l 361 1296 l 236 1296 l 393 1076 l 527 1076 z m 98 0 l 821 0 l 821 110 l 258 110 l 258 121 l 810 892 l 810 979 l 117 979 l 117 869 l 652 869 l 652 858 l 98 87 z "},"Ẑ":{"ha":919,"x_min":0,"x_max":0,"o":"m 236 1076 l 361 1076 l 454 1221 l 465 1221 l 559 1076 l 684 1076 l 527 1296 l 393 1296 z m 98 0 l 821 0 l 821 110 l 258 110 l 258 121 l 810 892 l 810 979 l 117 979 l 117 869 l 652 869 l 652 858 l 98 87 z "},"Ẕ":{"ha":919,"x_min":0,"x_max":0,"o":"m 98 0 l 821 0 l 821 110 l 258 110 l 258 121 l 810 892 l 810 979 l 117 979 l 117 869 l 652 869 l 652 858 l 98 87 z m 238 -267 l 682 -267 l 682 -175 l 238 -175 z "},"Ẓ":{"ha":919,"x_min":0,"x_max":0,"o":"m 98 0 l 821 0 l 821 110 l 258 110 l 258 121 l 810 892 l 810 979 l 117 979 l 117 869 l 652 869 l 652 858 l 98 87 z m 460 -304 b 541 -222 505 -304 541 -267 b 460 -141 541 -178 505 -141 b 378 -222 415 -141 378 -178 b 460 -304 378 -267 415 -304 z "},"Ż":{"ha":919,"x_min":0,"x_max":0,"o":"m 460 1113 b 537 1190 503 1113 537 1147 b 460 1267 537 1233 503 1267 b 382 1190 417 1267 382 1233 b 460 1113 382 1147 417 1113 z m 98 0 l 821 0 l 821 110 l 258 110 l 258 121 l 810 892 l 810 979 l 117 979 l 117 869 l 652 869 l 652 858 l 98 87 z "},"Æ":{"ha":1333,"x_min":0,"x_max":0,"o":"m 47 0 l 170 0 l 311 311 l 669 311 l 669 0 l 1237 0 l 1237 110 l 791 110 l 791 439 l 1212 439 l 1212 548 l 791 548 l 791 869 l 1237 869 l 1237 979 l 488 979 z m 569 876 l 669 876 l 669 415 l 359 415 z "},"Ǣ":{"ha":1333,"x_min":0,"x_max":0,"o":"m 650 1145 l 1074 1145 l 1074 1235 l 650 1235 z m 47 0 l 170 0 l 311 311 l 669 311 l 669 0 l 1237 0 l 1237 110 l 791 110 l 791 439 l 1212 439 l 1212 548 l 791 548 l 791 869 l 1237 869 l 1237 979 l 488 979 z m 569 876 l 669 876 l 669 415 l 359 415 z "},"Ǽ":{"ha":1333,"x_min":0,"x_max":0,"o":"m 915 1076 l 1064 1296 l 928 1296 l 814 1076 z m 47 0 l 170 0 l 311 311 l 669 311 l 669 0 l 1237 0 l 1237 110 l 791 110 l 791 439 l 1212 439 l 1212 548 l 791 548 l 791 869 l 1237 869 l 1237 979 l 488 979 z m 569 876 l 669 876 l 669 415 l 359 415 z "},"Œ":{"ha":1577,"x_min":0,"x_max":0,"o":"m 530 -23 b 863 168 670 -23 804 54 l 874 168 l 874 0 l 1480 0 l 1480 110 l 984 110 l 984 446 l 1455 446 l 1455 555 l 984 555 l 984 869 l 1480 869 l 1480 979 l 874 979 l 874 818 l 863 818 b 530 1002 803 927 667 1002 b 87 490 258 1002 87 803 l 87 489 b 530 -23 87 174 257 -23 z m 543 90 b 212 489 338 90 212 242 l 212 490 b 543 889 212 736 339 889 b 860 490 740 889 860 737 l 860 489 b 543 90 860 242 740 90 z "},"Þ":{"ha":868,"x_min":0,"x_max":0,"o":"m 125 0 l 247 0 l 247 234 l 498 234 b 786 516 648 234 786 338 l 786 517 b 500 798 786 696 649 798 l 247 798 l 247 979 l 125 979 z m 465 690 b 661 517 578 690 661 633 l 661 516 b 465 342 661 400 578 342 l 247 342 l 247 690 z "},"Ǳ":{"ha":1928,"x_min":0,"x_max":0,"o":"m 125 0 l 460 0 b 922 489 751 0 922 181 l 922 490 b 460 979 922 798 751 979 l 125 979 z m 1107 0 l 1830 0 l 1830 110 l 1267 110 l 1267 121 l 1819 892 l 1819 979 l 1126 979 l 1126 869 l 1661 869 l 1661 858 l 1107 87 z m 247 110 l 247 869 l 452 869 b 798 489 669 869 798 728 l 798 488 b 452 110 798 250 671 110 z "},"Ǆ":{"ha":1928,"x_min":0,"x_max":0,"o":"m 1693 1296 l 1568 1296 l 1474 1151 l 1463 1151 l 1370 1296 l 1245 1296 l 1402 1076 l 1536 1076 z m 125 0 l 460 0 b 922 489 751 0 922 181 l 922 490 b 460 979 922 798 751 979 l 125 979 z m 1107 0 l 1830 0 l 1830 110 l 1267 110 l 1267 121 l 1819 892 l 1819 979 l 1126 979 l 1126 869 l 1661 869 l 1661 858 l 1107 87 z m 247 110 l 247 869 l 452 869 b 798 489 669 869 798 728 l 798 488 b 452 110 798 250 671 110 z "},"Ǉ":{"ha":1536,"x_min":0,"x_max":0,"o":"m 125 0 l 719 0 l 719 110 l 247 110 l 247 979 l 125 979 z m 1123 -23 b 1411 272 1304 -23 1411 87 l 1411 979 l 1289 979 l 1289 273 b 1122 90 1289 154 1231 90 b 970 225 1025 90 977 151 l 969 232 l 847 232 l 848 222 b 1123 -23 858 82 954 -23 z "},"Ǌ":{"ha":1778,"x_min":0,"x_max":0,"o":"m 125 0 l 245 0 l 245 759 l 256 759 l 787 0 l 906 0 l 906 979 l 785 979 l 785 217 l 774 217 l 243 979 l 125 979 z m 1365 -23 b 1653 272 1546 -23 1653 87 l 1653 979 l 1531 979 l 1531 273 b 1364 90 1531 154 1473 90 b 1212 225 1267 90 1219 151 l 1211 232 l 1089 232 l 1090 222 b 1365 -23 1100 82 1196 -23 z "},"Α":{"ha":936,"x_min":0,"x_max":0,"o":"m 47 0 l 175 0 l 273 280 l 663 280 l 761 0 l 889 0 l 528 979 l 408 979 z m 463 821 l 473 821 l 627 384 l 309 384 z "},"Β":{"ha":913,"x_min":0,"x_max":0,"o":"m 125 0 l 507 0 b 838 274 715 0 838 102 l 838 275 b 620 513 838 404 753 496 l 620 524 b 789 734 714 541 789 633 l 789 735 b 499 979 789 884 679 979 l 125 979 z m 473 871 b 665 714 595 871 665 813 l 665 713 b 442 557 665 610 590 557 l 247 557 l 247 871 z m 477 452 b 713 281 633 452 713 394 l 713 280 b 488 108 713 168 635 108 l 247 108 l 247 452 z "},"Γ":{"ha":780,"x_min":0,"x_max":0,"o":"m 247 0 l 247 869 l 705 869 l 705 979 l 125 979 l 125 0 z "},"Δ":{"ha":945,"x_min":0,"x_max":0,"o":"m 70 0 l 876 0 l 876 86 l 533 979 l 412 979 l 70 86 z m 208 110 l 208 121 l 467 827 l 478 827 l 737 121 l 737 110 z "},"Ε":{"ha":827,"x_min":0,"x_max":0,"o":"m 125 0 l 731 0 l 731 110 l 247 110 l 247 446 l 706 446 l 706 555 l 247 555 l 247 869 l 731 869 l 731 979 l 125 979 z "},"Ζ":{"ha":919,"x_min":0,"x_max":0,"o":"m 98 0 l 821 0 l 821 110 l 258 110 l 258 121 l 810 892 l 810 979 l 117 979 l 117 869 l 652 869 l 652 858 l 98 87 z "},"Η":{"ha":1031,"x_min":0,"x_max":0,"o":"m 125 0 l 247 0 l 247 446 l 784 446 l 784 0 l 906 0 l 906 979 l 784 979 l 784 555 l 247 555 l 247 979 l 125 979 z "},"Θ":{"ha":1080,"x_min":0,"x_max":0,"o":"m 540 -23 b 994 489 823 -23 994 177 l 994 490 b 540 1002 994 804 821 1002 b 87 490 260 1002 87 804 l 87 489 b 540 -23 87 176 256 -23 z m 541 90 b 207 489 331 90 207 247 l 207 490 b 541 889 207 734 335 889 b 874 490 747 889 874 734 l 874 489 b 541 90 874 247 747 90 z m 353 436 l 727 436 l 727 542 l 353 542 z "},"Ι":{"ha":372,"x_min":0,"x_max":0,"o":"m 125 0 l 247 0 l 247 979 l 125 979 z "},"Κ":{"ha":915,"x_min":0,"x_max":0,"o":"m 125 0 l 247 0 l 247 342 l 364 471 l 718 0 l 876 0 l 448 556 l 840 979 l 686 979 l 258 503 l 247 503 l 247 979 l 125 979 z "},"Λ":{"ha":928,"x_min":0,"x_max":0,"o":"m 56 0 l 184 0 l 458 814 l 469 814 l 743 0 l 871 0 l 524 979 l 404 979 z "},"Μ":{"ha":1214,"x_min":0,"x_max":0,"o":"m 125 0 l 239 0 l 239 747 l 246 747 l 555 0 l 659 0 l 968 747 l 975 747 l 975 0 l 1089 0 l 1089 979 l 947 979 l 612 162 l 602 162 l 267 979 l 125 979 z "},"Ν":{"ha":1031,"x_min":0,"x_max":0,"o":"m 125 0 l 245 0 l 245 759 l 256 759 l 787 0 l 906 0 l 906 979 l 785 979 l 785 217 l 774 217 l 243 979 l 125 979 z "},"Ξ":{"ha":911,"x_min":0,"x_max":0,"o":"m 96 869 l 814 869 l 814 979 l 96 979 z m 155 446 l 755 446 l 755 555 l 155 555 z m 96 0 l 814 0 l 814 110 l 96 110 z "},"Ο":{"ha":1072,"x_min":0,"x_max":0,"o":"m 536 -23 b 985 489 815 -23 985 177 l 985 490 b 536 1002 985 804 814 1002 b 87 490 259 1002 87 804 l 87 489 b 536 -23 87 176 255 -23 z m 536 90 b 212 489 332 90 212 247 l 212 490 b 536 889 212 734 336 889 b 860 490 736 889 860 734 l 860 489 b 536 90 860 247 736 90 z "},"Π":{"ha":1017,"x_min":0,"x_max":0,"o":"m 892 0 l 892 979 l 125 979 l 125 0 l 247 0 l 247 869 l 770 869 l 770 0 z "},"Ρ":{"ha":882,"x_min":0,"x_max":0,"o":"m 125 0 l 247 0 l 247 349 l 494 349 b 808 665 677 349 808 479 l 808 666 b 494 979 808 852 677 979 l 125 979 z m 463 870 b 683 665 602 870 683 793 l 683 663 b 463 458 683 534 602 458 l 247 458 l 247 870 z "},"Ʃ":{"ha":905,"x_min":0,"x_max":0,"o":"m 98 0 l 808 0 l 808 110 l 252 110 l 252 121 l 509 490 l 509 511 l 267 858 l 267 869 l 795 869 l 795 979 l 109 979 l 109 876 l 382 492 l 98 90 z "},"Τ":{"ha":880,"x_min":0,"x_max":0,"o":"m 379 0 l 501 0 l 501 869 l 817 869 l 817 979 l 64 979 l 64 869 l 379 869 z "},"Υ":{"ha":910,"x_min":0,"x_max":0,"o":"m 394 0 l 516 0 l 516 421 l 863 979 l 724 979 l 460 544 l 450 544 l 186 979 l 47 979 l 394 421 z "},"Φ":{"ha":1164,"x_min":0,"x_max":0,"o":"m 521 -39 l 643 -39 l 643 58 b 1084 486 906 70 1084 231 l 1084 487 b 643 916 1084 743 906 904 l 643 1015 l 521 1015 l 521 916 b 80 487 258 904 80 743 l 80 486 b 521 58 80 231 258 70 z m 521 167 b 205 486 333 174 205 285 l 205 487 b 521 807 205 689 333 800 z m 643 167 l 643 807 b 959 487 831 800 959 689 l 959 486 b 643 167 959 285 831 174 z "},"Χ":{"ha":943,"x_min":0,"x_max":0,"o":"m 60 0 l 199 0 l 463 391 l 467 391 l 727 0 l 873 0 l 543 486 l 543 488 l 881 979 l 742 979 l 477 585 l 473 585 l 212 979 l 64 979 l 394 494 l 394 492 z "},"Ψ":{"ha":1137,"x_min":0,"x_max":0,"o":"m 507 0 l 629 0 l 629 230 b 1022 609 865 230 1022 382 l 1022 979 l 900 979 l 900 613 b 629 342 900 444 803 347 l 629 979 l 507 979 l 507 342 b 237 613 334 347 237 444 l 237 979 l 115 979 l 115 609 b 507 230 115 382 272 231 z "},"Ω":{"ha":1078,"x_min":0,"x_max":0,"o":"m 92 0 l 448 0 l 448 138 b 216 537 290 237 216 362 l 216 538 b 539 889 216 755 339 889 b 862 538 739 889 862 755 l 862 537 b 630 138 862 362 788 237 l 630 0 l 987 0 l 987 110 l 776 110 l 776 121 b 987 540 909 205 987 360 l 987 541 b 539 1002 987 816 806 1002 b 92 541 272 1002 92 816 l 92 540 b 302 121 92 360 170 205 l 302 110 l 92 110 z "},"Ά":{"ha":936,"x_min":0,"x_max":0,"o":"m 224 771 l 304 979 l 173 979 l 125 771 z m 47 0 l 175 0 l 273 280 l 663 280 l 761 0 l 889 0 l 528 979 l 408 979 z m 463 821 l 473 821 l 627 384 l 309 384 z "},"Έ":{"ha":1008,"x_min":0,"x_max":0,"o":"m 146 771 l 225 979 l 94 979 l 47 771 z m 306 0 l 912 0 l 912 110 l 428 110 l 428 446 l 887 446 l 887 555 l 428 555 l 428 869 l 912 869 l 912 979 l 306 979 z "},"Ή":{"ha":1212,"x_min":0,"x_max":0,"o":"m 146 771 l 225 979 l 94 979 l 47 771 z m 306 0 l 428 0 l 428 446 l 965 446 l 965 0 l 1087 0 l 1087 979 l 965 979 l 965 555 l 428 555 l 428 979 l 306 979 z "},"Ί":{"ha":553,"x_min":0,"x_max":0,"o":"m 146 771 l 225 979 l 94 979 l 47 771 z m 306 0 l 428 0 l 428 979 l 306 979 z "},"Ϊ":{"ha":372,"x_min":0,"x_max":0,"o":"m 42 1117 b 115 1191 82 1117 115 1150 b 42 1264 115 1231 82 1264 b -31 1191 2 1264 -31 1231 b 42 1117 -31 1150 2 1117 z m 330 1117 b 403 1191 370 1117 403 1150 b 330 1264 403 1231 370 1264 b 256 1191 290 1264 256 1231 b 330 1117 256 1150 290 1117 z m 125 0 l 247 0 l 247 979 l 125 979 z "},"Ό":{"ha":1160,"x_min":0,"x_max":0,"o":"m 624 -23 b 1073 489 903 -23 1073 177 l 1073 490 b 624 1002 1073 804 902 1002 b 175 490 347 1002 175 804 l 175 489 b 624 -23 175 176 343 -23 z m 146 771 l 225 979 l 94 979 l 47 771 z m 624 90 b 300 489 420 90 300 247 l 300 490 b 624 889 300 734 425 889 b 948 490 824 889 948 734 l 948 489 b 624 90 948 247 825 90 z "},"Ύ":{"ha":1127,"x_min":0,"x_max":0,"o":"m 146 771 l 225 979 l 94 979 l 47 771 z m 611 0 l 733 0 l 733 421 l 1080 979 l 941 979 l 677 544 l 667 544 l 403 979 l 264 979 l 611 421 z "},"Ϋ":{"ha":910,"x_min":0,"x_max":0,"o":"m 311 1117 b 385 1191 351 1117 385 1150 b 311 1264 385 1231 351 1264 b 238 1191 271 1264 238 1231 b 311 1117 238 1150 271 1117 z m 599 1117 b 672 1191 639 1117 672 1150 b 599 1264 672 1231 639 1264 b 526 1191 559 1264 526 1231 b 599 1117 526 1150 559 1117 z m 394 0 l 516 0 l 516 421 l 863 979 l 724 979 l 460 544 l 450 544 l 186 979 l 47 979 l 394 421 z "},"Ώ":{"ha":1216,"x_min":0,"x_max":0,"o":"m 229 0 l 586 0 l 586 138 b 354 537 428 237 354 362 l 354 538 b 677 889 354 755 477 889 b 1000 538 877 889 1000 755 l 1000 537 b 768 138 1000 362 926 237 l 768 0 l 1124 0 l 1124 110 l 913 110 l 913 121 b 1124 540 1046 205 1124 360 l 1124 541 b 677 1002 1124 816 944 1002 b 229 541 410 1002 229 816 l 229 540 b 440 121 229 360 307 205 l 440 110 l 229 110 z m 146 771 l 225 979 l 94 979 l 47 771 z "},"Ϝ":{"ha":787,"x_min":0,"x_max":0,"o":"m 254 0 l 254 433 l 712 433 l 712 543 l 254 543 l 254 869 l 712 869 l 712 979 l 132 979 l 132 0 z "},"∇":{"ha":945,"x_min":0,"x_max":0,"o":"m 876 979 l 70 979 l 70 892 l 412 0 l 533 0 l 876 892 z m 737 869 l 737 858 l 478 151 l 467 151 l 208 858 l 208 869 z "},"А":{"ha":949,"x_min":0,"x_max":0,"o":"m 54 0 l 182 0 l 280 280 l 669 280 l 768 0 l 896 0 l 535 979 l 414 979 z m 469 821 l 480 821 l 633 384 l 316 384 z "},"Ӑ":{"ha":949,"x_min":0,"x_max":0,"o":"m 476 1077 b 699 1290 610 1077 699 1168 l 595 1290 b 476 1156 595 1220 551 1156 b 357 1290 403 1156 357 1220 l 254 1290 b 476 1077 254 1168 342 1077 z m 54 0 l 182 0 l 280 280 l 669 280 l 768 0 l 896 0 l 535 979 l 414 979 z m 469 821 l 480 821 l 633 384 l 316 384 z "},"Ӓ":{"ha":949,"x_min":0,"x_max":0,"o":"m 331 1117 b 404 1191 371 1117 404 1150 b 331 1264 404 1231 371 1264 b 258 1191 291 1264 258 1231 b 331 1117 258 1150 291 1117 z m 618 1117 b 692 1191 659 1117 692 1150 b 618 1264 692 1231 659 1264 b 545 1191 578 1264 545 1231 b 618 1117 545 1150 578 1117 z m 54 0 l 182 0 l 280 280 l 669 280 l 768 0 l 896 0 l 535 979 l 414 979 z m 469 821 l 480 821 l 633 384 l 316 384 z "},"Б":{"ha":882,"x_min":0,"x_max":0,"o":"m 132 0 l 488 0 b 801 293 671 0 800 120 l 801 294 b 486 589 801 467 670 589 l 254 589 l 254 869 l 703 869 l 703 979 l 132 979 z m 254 110 l 254 479 l 456 479 b 675 294 595 479 675 412 l 675 293 b 456 110 675 175 595 110 z "},"В":{"ha":926,"x_min":0,"x_max":0,"o":"m 132 0 l 513 0 b 845 274 722 0 845 102 l 845 275 b 627 513 845 404 760 496 l 627 524 b 795 734 721 541 795 633 l 795 735 b 506 979 795 884 686 979 l 132 979 z m 480 871 b 672 714 602 871 672 813 l 672 713 b 449 557 672 610 597 557 l 254 557 l 254 871 z m 484 452 b 720 281 640 452 720 394 l 720 280 b 495 108 720 168 642 108 l 254 108 l 254 452 z "},"Г":{"ha":787,"x_min":0,"x_max":0,"o":"m 254 0 l 254 869 l 712 869 l 712 979 l 132 979 l 132 0 z "},"Ѓ":{"ha":787,"x_min":0,"x_max":0,"o":"m 475 1076 l 624 1296 l 488 1296 l 374 1076 z m 254 0 l 254 869 l 712 869 l 712 979 l 132 979 l 132 0 z "},"Ґ":{"ha":787,"x_min":0,"x_max":0,"o":"m 254 0 l 254 869 l 712 869 l 712 1172 l 600 1172 l 600 979 l 132 979 l 132 0 z "},"Ӷ":{"ha":787,"x_min":0,"x_max":0,"o":"m 264 -193 l 376 -193 l 376 110 l 254 110 l 254 869 l 712 869 l 712 979 l 132 979 l 132 0 l 264 0 z "},"Ғ":{"ha":830,"x_min":0,"x_max":0,"o":"m 297 0 l 297 437 l 567 437 l 567 539 l 297 539 l 297 869 l 755 869 l 755 979 l 175 979 l 175 539 l 43 539 l 43 437 l 175 437 l 175 0 z "},"Ӻ":{"ha":830,"x_min":0,"x_max":0,"o":"m 43 437 l 175 437 l 175 -53 b 81 -154 175 -121 144 -154 b 48 -153 69 -154 57 -153 l 48 -248 b 100 -252 60 -250 81 -252 b 297 -49 233 -252 297 -187 l 297 437 l 567 437 l 567 539 l 297 539 l 297 869 l 755 869 l 755 979 l 175 979 l 175 539 l 43 539 z "},"Д":{"ha":1031,"x_min":0,"x_max":0,"o":"m 140 -193 l 140 0 l 870 0 l 870 -193 l 983 -193 l 983 110 l 861 110 l 861 979 l 242 979 l 205 363 b 100 110 197 235 171 148 l 27 110 l 27 -193 z m 319 360 l 351 869 l 739 869 l 739 110 l 251 110 l 251 118 b 319 360 299 176 313 250 z "},"Е":{"ha":841,"x_min":0,"x_max":0,"o":"m 132 0 l 738 0 l 738 110 l 254 110 l 254 446 l 713 446 l 713 555 l 254 555 l 254 869 l 738 869 l 738 979 l 132 979 z "},"Ё":{"ha":841,"x_min":0,"x_max":0,"o":"m 291 1117 b 364 1191 331 1117 364 1150 b 291 1264 364 1231 331 1264 b 218 1191 251 1264 218 1231 b 291 1117 218 1150 251 1117 z m 578 1117 b 652 1191 618 1117 652 1150 b 578 1264 652 1231 618 1264 b 505 1191 538 1264 505 1231 b 578 1117 505 1150 538 1117 z m 132 0 l 738 0 l 738 110 l 254 110 l 254 446 l 713 446 l 713 555 l 254 555 l 254 869 l 738 869 l 738 979 l 132 979 z "},"Ӗ":{"ha":841,"x_min":0,"x_max":0,"o":"m 436 1077 b 659 1290 570 1077 659 1168 l 555 1290 b 436 1156 555 1220 511 1156 b 317 1290 363 1156 317 1220 l 214 1290 b 436 1077 214 1168 302 1077 z m 132 0 l 738 0 l 738 110 l 254 110 l 254 446 l 713 446 l 713 555 l 254 555 l 254 869 l 738 869 l 738 979 l 132 979 z "},"Ѐ":{"ha":841,"x_min":0,"x_max":0,"o":"m 385 1076 l 485 1076 l 372 1296 l 235 1296 z m 132 0 l 738 0 l 738 110 l 254 110 l 254 446 l 713 446 l 713 555 l 254 555 l 254 869 l 738 869 l 738 979 l 132 979 z "},"Ж":{"ha":1417,"x_min":0,"x_max":0,"o":"m 768 555 l 768 979 l 646 979 l 646 555 l 611 555 l 234 979 l 83 979 l 516 506 l 46 0 l 203 0 l 611 446 l 646 446 l 646 0 l 768 0 l 768 446 l 804 446 l 1212 0 l 1371 0 l 899 509 l 1331 979 l 1181 979 l 804 555 z "},"Ӂ":{"ha":1417,"x_min":0,"x_max":0,"o":"m 709 1077 b 932 1290 844 1077 932 1168 l 829 1290 b 709 1156 829 1220 785 1156 b 591 1290 636 1156 591 1220 l 487 1290 b 709 1077 487 1168 576 1077 z m 768 555 l 768 979 l 646 979 l 646 555 l 611 555 l 234 979 l 83 979 l 516 506 l 46 0 l 203 0 l 611 446 l 646 446 l 646 0 l 768 0 l 768 446 l 804 446 l 1212 0 l 1371 0 l 899 509 l 1331 979 l 1181 979 l 804 555 z "},"Ӝ":{"ha":1417,"x_min":0,"x_max":0,"o":"m 564 1117 b 637 1191 604 1117 637 1150 b 564 1264 637 1231 604 1264 b 491 1191 524 1264 491 1231 b 564 1117 491 1150 524 1117 z m 852 1117 b 925 1191 892 1117 925 1150 b 852 1264 925 1231 892 1264 b 779 1191 812 1264 779 1231 b 852 1117 779 1150 812 1117 z m 768 555 l 768 979 l 646 979 l 646 555 l 611 555 l 234 979 l 83 979 l 516 506 l 46 0 l 203 0 l 611 446 l 646 446 l 646 0 l 768 0 l 768 446 l 804 446 l 1212 0 l 1371 0 l 899 509 l 1331 979 l 1181 979 l 804 555 z "},"Җ":{"ha":1466,"x_min":0,"x_max":0,"o":"m 768 555 l 768 979 l 646 979 l 646 555 l 611 555 l 234 979 l 83 979 l 516 506 l 46 0 l 203 0 l 611 446 l 646 446 l 646 0 l 768 0 l 768 446 l 804 446 l 1212 0 l 1305 0 l 1305 -193 l 1418 -193 l 1418 110 l 1268 110 l 899 509 l 1331 979 l 1181 979 l 804 555 z "},"З":{"ha":852,"x_min":0,"x_max":0,"o":"m 282 445 l 420 445 b 652 268 568 445 652 377 l 652 267 b 425 90 652 161 562 90 b 189 250 293 90 201 150 l 189 255 l 68 255 l 68 247 b 426 -23 82 82 224 -23 b 777 263 623 -23 777 102 l 777 264 b 560 505 777 404 685 492 l 560 515 b 743 739 669 542 743 632 l 743 740 b 429 1002 743 892 612 1002 b 96 741 239 1002 113 902 l 95 728 l 216 728 l 216 733 b 424 889 229 831 306 889 b 618 730 547 889 618 827 l 618 729 b 414 555 618 627 538 555 l 282 555 z "},"Ӟ":{"ha":852,"x_min":0,"x_max":0,"o":"m 280 1117 b 353 1191 320 1117 353 1150 b 280 1264 353 1231 320 1264 b 207 1191 240 1264 207 1231 b 280 1117 207 1150 240 1117 z m 568 1117 b 641 1191 608 1117 641 1150 b 568 1264 641 1231 608 1264 b 494 1191 528 1264 494 1231 b 568 1117 494 1150 528 1117 z m 282 445 l 420 445 b 652 268 568 445 652 377 l 652 267 b 425 90 652 161 562 90 b 189 250 293 90 201 150 l 189 255 l 68 255 l 68 247 b 426 -23 82 82 224 -23 b 777 263 623 -23 777 102 l 777 264 b 560 505 777 404 685 492 l 560 515 b 743 739 669 542 743 632 l 743 740 b 429 1002 743 892 612 1002 b 96 741 239 1002 113 902 l 95 728 l 216 728 l 216 733 b 424 889 229 831 306 889 b 618 730 547 889 618 827 l 618 729 b 414 555 618 627 538 555 l 282 555 z "},"Ҙ":{"ha":852,"x_min":0,"x_max":0,"o":"m 282 445 l 420 445 b 652 268 568 445 652 377 l 652 267 b 425 90 652 161 562 90 b 189 250 293 90 201 150 l 189 255 l 68 255 l 68 247 b 370 -20 81 98 198 -3 l 370 -193 l 482 -193 l 482 -20 b 777 263 651 1 777 117 l 777 264 b 560 505 777 404 685 492 l 560 515 b 743 739 669 542 743 632 l 743 740 b 429 1002 743 892 612 1002 b 96 741 239 1002 113 902 l 95 728 l 216 728 l 216 733 b 424 889 229 831 306 889 b 618 730 547 889 618 827 l 618 729 b 414 555 618 627 538 555 l 282 555 z "},"Ԑ":{"ha":852,"x_min":0,"x_max":0,"o":"m 570 445 l 570 555 l 437 555 b 234 729 313 555 234 627 l 234 730 b 428 889 234 827 305 889 b 635 733 546 889 623 831 l 636 728 l 757 728 l 755 741 b 423 1002 739 902 613 1002 b 109 740 239 1002 109 892 l 109 739 b 292 515 109 632 183 542 l 292 505 b 75 264 167 492 75 404 l 75 263 b 426 -23 75 102 229 -23 b 783 247 628 -23 770 82 l 784 255 l 663 255 l 663 250 b 427 90 650 150 559 90 b 199 267 290 90 199 161 l 199 268 b 432 445 199 377 284 445 z "},"И":{"ha":1044,"x_min":0,"x_max":0,"o":"m 132 0 l 250 0 l 781 766 l 792 766 l 792 0 l 913 0 l 913 979 l 794 979 l 264 210 l 252 210 l 252 979 l 132 979 z "},"Й":{"ha":1044,"x_min":0,"x_max":0,"o":"m 525 1077 b 748 1290 659 1077 748 1168 l 644 1290 b 525 1156 644 1220 600 1156 b 406 1290 452 1156 406 1220 l 302 1290 b 525 1077 302 1168 391 1077 z m 132 0 l 250 0 l 781 766 l 792 766 l 792 0 l 913 0 l 913 979 l 794 979 l 264 210 l 252 210 l 252 979 l 132 979 z "},"Ѝ":{"ha":1044,"x_min":0,"x_max":0,"o":"m 473 1076 l 574 1076 l 460 1296 l 324 1296 z m 132 0 l 250 0 l 781 766 l 792 766 l 792 0 l 913 0 l 913 979 l 794 979 l 264 210 l 252 210 l 252 979 l 132 979 z "},"Ӣ":{"ha":1044,"x_min":0,"x_max":0,"o":"m 311 1145 l 736 1145 l 736 1235 l 311 1235 z m 132 0 l 250 0 l 781 766 l 792 766 l 792 0 l 913 0 l 913 979 l 794 979 l 264 210 l 252 210 l 252 979 l 132 979 z "},"Ӥ":{"ha":1044,"x_min":0,"x_max":0,"o":"m 380 1117 b 453 1191 420 1117 453 1150 b 380 1264 453 1231 420 1264 b 307 1191 340 1264 307 1231 b 380 1117 307 1150 340 1117 z m 667 1117 b 741 1191 707 1117 741 1150 b 667 1264 741 1231 707 1264 b 594 1191 627 1264 594 1231 b 667 1117 594 1150 627 1117 z m 132 0 l 250 0 l 781 766 l 792 766 l 792 0 l 913 0 l 913 979 l 794 979 l 264 210 l 252 210 l 252 979 l 132 979 z "},"Ҋ":{"ha":1059,"x_min":0,"x_max":0,"o":"m 525 1077 b 748 1290 659 1077 748 1168 l 644 1290 b 525 1156 644 1220 600 1156 b 406 1290 452 1156 406 1220 l 302 1290 b 525 1077 302 1168 391 1077 z m 132 0 l 250 0 l 781 766 l 792 766 l 792 0 l 903 0 l 850 -193 l 963 -193 l 1035 75 l 1035 110 l 913 110 l 913 979 l 794 979 l 264 210 l 252 210 l 252 979 l 132 979 z "},"К":{"ha":928,"x_min":0,"x_max":0,"o":"m 254 0 l 254 451 l 289 451 l 724 0 l 886 0 l 395 509 l 846 979 l 693 979 l 289 549 l 254 549 l 254 979 l 132 979 l 132 0 z "},"Ќ":{"ha":928,"x_min":0,"x_max":0,"o":"m 503 1076 l 652 1296 l 515 1296 l 402 1076 z m 254 0 l 254 451 l 289 451 l 724 0 l 886 0 l 395 509 l 846 979 l 693 979 l 289 549 l 254 549 l 254 979 l 132 979 l 132 0 z "},"Қ":{"ha":978,"x_min":0,"x_max":0,"o":"m 254 0 l 254 451 l 289 451 l 724 0 l 817 0 l 817 -193 l 930 -193 l 930 110 l 780 110 l 395 509 l 846 979 l 693 979 l 289 549 l 254 549 l 254 979 l 132 979 l 132 0 z "},"Ҝ":{"ha":1010,"x_min":0,"x_max":0,"o":"m 254 0 l 254 451 l 332 451 l 332 208 l 427 208 l 427 451 l 458 451 l 806 0 l 967 0 l 575 509 l 922 979 l 774 979 l 458 549 l 427 549 l 427 795 l 332 795 l 332 549 l 254 549 l 254 979 l 132 979 l 132 0 z "},"Ҟ":{"ha":972,"x_min":0,"x_max":0,"o":"m 297 0 l 297 451 l 332 451 l 768 0 l 929 0 l 438 509 l 890 979 l 736 979 l 332 549 l 297 549 l 297 793 l 423 793 l 423 895 l 297 895 l 297 979 l 175 979 l 175 895 l 43 895 l 43 793 l 175 793 l 175 0 z "},"Ҡ":{"ha":1106,"x_min":0,"x_max":0,"o":"m 431 0 l 431 451 l 467 451 l 902 0 l 1063 0 l 572 509 l 1024 979 l 871 979 l 467 549 l 431 549 l 431 979 l 64 979 l 64 869 l 309 869 l 309 0 z "},"Ӄ":{"ha":892,"x_min":0,"x_max":0,"o":"m 416 -279 b 796 123 645 -279 796 -119 l 796 125 b 419 531 796 335 648 494 l 846 979 l 693 979 l 289 548 l 254 548 l 254 979 l 132 979 l 132 0 l 254 0 l 254 438 l 282 438 b 671 121 519 438 671 315 l 671 119 b 416 -166 671 -56 571 -166 b 368 -164 397 -166 383 -165 l 368 -275 b 416 -279 379 -277 398 -279 z "},"Л":{"ha":980,"x_min":0,"x_max":0,"o":"m 75 -7 b 324 366 248 -7 309 131 l 355 869 l 726 869 l 726 0 l 848 0 l 848 979 l 244 979 l 209 371 b 64 105 200 218 174 105 b 27 109 53 105 35 107 l 27 0 b 75 -7 39 -4 56 -7 z "},"Ӆ":{"ha":993,"x_min":0,"x_max":0,"o":"m 75 -7 b 324 366 248 -7 309 131 l 355 869 l 726 869 l 726 0 l 837 0 l 784 -193 l 897 -193 l 969 75 l 969 110 l 848 110 l 848 979 l 244 979 l 209 371 b 64 105 200 218 174 105 b 27 109 53 105 35 107 l 27 0 b 75 -7 39 -4 56 -7 z "},"Ԯ":{"ha":1019,"x_min":0,"x_max":0,"o":"m 75 -7 b 324 366 248 -7 309 131 l 355 869 l 726 869 l 726 0 l 859 0 l 859 -193 l 971 -193 l 971 110 l 848 110 l 848 979 l 244 979 l 209 371 b 64 105 200 218 174 105 b 27 109 53 105 35 107 l 27 0 b 75 -7 39 -4 56 -7 z "},"Ԓ":{"ha":980,"x_min":0,"x_max":0,"o":"m 75 -7 b 324 366 248 -7 309 131 l 355 869 l 726 869 l 726 -53 b 633 -154 726 -121 696 -154 b 600 -153 621 -154 608 -153 l 600 -248 b 651 -252 612 -250 632 -252 b 848 -49 784 -252 848 -187 l 848 979 l 244 979 l 209 371 b 64 105 200 218 174 105 b 27 109 53 105 35 107 l 27 0 b 75 -7 39 -4 56 -7 z "},"М":{"ha":1227,"x_min":0,"x_max":0,"o":"m 132 0 l 245 0 l 245 747 l 253 747 l 562 0 l 665 0 l 975 747 l 982 747 l 982 0 l 1096 0 l 1096 979 l 954 979 l 619 162 l 608 162 l 273 979 l 132 979 z "},"Ӎ":{"ha":1249,"x_min":0,"x_max":0,"o":"m 132 0 l 245 0 l 245 747 l 253 747 l 562 0 l 665 0 l 975 747 l 982 747 l 982 0 l 1093 0 l 1040 -193 l 1153 -193 l 1225 75 l 1225 110 l 1096 110 l 1096 979 l 954 979 l 619 162 l 608 162 l 273 979 l 132 979 z "},"Н":{"ha":1044,"x_min":0,"x_max":0,"o":"m 132 0 l 254 0 l 254 446 l 791 446 l 791 0 l 913 0 l 913 979 l 791 979 l 791 555 l 254 555 l 254 979 l 132 979 z "},"Ӈ":{"ha":1044,"x_min":0,"x_max":0,"o":"m 132 0 l 254 0 l 254 446 l 791 446 l 791 -53 b 697 -154 791 -121 760 -154 b 664 -153 685 -154 673 -153 l 664 -248 b 715 -252 676 -250 696 -252 b 913 -49 848 -252 913 -187 l 913 979 l 791 979 l 791 555 l 254 555 l 254 979 l 132 979 z "},"Ң":{"ha":1083,"x_min":0,"x_max":0,"o":"m 132 0 l 254 0 l 254 446 l 791 446 l 791 0 l 923 0 l 923 -193 l 1036 -193 l 1036 110 l 913 110 l 913 979 l 791 979 l 791 555 l 254 555 l 254 979 l 132 979 z "},"Ӊ":{"ha":1057,"x_min":0,"x_max":0,"o":"m 132 0 l 254 0 l 254 446 l 791 446 l 791 0 l 901 0 l 848 -193 l 962 -193 l 1034 75 l 1034 110 l 913 110 l 913 979 l 791 979 l 791 555 l 254 555 l 254 979 l 132 979 z "},"Ҥ":{"ha":1439,"x_min":0,"x_max":0,"o":"m 125 0 l 247 0 l 247 446 l 784 446 l 784 0 l 906 0 l 906 869 l 1364 869 l 1364 979 l 784 979 l 784 555 l 247 555 l 247 979 l 125 979 z "},"О":{"ha":1085,"x_min":0,"x_max":0,"o":"m 543 -23 b 991 489 822 -23 991 177 l 991 490 b 543 1002 991 804 821 1002 b 94 490 266 1002 94 804 l 94 489 b 543 -23 94 176 262 -23 z m 543 90 b 218 489 339 90 218 247 l 218 490 b 543 889 218 734 343 889 b 867 490 743 889 867 734 l 867 489 b 543 90 867 247 743 90 z "},"Ӧ":{"ha":1085,"x_min":0,"x_max":0,"o":"m 399 1117 b 472 1191 439 1117 472 1150 b 399 1264 472 1231 439 1264 b 326 1191 359 1264 326 1231 b 399 1117 326 1150 359 1117 z m 686 1117 b 760 1191 726 1117 760 1150 b 686 1264 760 1231 726 1264 b 613 1191 646 1264 613 1231 b 686 1117 613 1150 646 1117 z m 543 -23 b 991 489 822 -23 991 177 l 991 490 b 543 1002 991 804 821 1002 b 94 490 266 1002 94 804 l 94 489 b 543 -23 94 176 262 -23 z m 543 90 b 218 489 339 90 218 247 l 218 490 b 543 889 218 734 343 889 b 867 490 743 889 867 734 l 867 489 b 543 90 867 247 743 90 z "},"Ө":{"ha":1085,"x_min":0,"x_max":0,"o":"m 543 -23 b 991 489 822 -23 991 177 l 991 490 b 543 1002 991 804 821 1002 b 94 490 266 1002 94 804 l 94 489 b 543 -23 94 176 262 -23 z m 543 889 b 864 551 726 889 845 760 l 221 551 b 543 889 240 760 360 889 z m 543 90 b 220 449 351 90 232 230 l 865 449 b 543 90 852 230 732 90 z "},"Ӫ":{"ha":1085,"x_min":0,"x_max":0,"o":"m 399 1117 b 472 1191 439 1117 472 1150 b 399 1264 472 1231 439 1264 b 326 1191 359 1264 326 1231 b 399 1117 326 1150 359 1117 z m 686 1117 b 760 1191 726 1117 760 1150 b 686 1264 760 1231 726 1264 b 613 1191 646 1264 613 1231 b 686 1117 613 1150 646 1117 z m 543 -23 b 991 489 822 -23 991 177 l 991 490 b 543 1002 991 804 821 1002 b 94 490 266 1002 94 804 l 94 489 b 543 -23 94 176 262 -23 z m 543 889 b 864 551 726 889 845 760 l 221 551 b 543 889 240 760 360 889 z m 543 90 b 220 449 351 90 232 230 l 865 449 b 543 90 852 230 732 90 z "},"Ѳ":{"ha":1084,"x_min":0,"x_max":0,"o":"m 543 -23 b 991 489 823 -23 991 177 l 991 490 b 543 1002 991 804 821 1002 b 94 490 267 1002 94 804 l 94 489 b 543 -23 94 176 262 -23 z m 359 585 b 220 544 300 585 254 570 b 543 889 237 757 359 889 b 863 552 726 889 844 760 b 725 503 839 524 799 503 b 359 585 593 503 519 585 z m 543 90 b 220 438 355 90 237 225 b 357 484 245 465 283 484 b 722 402 481 484 556 403 b 865 446 785 401 831 418 b 543 90 850 228 732 90 z "},"П":{"ha":1031,"x_min":0,"x_max":0,"o":"m 899 0 l 899 979 l 132 979 l 132 0 l 254 0 l 254 869 l 777 869 l 777 0 z "},"Ԥ":{"ha":1071,"x_min":0,"x_max":0,"o":"m 911 -193 l 1023 -193 l 1023 110 l 899 110 l 899 979 l 132 979 l 132 0 l 254 0 l 254 869 l 777 869 l 777 0 l 911 0 z "},"Џ":{"ha":1031,"x_min":0,"x_max":0,"o":"m 132 979 l 132 0 l 459 0 l 459 -193 l 572 -193 l 572 0 l 899 0 l 899 979 l 777 979 l 777 110 l 254 110 l 254 979 z "},"Р":{"ha":896,"x_min":0,"x_max":0,"o":"m 132 0 l 254 0 l 254 349 l 500 349 b 814 665 684 349 814 479 l 814 666 b 500 979 814 852 684 979 l 132 979 z m 469 870 b 690 665 609 870 690 793 l 690 663 b 469 458 690 534 609 458 l 254 458 l 254 870 z "},"Ҏ":{"ha":882,"x_min":0,"x_max":0,"o":"m 125 0 l 247 0 l 247 349 l 494 349 b 570 357 520 349 546 352 l 635 198 l 723 234 l 659 391 b 808 665 751 444 808 542 l 808 666 b 494 979 808 852 677 979 l 125 979 z m 463 870 b 683 665 602 870 683 793 l 683 663 b 610 499 683 591 657 534 l 543 663 l 464 631 l 532 465 b 463 458 511 460 488 458 l 247 458 l 247 870 z "},"С":{"ha":1008,"x_min":0,"x_max":0,"o":"m 526 -23 b 921 272 734 -23 888 93 l 921 273 l 798 273 l 796 272 b 526 90 766 159 662 90 b 219 488 337 90 219 243 l 219 490 b 525 889 219 734 337 889 b 797 684 660 889 764 810 l 798 683 l 920 683 l 921 684 b 525 1002 892 872 731 1002 b 94 490 259 1002 94 805 l 94 488 b 526 -23 94 174 260 -23 z "},"Ҫ":{"ha":1008,"x_min":0,"x_max":0,"o":"m 921 272 l 921 273 l 798 273 l 796 272 b 526 90 766 159 662 90 b 219 488 337 90 219 243 l 219 490 b 525 889 219 734 337 889 b 797 684 660 889 764 810 l 798 683 l 920 683 l 921 684 b 525 1002 892 872 731 1002 b 94 490 259 1002 94 805 l 94 488 b 468 -20 94 197 236 7 l 468 -193 l 581 -193 l 581 -20 b 921 272 761 -1 891 109 z "},"Т":{"ha":894,"x_min":0,"x_max":0,"o":"m 386 0 l 508 0 l 508 869 l 823 869 l 823 979 l 71 979 l 71 869 l 386 869 z "},"Ҭ":{"ha":894,"x_min":0,"x_max":0,"o":"m 386 0 l 518 0 l 518 -193 l 631 -193 l 631 110 l 508 110 l 508 869 l 823 869 l 823 979 l 71 979 l 71 869 l 386 869 z "},"У":{"ha":894,"x_min":0,"x_max":0,"o":"m 228 -7 b 541 280 393 -7 461 95 l 840 979 l 713 979 l 457 345 l 446 345 l 184 979 l 54 979 l 388 209 b 228 106 349 137 301 106 b 174 111 199 106 182 109 l 174 2 b 228 -7 182 -2 201 -7 z "},"Ў":{"ha":894,"x_min":0,"x_max":0,"o":"m 450 1077 b 673 1290 584 1077 673 1168 l 569 1290 b 450 1156 569 1220 525 1156 b 331 1290 376 1156 331 1220 l 227 1290 b 450 1077 227 1168 316 1077 z m 228 -7 b 541 280 393 -7 461 95 l 840 979 l 713 979 l 457 345 l 446 345 l 184 979 l 54 979 l 388 209 b 228 106 349 137 301 106 b 174 111 199 106 182 109 l 174 2 b 228 -7 182 -2 201 -7 z "},"Ӯ":{"ha":894,"x_min":0,"x_max":0,"o":"m 236 1145 l 661 1145 l 661 1235 l 236 1235 z m 228 -7 b 541 280 393 -7 461 95 l 840 979 l 713 979 l 457 345 l 446 345 l 184 979 l 54 979 l 388 209 b 228 106 349 137 301 106 b 174 111 199 106 182 109 l 174 2 b 228 -7 182 -2 201 -7 z "},"Ӱ":{"ha":894,"x_min":0,"x_max":0,"o":"m 304 1117 b 378 1191 345 1117 378 1150 b 304 1264 378 1231 345 1264 b 231 1191 264 1264 231 1231 b 304 1117 231 1150 264 1117 z m 592 1117 b 665 1191 632 1117 665 1150 b 592 1264 665 1231 632 1264 b 519 1191 552 1264 519 1231 b 592 1117 519 1150 552 1117 z m 228 -7 b 541 280 393 -7 461 95 l 840 979 l 713 979 l 457 345 l 446 345 l 184 979 l 54 979 l 388 209 b 228 106 349 137 301 106 b 174 111 199 106 182 109 l 174 2 b 228 -7 182 -2 201 -7 z "},"Ӳ":{"ha":894,"x_min":0,"x_max":0,"o":"m 374 1076 l 508 1296 l 372 1296 l 274 1076 z m 622 1076 l 771 1296 l 635 1296 l 522 1076 z m 228 -7 b 541 280 393 -7 461 95 l 840 979 l 713 979 l 457 345 l 446 345 l 184 979 l 54 979 l 388 209 b 228 106 349 137 301 106 b 174 111 199 106 182 109 l 174 2 b 228 -7 182 -2 201 -7 z "},"Ү":{"ha":924,"x_min":0,"x_max":0,"o":"m 401 0 l 523 0 l 523 421 l 870 979 l 731 979 l 467 544 l 456 544 l 193 979 l 54 979 l 401 421 z "},"Ұ":{"ha":924,"x_min":0,"x_max":0,"o":"m 158 366 l 401 366 l 401 0 l 523 0 l 523 366 l 766 366 l 766 468 l 552 468 l 870 979 l 731 979 l 467 544 l 456 544 l 193 979 l 54 979 l 372 468 l 158 468 z "},"Ф":{"ha":1153,"x_min":0,"x_max":0,"o":"m 516 -14 l 637 -14 l 637 89 b 1069 492 892 96 1069 243 l 1069 493 b 637 897 1069 739 896 890 l 637 992 l 516 992 l 516 897 b 83 494 259 889 83 741 l 83 492 b 516 89 83 245 257 95 z m 208 492 l 208 494 b 516 787 208 671 329 780 l 516 198 b 208 492 327 204 208 315 z m 637 787 b 944 493 826 781 944 669 l 944 492 b 637 198 944 313 823 205 z "},"Х":{"ha":956,"x_min":0,"x_max":0,"o":"m 67 0 l 205 0 l 469 391 l 473 391 l 734 0 l 880 0 l 549 486 l 549 488 l 888 979 l 749 979 l 484 585 l 480 585 l 218 979 l 71 979 l 401 494 l 401 492 z "},"Ҳ":{"ha":987,"x_min":0,"x_max":0,"o":"m 67 0 l 205 0 l 469 391 l 473 391 l 734 0 l 827 0 l 827 -193 l 940 -193 l 940 110 l 806 110 l 549 486 l 549 488 l 888 979 l 749 979 l 484 585 l 480 585 l 218 979 l 71 979 l 401 494 l 401 492 z "},"Ӿ":{"ha":956,"x_min":0,"x_max":0,"o":"m 67 0 l 205 0 l 469 391 l 473 391 l 734 0 l 880 0 l 581 439 l 827 439 l 827 541 l 585 541 l 888 979 l 749 979 l 484 585 l 480 585 l 218 979 l 71 979 l 370 541 l 129 541 l 129 439 l 365 439 z "},"Ӽ":{"ha":956,"x_min":0,"x_max":0,"o":"m 648 -264 b 859 -72 771 -264 859 -184 b 743 203 859 22 807 110 l 549 487 l 888 979 l 749 979 l 488 589 l 477 589 l 219 979 l 72 979 l 403 492 l 68 0 l 206 0 l 467 386 l 478 386 l 646 134 b 733 -68 696 58 733 -5 b 639 -151 733 -126 695 -151 b 601 -148 622 -151 609 -150 l 601 -260 b 648 -264 610 -262 624 -264 z "},"Ц":{"ha":1071,"x_min":0,"x_max":0,"o":"m 911 -193 l 1023 -193 l 1023 110 l 899 110 l 899 979 l 777 979 l 777 110 l 254 110 l 254 979 l 132 979 l 132 0 l 911 0 z "},"Ҵ":{"ha":1276,"x_min":0,"x_max":0,"o":"m 64 869 l 337 869 l 337 0 l 1116 0 l 1116 -193 l 1229 -193 l 1229 110 l 1105 110 l 1105 979 l 983 979 l 983 110 l 459 110 l 459 869 l 730 869 l 730 979 l 64 979 z "},"Ч":{"ha":963,"x_min":0,"x_max":0,"o":"m 709 0 l 831 0 l 831 979 l 709 979 l 709 555 b 465 476 656 507 570 476 b 213 722 302 476 213 571 l 213 979 l 91 979 l 91 723 b 465 363 91 523 218 363 b 699 426 562 363 644 388 l 709 426 z "},"Ӵ":{"ha":963,"x_min":0,"x_max":0,"o":"m 317 1117 b 391 1191 357 1117 391 1150 b 317 1264 391 1231 357 1264 b 244 1191 277 1264 244 1231 b 317 1117 244 1150 277 1117 z m 605 1117 b 678 1191 645 1117 678 1150 b 605 1264 678 1231 645 1264 b 532 1191 565 1264 532 1231 b 605 1117 532 1150 565 1117 z m 709 0 l 831 0 l 831 979 l 709 979 l 709 555 b 465 476 656 507 570 476 b 213 722 302 476 213 571 l 213 979 l 91 979 l 91 723 b 465 363 91 523 218 363 b 699 426 562 363 644 388 l 709 426 z "},"Ҷ":{"ha":1002,"x_min":0,"x_max":0,"o":"m 709 0 l 842 0 l 842 -193 l 954 -193 l 954 110 l 831 110 l 831 979 l 709 979 l 709 555 b 465 476 656 507 570 476 b 213 722 302 476 213 571 l 213 979 l 91 979 l 91 723 b 465 363 91 523 218 363 b 699 426 562 363 644 388 l 709 426 z "},"Ӌ":{"ha":963,"x_min":0,"x_max":0,"o":"m 699 -193 l 699 0 l 831 0 l 831 979 l 709 979 l 709 555 b 465 476 656 507 570 476 b 213 722 302 476 213 571 l 213 979 l 91 979 l 91 723 b 465 363 91 523 218 363 b 699 426 562 363 644 388 l 709 426 l 709 110 l 587 110 l 587 -193 z "},"Ҹ":{"ha":1004,"x_min":0,"x_max":0,"o":"m 438 196 l 533 196 l 533 366 b 739 426 614 372 693 394 l 750 426 l 750 0 l 872 0 l 872 979 l 750 979 l 750 555 b 533 478 705 514 622 486 l 533 783 l 438 783 l 438 478 b 213 722 287 494 213 585 l 213 979 l 91 979 l 91 723 b 438 366 91 535 203 383 z "},"Ҩ":{"ha":1352,"x_min":0,"x_max":0,"o":"m 640 -22 b 882 34 728 -22 808 -2 b 1107 -23 951 -4 1026 -23 b 1297 19 1183 -23 1255 -7 l 1297 127 b 1109 83 1229 95 1163 83 b 996 98 1072 83 1033 88 b 1216 522 1121 183 1216 334 l 1216 523 b 894 873 1216 733 1088 873 b 572 509 701 873 572 713 l 572 507 b 772 104 572 343 646 196 b 640 90 732 94 690 90 b 223 506 408 90 223 248 l 223 507 b 519 886 223 697 330 846 l 519 1002 b 94 509 269 974 94 762 l 94 507 b 640 -22 94 193 316 -22 z m 697 510 l 697 511 b 894 760 697 651 763 760 b 1091 523 1013 760 1091 657 l 1091 522 b 884 153 1091 363 1009 231 b 697 510 766 237 697 370 z "},"Ҽ":{"ha":1196,"x_min":0,"x_max":0,"o":"m 709 -23 b 1093 241 903 -23 1053 81 l 1095 247 l 969 247 l 967 241 b 712 90 930 144 840 90 b 393 467 516 90 393 235 l 393 477 l 1109 477 l 1109 532 b 692 1002 1109 821 949 1002 b 275 587 467 1002 308 840 b 155 694 196 587 155 622 b 174 795 155 734 165 769 l 64 795 b 41 684 52 769 41 728 b 269 477 41 561 130 480 b 709 -23 271 168 439 -23 z m 690 889 b 975 596 853 889 962 778 l 975 587 l 398 587 b 690 889 422 768 534 889 z "},"Ҿ":{"ha":1196,"x_min":0,"x_max":0,"o":"m 1093 241 l 1095 247 l 969 247 l 967 241 b 712 90 930 144 840 90 b 393 467 516 90 393 235 l 393 477 l 1109 477 l 1109 532 b 692 1002 1109 821 949 1002 b 275 587 467 1002 308 840 b 155 694 196 587 155 622 b 174 795 155 734 165 769 l 64 795 b 41 684 52 769 41 728 b 269 477 41 561 130 480 b 654 -20 271 189 416 4 l 654 -193 l 766 -193 l 766 -20 b 1093 241 932 -1 1057 97 z m 690 889 b 975 596 853 889 962 778 l 975 587 l 398 587 b 690 889 422 768 534 889 z "},"Һ":{"ha":986,"x_min":0,"x_max":0,"o":"m 132 0 l 254 0 l 254 460 b 498 538 307 508 393 538 b 750 292 661 538 750 444 l 750 0 l 872 0 l 872 292 b 498 651 872 492 745 651 b 264 589 401 651 319 627 l 254 589 l 254 979 l 132 979 z "},"Ԧ":{"ha":1042,"x_min":0,"x_max":0,"o":"m 132 0 l 254 0 l 254 460 b 498 538 307 508 393 538 b 750 292 661 538 750 444 l 750 0 l 882 0 l 882 -193 l 995 -193 l 995 110 l 872 110 l 872 292 b 498 651 872 492 745 651 b 264 589 401 651 319 627 l 254 589 l 254 979 l 132 979 z "},"Ш":{"ha":1337,"x_min":0,"x_max":0,"o":"m 132 0 l 1206 0 l 1206 979 l 1084 979 l 1084 110 l 730 110 l 730 979 l 608 979 l 608 110 l 254 110 l 254 979 l 132 979 z "},"Щ":{"ha":1376,"x_min":0,"x_max":0,"o":"m 132 0 l 1216 0 l 1216 -193 l 1329 -193 l 1329 110 l 1206 110 l 1206 979 l 1084 979 l 1084 110 l 730 110 l 730 979 l 608 979 l 608 110 l 254 110 l 254 979 l 132 979 z "},"Ъ":{"ha":1067,"x_min":0,"x_max":0,"o":"m 309 0 l 672 0 b 985 307 857 0 985 127 l 985 308 b 671 616 985 488 855 616 l 431 616 l 431 979 l 64 979 l 64 869 l 309 869 z m 640 506 b 861 308 780 506 861 434 l 861 307 b 640 110 861 181 781 110 l 431 110 l 431 506 z "},"Ы":{"ha":1242,"x_min":0,"x_max":0,"o":"m 132 0 l 494 0 b 808 307 679 0 808 127 l 808 308 b 493 616 808 488 677 616 l 254 616 l 254 979 l 132 979 z m 989 0 l 1111 0 l 1111 979 l 989 979 z m 463 506 b 683 308 602 506 683 434 l 683 307 b 463 110 683 181 603 110 l 254 110 l 254 506 z "},"Ӹ":{"ha":1242,"x_min":0,"x_max":0,"o":"m 477 1117 b 551 1191 517 1117 551 1150 b 477 1264 551 1231 517 1264 b 404 1191 437 1264 404 1231 b 477 1117 404 1150 437 1117 z m 765 1117 b 838 1191 805 1117 838 1150 b 765 1264 838 1231 805 1264 b 692 1191 725 1264 692 1231 b 765 1117 692 1150 725 1117 z m 132 0 l 494 0 b 808 307 679 0 808 127 l 808 308 b 493 616 808 488 677 616 l 254 616 l 254 979 l 132 979 z m 989 0 l 1111 0 l 1111 979 l 989 979 z m 463 506 b 683 308 602 506 683 434 l 683 307 b 463 110 683 181 603 110 l 254 110 l 254 506 z "},"Ҍ":{"ha":932,"x_min":0,"x_max":0,"o":"m 175 0 l 538 0 b 851 307 722 0 851 127 l 851 308 b 536 616 851 488 721 616 l 297 616 l 297 777 l 567 777 l 567 878 l 297 878 l 297 979 l 175 979 l 175 878 l 43 878 l 43 777 l 175 777 z m 506 506 b 726 308 646 506 726 434 l 726 307 b 506 110 726 181 646 110 l 297 110 l 297 506 z "},"Ѣ":{"ha":1050,"x_min":0,"x_max":0,"o":"m 292 0 l 655 0 b 968 307 840 0 968 127 l 968 308 b 654 616 968 488 838 616 l 414 616 l 414 745 l 679 745 l 679 855 l 414 855 l 414 979 l 292 979 l 292 855 l 71 855 l 71 745 l 292 745 z m 623 506 b 844 308 763 506 844 434 l 844 307 b 623 110 844 181 764 110 l 414 110 l 414 506 z "},"Ь":{"ha":889,"x_min":0,"x_max":0,"o":"m 132 0 l 494 0 b 808 307 679 0 808 127 l 808 308 b 493 616 808 488 677 616 l 254 616 l 254 979 l 132 979 z m 463 506 b 683 308 602 506 683 434 l 683 307 b 463 110 683 181 603 110 l 254 110 l 254 506 z "},"Љ":{"ha":1484,"x_min":0,"x_max":0,"o":"m 75 -7 b 324 366 248 -7 309 131 l 355 869 l 726 869 l 726 0 l 1089 0 b 1402 307 1274 0 1402 127 l 1402 308 b 1088 616 1402 488 1272 616 l 848 616 l 848 979 l 244 979 l 209 371 b 64 105 200 218 174 105 b 27 109 53 105 35 107 l 27 0 b 75 -7 39 -4 56 -7 z m 1057 506 b 1278 308 1197 506 1278 434 l 1278 307 b 1057 110 1278 181 1198 110 l 848 110 l 848 506 z "},"Њ":{"ha":1548,"x_min":0,"x_max":0,"o":"m 132 0 l 254 0 l 254 446 l 791 446 l 791 0 l 1154 0 b 1467 307 1338 0 1467 127 l 1467 308 b 1152 616 1467 488 1337 616 l 913 616 l 913 979 l 791 979 l 791 555 l 254 555 l 254 979 l 132 979 z m 1122 506 b 1342 308 1261 506 1342 434 l 1342 307 b 1122 110 1342 181 1262 110 l 913 110 l 913 506 z "},"Э":{"ha":1021,"x_min":0,"x_max":0,"o":"m 489 -23 b 928 488 759 -23 928 174 l 928 490 b 490 1002 928 804 759 1002 b 87 688 281 1002 119 874 l 87 684 l 211 684 l 213 691 b 490 889 245 810 354 889 b 799 555 663 889 779 762 l 365 555 l 365 446 l 801 446 b 489 90 787 226 669 90 b 212 268 351 90 243 160 l 211 273 l 87 273 l 87 269 b 489 -23 116 98 280 -23 z "},"Ӭ":{"ha":1021,"x_min":0,"x_max":0,"o":"m 346 1117 b 419 1191 386 1117 419 1150 b 346 1264 419 1231 386 1264 b 273 1191 306 1264 273 1231 b 346 1117 273 1150 306 1117 z m 633 1117 b 707 1191 673 1117 707 1150 b 633 1264 707 1231 673 1264 b 560 1191 593 1264 560 1231 b 633 1117 560 1150 593 1117 z m 489 -23 b 928 488 759 -23 928 174 l 928 490 b 490 1002 928 804 759 1002 b 87 688 281 1002 119 874 l 87 684 l 211 684 l 213 691 b 490 889 245 810 354 889 b 799 555 663 889 779 762 l 365 555 l 365 446 l 801 446 b 489 90 787 226 669 90 b 212 268 351 90 243 160 l 211 273 l 87 273 l 87 269 b 489 -23 116 98 280 -23 z "},"Є":{"ha":1021,"x_min":0,"x_max":0,"o":"m 532 -23 b 934 269 741 -23 905 98 l 935 273 l 810 273 l 809 268 b 532 90 779 160 671 90 b 220 446 352 90 234 226 l 656 446 l 656 555 l 222 555 b 532 889 242 762 358 889 b 808 691 667 889 776 810 l 810 684 l 935 684 l 934 688 b 532 1002 903 874 740 1002 b 94 490 262 1002 94 804 l 94 488 b 532 -23 94 174 262 -23 z "},"Ю":{"ha":1410,"x_min":0,"x_max":0,"o":"m 132 0 l 254 0 l 254 446 l 434 446 b 876 -23 449 158 612 -23 b 1316 489 1151 -23 1316 177 l 1316 490 b 876 1002 1316 804 1149 1002 b 435 555 623 1002 458 831 l 254 555 l 254 979 l 132 979 z m 876 889 b 1192 490 1072 889 1192 734 l 1192 489 b 876 90 1192 247 1072 90 b 558 489 676 90 558 247 l 558 490 b 876 889 558 734 680 889 z "},"Я":{"ha":933,"x_min":0,"x_max":0,"o":"m 802 0 l 802 979 l 439 979 b 125 679 255 979 125 855 l 125 677 b 355 391 125 532 217 423 l 75 0 l 220 0 l 490 376 l 680 376 l 680 0 z m 680 486 l 471 486 b 250 677 331 486 250 555 l 250 679 b 471 869 250 800 330 869 l 680 869 z "},"Ӏ":{"ha":385,"x_min":0,"x_max":0,"o":"m 132 0 l 254 0 l 254 979 l 132 979 z "},"І":{"ha":385,"x_min":0,"x_max":0,"o":"m 132 0 l 254 0 l 254 979 l 132 979 z "},"Ї":{"ha":385,"x_min":0,"x_max":0,"o":"m 49 1117 b 122 1191 89 1117 122 1150 b 49 1264 122 1231 89 1264 b -24 1191 9 1264 -24 1231 b 49 1117 -24 1150 9 1117 z m 336 1117 b 410 1191 376 1117 410 1150 b 336 1264 410 1231 376 1264 b 263 1191 296 1264 263 1231 b 336 1117 263 1150 296 1117 z m 132 0 l 254 0 l 254 979 l 132 979 z "},"Ѕ":{"ha":899,"x_min":0,"x_max":0,"o":"m 452 -23 b 814 274 671 -23 814 91 l 814 275 b 529 543 814 416 733 498 l 420 568 b 234 728 288 597 234 650 l 234 728 b 450 889 234 831 328 888 b 673 740 578 890 659 826 l 674 731 l 796 731 l 795 741 b 454 1002 785 886 649 1002 b 109 725 252 1002 110 887 l 109 724 b 390 449 109 583 194 492 l 498 425 b 689 258 633 395 689 340 l 689 258 b 459 90 689 158 592 90 b 208 249 318 90 216 151 l 207 256 l 85 256 l 85 249 b 452 -23 100 90 238 -23 z "},"Ʒ":{"ha":831,"x_min":0,"x_max":0,"o":"m 412 -23 b 757 279 613 -23 757 102 l 757 281 b 434 583 757 471 631 575 l 434 594 l 735 892 l 735 979 l 103 979 l 103 869 l 557 869 l 557 858 l 282 589 l 282 485 l 361 485 b 632 279 536 485 632 420 l 632 277 b 411 90 632 160 545 90 b 189 245 289 90 203 149 l 188 255 l 68 255 l 68 245 b 412 -23 80 85 217 -23 z "},"Ћ":{"ha":1240,"x_min":0,"x_max":0,"o":"m 386 0 l 508 0 l 508 427 b 753 506 562 475 647 506 b 1004 260 916 506 1004 411 l 1004 0 l 1126 0 l 1126 259 b 753 618 1126 459 1000 618 b 519 556 656 618 574 594 l 508 556 l 508 869 l 823 869 l 823 979 l 71 979 l 71 869 l 386 869 z "},"Ђ":{"ha":1166,"x_min":0,"x_max":0,"o":"m 766 -49 b 1086 284 946 -49 1086 78 l 1086 286 b 764 615 1086 479 954 615 b 515 509 664 615 580 578 l 508 509 l 508 869 l 823 869 l 823 979 l 71 979 l 71 869 l 386 869 l 386 0 l 508 0 l 508 356 b 751 503 559 440 649 503 b 961 284 878 503 961 411 l 961 283 b 758 64 961 136 871 64 b 691 71 736 64 707 66 l 691 -39 b 766 -49 707 -45 734 -49 z "},"Ҕ":{"ha":911,"x_min":0,"x_max":0,"o":"m 512 -49 b 831 284 692 -49 831 78 l 831 286 b 509 615 831 479 700 615 b 260 509 410 615 326 576 l 254 509 l 254 869 l 677 869 l 677 979 l 132 979 l 132 0 l 254 0 l 254 356 b 497 503 304 441 395 503 b 707 284 623 503 707 411 l 707 283 b 503 64 707 136 616 64 b 437 71 481 64 453 66 l 437 -39 b 512 -49 452 -45 479 -49 z "},"Ҧ":{"ha":1516,"x_min":0,"x_max":0,"o":"m 1116 -49 b 1436 284 1296 -49 1436 78 l 1436 286 b 1114 615 1436 479 1304 615 b 865 509 1014 615 930 578 l 858 509 l 858 979 l 132 979 l 132 0 l 254 0 l 254 869 l 736 869 l 736 0 l 858 0 l 858 356 b 1101 503 909 440 999 503 b 1311 284 1227 503 1311 411 l 1311 283 b 1107 64 1311 136 1221 64 b 1041 71 1086 64 1057 66 l 1041 -39 b 1116 -49 1057 -45 1084 -49 z "},"Ј":{"ha":761,"x_min":0,"x_max":0,"o":"m 341 -23 b 629 272 522 -23 629 87 l 629 979 l 507 979 l 507 273 b 340 90 507 154 449 90 b 188 225 243 90 195 151 l 187 232 l 65 232 l 66 222 b 341 -23 76 82 172 -23 z "},"Ѵ":{"ha":1061,"x_min":0,"x_max":0,"o":"m 408 0 l 528 0 l 808 758 b 909 876 833 827 854 876 b 972 863 927 876 953 871 l 1009 966 b 897 991 980 981 935 991 b 703 810 797 991 742 922 l 470 149 l 466 149 l 175 979 l 47 979 z "},"Ѷ":{"ha":1061,"x_min":0,"x_max":0,"o":"m 319 1076 l 419 1076 l 291 1296 l 155 1296 z m 566 1076 l 666 1076 l 553 1296 l 417 1296 z m 408 0 l 528 0 l 808 758 b 909 876 833 827 854 876 b 972 863 927 876 953 871 l 1009 966 b 897 991 980 981 935 991 b 703 810 797 991 742 922 l 470 149 l 466 149 l 175 979 l 47 979 z "},"Ԝ":{"ha":1358,"x_min":0,"x_max":0,"o":"m 334 0 l 450 0 l 675 772 l 683 772 l 908 0 l 1023 0 l 1290 979 l 1162 979 l 968 183 l 960 183 l 741 979 l 617 979 l 398 183 l 390 183 l 195 979 l 68 979 z "},"Ӕ":{"ha":1333,"x_min":0,"x_max":0,"o":"m 47 0 l 170 0 l 311 311 l 669 311 l 669 0 l 1237 0 l 1237 110 l 791 110 l 791 439 l 1212 439 l 1212 548 l 791 548 l 791 869 l 1237 869 l 1237 979 l 488 979 z m 569 876 l 669 876 l 669 415 l 359 415 z "},"Ə":{"ha":1021,"x_min":0,"x_max":0,"o":"m 500 -23 b 928 488 757 -23 928 182 l 928 489 b 487 1002 928 803 757 1002 b 100 746 304 1002 161 907 l 95 732 l 220 732 l 226 743 b 484 889 276 843 359 889 b 803 532 669 889 804 742 l 803 514 l 80 514 l 80 460 b 500 -23 83 162 244 -23 z m 503 90 b 215 396 339 90 228 203 l 214 406 l 800 406 b 503 90 779 212 661 90 z "},"Ә":{"ha":1035,"x_min":0,"x_max":0,"o":"m 507 -23 b 935 488 764 -23 935 182 l 935 489 b 494 1002 935 803 764 1002 b 107 746 311 1002 168 907 l 102 732 l 227 732 l 233 743 b 491 889 283 843 366 889 b 810 532 676 889 811 742 l 810 514 l 87 514 l 87 460 b 507 -23 90 162 251 -23 z m 510 90 b 222 396 346 90 235 203 l 221 406 l 807 406 b 510 90 786 212 667 90 z "},"Ӛ":{"ha":1035,"x_min":0,"x_max":0,"o":"m 349 1117 b 422 1191 389 1117 422 1150 b 349 1264 422 1231 389 1264 b 275 1191 309 1264 275 1231 b 349 1117 275 1150 309 1117 z m 636 1117 b 709 1191 676 1117 709 1150 b 636 1264 709 1231 676 1264 b 563 1191 596 1264 563 1231 b 636 1117 563 1150 596 1117 z m 507 -23 b 935 488 764 -23 935 182 l 935 489 b 494 1002 935 803 764 1002 b 107 746 311 1002 168 907 l 102 732 l 227 732 l 233 743 b 491 889 283 843 366 889 b 810 532 676 889 811 742 l 810 514 l 87 514 l 87 460 b 507 -23 90 162 251 -23 z m 510 90 b 222 396 346 90 235 203 l 221 406 l 807 406 b 510 90 786 212 667 90 z "},"ᴀ":{"ha":747,"x_min":0,"x_max":0,"o":"m 46 0 l 170 0 l 236 198 l 511 198 l 577 0 l 701 0 l 438 731 l 309 731 z m 370 603 l 378 603 l 481 289 l 266 289 z "},"ʙ":{"ha":802,"x_min":0,"x_max":0,"o":"m 110 0 l 440 0 b 719 206 614 0 719 78 l 719 207 b 535 383 719 302 646 372 l 535 391 b 678 548 615 404 678 472 l 678 549 b 433 731 678 661 585 731 l 110 731 z m 407 639 b 559 530 503 639 559 598 l 559 528 b 383 420 559 458 500 420 l 228 420 l 228 639 z m 410 334 b 598 214 534 334 598 293 l 598 213 b 418 92 598 134 536 92 l 228 92 l 228 334 z "},"ᴄ":{"ha":772,"x_min":0,"x_max":0,"o":"m 405 -18 b 710 216 570 -18 689 75 l 710 218 l 593 218 l 592 216 b 405 83 572 134 500 83 b 194 365 275 83 194 191 l 194 366 b 404 648 194 540 275 648 b 593 500 500 648 572 591 l 593 499 l 709 499 l 710 502 b 404 749 691 647 567 749 b 73 366 200 749 73 602 l 73 365 b 405 -18 73 129 200 -18 z "},"ᴅ":{"ha":794,"x_min":0,"x_max":0,"o":"m 110 0 l 376 0 b 721 367 595 0 721 135 l 721 368 b 376 731 721 597 594 731 l 110 731 z m 228 98 l 228 633 l 363 633 b 600 366 512 633 600 535 l 600 366 b 363 98 600 195 513 98 z "},"ᴇ":{"ha":650,"x_min":0,"x_max":0,"o":"m 110 0 l 576 0 l 576 98 l 228 98 l 228 326 l 557 326 l 557 419 l 228 419 l 228 633 l 576 633 l 576 731 l 110 731 z "},"ꜰ":{"ha":605,"x_min":0,"x_max":0,"o":"m 110 0 l 228 0 l 228 307 l 541 307 l 541 401 l 228 401 l 228 633 l 569 633 l 569 731 l 110 731 z "},"ɢ":{"ha":808,"x_min":0,"x_max":0,"o":"m 416 -18 b 734 288 609 -18 734 102 l 734 378 l 431 378 l 431 287 l 618 287 l 618 271 b 417 83 616 158 536 83 b 194 366 280 83 194 191 l 194 367 b 414 648 194 539 279 648 b 610 513 514 648 583 600 l 611 509 l 729 509 l 728 513 b 414 749 702 654 582 749 b 73 366 207 749 73 598 l 73 366 b 416 -18 73 130 205 -18 z "},"ʛ":{"ha":867,"x_min":0,"x_max":0,"o":"m 416 -18 b 734 288 609 -18 734 102 l 734 378 l 431 378 l 431 287 l 618 287 l 618 271 b 417 83 616 158 536 83 b 194 366 280 83 194 191 l 194 367 b 414 648 194 539 279 648 b 610 513 514 648 583 600 l 611 509 l 734 509 l 734 829 b 832 930 734 897 767 930 b 867 929 845 930 858 930 l 867 1025 b 812 1028 854 1027 832 1028 b 625 825 685 1028 625 966 l 625 684 b 414 749 570 725 498 749 b 73 366 207 749 73 598 l 73 366 b 416 -18 73 130 205 -18 z "},"ʜ":{"ha":851,"x_min":0,"x_max":0,"o":"m 110 0 l 228 0 l 228 324 l 623 324 l 623 0 l 741 0 l 741 731 l 623 731 l 623 422 l 228 422 l 228 731 l 110 731 z "},"ɪ":{"ha":535,"x_min":0,"x_max":0,"o":"m 62 0 l 473 0 l 473 92 l 327 92 l 327 640 l 473 640 l 473 731 l 62 731 l 62 640 l 209 640 l 209 92 l 62 92 z "},"ᵻ":{"ha":343,"x_min":0,"x_max":0,"o":"m 113 0 l 231 0 l 231 362 l 343 362 l 343 452 l 231 452 l 231 731 l 113 731 l 113 452 l 0 452 l 0 362 l 113 362 z "},"ᴊ":{"ha":593,"x_min":0,"x_max":0,"o":"m 260 -18 b 490 211 405 -18 490 67 l 490 731 l 372 731 l 372 212 b 259 83 372 128 333 83 b 153 183 192 83 157 127 l 152 187 l 36 187 l 37 181 b 260 -18 42 65 123 -18 z "},"ᴋ":{"ha":726,"x_min":0,"x_max":0,"o":"m 110 0 l 228 0 l 228 243 l 309 337 l 551 0 l 697 0 l 393 414 l 674 731 l 536 731 l 237 385 l 228 385 l 228 731 l 110 731 z "},"ʟ":{"ha":650,"x_min":0,"x_max":0,"o":"m 110 0 l 588 0 l 588 98 l 228 98 l 228 731 l 110 731 z "},"ᴌ":{"ha":592,"x_min":0,"x_max":0,"o":"m 98 0 l 556 0 l 556 98 l 216 98 l 216 333 l 414 431 l 414 524 l 216 426 l 216 731 l 98 731 l 98 368 l 41 339 l 41 246 l 98 275 z "},"ᴍ":{"ha":959,"x_min":0,"x_max":0,"o":"m 110 0 l 217 0 l 217 537 l 224 537 l 437 0 l 522 0 l 736 537 l 742 537 l 742 0 l 849 0 l 849 731 l 713 731 l 484 148 l 475 148 l 245 731 l 110 731 z "},"ɴ":{"ha":846,"x_min":0,"x_max":0,"o":"m 110 0 l 224 0 l 224 532 l 234 532 l 629 0 l 736 0 l 736 731 l 621 731 l 621 199 l 612 199 l 217 731 l 110 731 z "},"ᴎ":{"ha":846,"x_min":0,"x_max":0,"o":"m 736 0 l 736 731 l 629 731 l 234 199 l 224 199 l 224 731 l 110 731 l 110 0 l 217 0 l 612 532 l 621 532 l 621 0 z "},"ᴏ":{"ha":831,"x_min":0,"x_max":0,"o":"m 416 -18 b 758 366 628 -18 758 132 l 758 366 b 416 749 758 601 627 749 b 73 366 205 749 73 602 l 73 366 b 416 -18 73 131 203 -18 z m 416 83 b 194 366 278 83 194 194 l 194 366 b 416 648 194 539 280 648 b 638 366 552 648 638 539 l 638 366 b 416 83 638 194 553 83 z "},"ᴘ":{"ha":707,"x_min":0,"x_max":0,"o":"m 110 0 l 228 0 l 228 250 l 397 250 b 641 491 541 250 641 348 l 641 492 b 397 731 641 635 541 731 l 110 731 z m 368 636 b 521 491 465 636 521 583 l 521 490 b 368 345 521 398 465 345 l 228 345 l 228 636 z "},"ꞯ":{"ha":831,"x_min":0,"x_max":0,"o":"m 416 -18 b 547 5 464 -18 508 -10 l 609 -79 l 728 -79 l 631 52 b 758 366 713 118 758 227 l 758 367 b 416 749 758 602 627 749 b 73 367 205 749 73 602 l 73 366 b 416 -18 73 131 203 -18 z m 416 83 b 194 366 278 83 194 194 l 194 367 b 416 649 194 539 280 649 b 638 367 552 649 638 539 l 638 366 b 564 143 638 269 611 192 l 506 220 l 387 220 l 482 92 b 416 83 462 86 439 83 z "},"ʀ":{"ha":745,"x_min":0,"x_max":0,"o":"m 110 0 l 228 0 l 228 281 l 397 281 l 554 0 l 690 0 l 518 299 b 667 507 612 329 667 409 l 667 508 b 412 731 667 644 569 731 l 110 731 z m 228 373 l 228 636 l 397 636 b 546 505 490 636 546 587 l 546 504 b 401 373 546 421 493 373 z "},"ᴙ":{"ha":745,"x_min":0,"x_max":0,"o":"m 635 0 l 635 731 l 332 731 b 77 508 176 731 77 644 l 77 507 b 227 299 77 409 133 329 l 54 0 l 191 0 l 347 281 l 517 281 l 517 0 z m 517 373 l 344 373 b 199 504 252 373 199 421 l 199 505 b 347 636 199 587 255 636 l 517 636 z "},"ʁ":{"ha":745,"x_min":0,"x_max":0,"o":"m 635 731 l 517 731 l 517 450 l 347 450 l 191 731 l 54 731 l 227 432 b 77 224 133 402 77 322 l 77 223 b 332 0 77 87 176 0 l 635 0 z m 517 358 l 517 95 l 347 95 b 199 226 255 95 199 144 l 199 227 b 344 358 199 310 252 358 z "},"ꜱ":{"ha":710,"x_min":0,"x_max":0,"o":"m 356 -18 b 637 210 528 -18 637 70 l 637 210 b 420 413 637 318 574 380 l 340 431 b 209 541 247 451 209 486 l 209 541 b 355 650 209 610 271 650 b 508 547 442 651 498 607 l 509 541 l 623 541 l 623 547 b 356 749 614 661 513 749 b 90 535 200 749 90 662 b 302 327 90 427 154 359 l 382 310 b 517 196 478 289 517 252 l 517 195 b 361 81 517 127 452 81 b 189 190 264 81 195 123 l 189 195 l 73 195 l 73 189 b 356 -18 83 66 189 -18 z "},"ᴛ":{"ha":684,"x_min":0,"x_max":0,"o":"m 283 0 l 401 0 l 401 633 l 629 633 l 629 731 l 54 731 l 54 633 l 283 633 z "},"ᴜ":{"ha":801,"x_min":0,"x_max":0,"o":"m 401 -18 b 698 252 585 -18 698 92 l 698 731 l 580 731 l 580 260 b 401 83 580 155 515 83 b 221 260 286 83 221 155 l 221 731 l 103 731 l 103 252 b 401 -18 103 92 217 -18 z "},"ᴠ":{"ha":741,"x_min":0,"x_max":0,"o":"m 304 0 l 437 0 l 696 731 l 567 731 l 375 136 l 367 136 l 175 731 l 46 731 z "},"ᴡ":{"ha":1025,"x_min":0,"x_max":0,"o":"m 243 0 l 354 0 l 509 547 l 515 547 l 671 0 l 782 0 l 979 731 l 856 731 l 725 162 l 718 162 l 566 731 l 458 731 l 308 162 l 300 162 l 169 731 l 46 731 z "},"ʏ":{"ha":751,"x_min":0,"x_max":0,"o":"m 317 0 l 435 0 l 435 300 l 705 731 l 574 731 l 380 412 l 372 412 l 177 731 l 46 731 l 317 300 z "},"ᴢ":{"ha":736,"x_min":0,"x_max":0,"o":"m 93 0 l 644 0 l 644 98 l 242 98 l 242 106 l 634 654 l 634 731 l 104 731 l 104 633 l 487 633 l 487 625 l 93 77 z "},"ɶ":{"ha":1239,"x_min":0,"x_max":0,"o":"m 420 -18 b 677 123 530 -18 633 39 l 686 123 l 686 0 l 1165 0 l 1165 98 l 788 98 l 788 326 l 1145 326 l 1145 419 l 788 419 l 788 633 l 1165 633 l 1165 731 l 686 731 l 686 613 l 677 613 b 420 749 633 693 528 749 b 73 366 206 749 73 602 l 73 366 b 420 -18 73 128 205 -18 z m 436 83 b 194 366 287 83 194 191 l 194 366 b 436 648 194 540 288 648 b 669 366 580 648 669 540 l 669 366 b 436 83 669 191 580 83 z "},"ᴁ":{"ha":1028,"x_min":0,"x_max":0,"o":"m 46 0 l 164 0 l 258 217 l 511 217 l 511 0 l 955 0 l 955 98 l 623 98 l 623 321 l 936 321 l 936 415 l 623 415 l 623 633 l 955 633 l 955 731 l 363 731 z m 440 640 l 511 640 l 511 308 l 297 308 z "},"ᴆ":{"ha":812,"x_min":0,"x_max":0,"o":"m 129 0 l 395 0 b 739 367 613 0 739 135 l 739 368 b 395 731 739 597 612 731 l 129 731 l 129 410 l 37 410 l 37 323 l 129 323 z m 246 98 l 246 323 l 403 323 l 403 410 l 246 410 l 246 633 l 381 633 b 618 366 530 633 618 535 l 618 366 b 381 98 618 195 532 98 z "},"ᴦ":{"ha":596,"x_min":0,"x_max":0,"o":"m 228 0 l 228 633 l 559 633 l 559 731 l 110 731 l 110 0 z "},"ᴧ":{"ha":726,"x_min":0,"x_max":0,"o":"m 46 0 l 168 0 l 357 596 l 366 596 l 553 0 l 680 0 l 428 731 l 298 731 z "},"ᴨ":{"ha":819,"x_min":0,"x_max":0,"o":"m 709 0 l 709 731 l 110 731 l 110 0 l 228 0 l 228 633 l 591 633 l 591 0 z "},"ᴪ":{"ha":916,"x_min":0,"x_max":0,"o":"m 401 0 l 515 0 l 515 166 b 813 456 696 168 813 281 l 813 731 l 699 731 l 699 457 b 515 264 699 337 634 269 l 515 731 l 401 731 l 401 264 b 218 457 282 269 218 337 l 218 731 l 103 731 l 103 456 b 401 166 103 281 220 168 z "},"a":{"ha":766,"x_min":0,"x_max":0,"o":"m 311 -13 b 532 108 409 -13 486 30 l 543 108 l 543 0 l 661 0 l 661 500 b 382 744 661 652 561 744 b 96 552 227 744 115 667 l 96 548 l 214 548 l 214 550 b 378 640 233 607 291 640 b 543 500 488 640 543 591 l 543 434 l 333 421 b 66 205 163 411 66 336 l 66 204 b 311 -13 66 71 172 -13 z m 187 207 l 187 208 b 347 327 187 281 236 320 l 543 339 l 543 273 b 335 90 543 168 455 90 b 187 207 250 90 187 133 z "},"à":{"ha":766,"x_min":0,"x_max":0,"o":"m 330 833 l 433 833 l 313 1063 l 173 1063 z m 311 -13 b 532 108 409 -13 486 30 l 543 108 l 543 0 l 661 0 l 661 500 b 382 744 661 652 561 744 b 96 552 227 744 115 667 l 96 548 l 214 548 l 214 550 b 378 640 233 607 291 640 b 543 500 488 640 543 591 l 543 434 l 333 421 b 66 205 163 411 66 336 l 66 204 b 311 -13 66 71 172 -13 z m 187 207 l 187 208 b 347 327 187 281 236 320 l 543 339 l 543 273 b 335 90 543 168 455 90 b 187 207 250 90 187 133 z "},"á":{"ha":766,"x_min":0,"x_max":0,"o":"m 435 833 l 592 1063 l 452 1063 l 332 833 z m 311 -13 b 532 108 409 -13 486 30 l 543 108 l 543 0 l 661 0 l 661 500 b 382 744 661 652 561 744 b 96 552 227 744 115 667 l 96 548 l 214 548 l 214 550 b 378 640 233 607 291 640 b 543 500 488 640 543 591 l 543 434 l 333 421 b 66 205 163 411 66 336 l 66 204 b 311 -13 66 71 172 -13 z m 187 207 l 187 208 b 347 327 187 281 236 320 l 543 339 l 543 273 b 335 90 543 168 455 90 b 187 207 250 90 187 133 z "},"ä":{"ha":766,"x_min":0,"x_max":0,"o":"m 233 878 b 307 953 273 878 307 911 b 233 1027 307 994 273 1027 b 157 953 191 1027 157 994 b 233 878 157 911 191 878 z m 532 878 b 607 953 573 878 607 911 b 532 1027 607 994 573 1027 b 457 953 491 1027 457 994 b 532 878 457 911 491 878 z m 311 -13 b 532 108 409 -13 486 30 l 543 108 l 543 0 l 661 0 l 661 500 b 382 744 661 652 561 744 b 96 552 227 744 115 667 l 96 548 l 214 548 l 214 550 b 378 640 233 607 291 640 b 543 500 488 640 543 591 l 543 434 l 333 421 b 66 205 163 411 66 336 l 66 204 b 311 -13 66 71 172 -13 z m 187 207 l 187 208 b 347 327 187 281 236 320 l 543 339 l 543 273 b 335 90 543 168 455 90 b 187 207 250 90 187 133 z "},"ǟ":{"ha":766,"x_min":0,"x_max":0,"o":"m 189 1025 l 576 1025 l 576 1112 l 189 1112 z m 509 822 b 577 890 547 822 577 852 b 509 958 577 928 547 958 b 441 890 471 958 441 928 b 509 822 441 852 471 822 z m 256 822 b 324 890 294 822 324 852 b 256 958 324 928 294 958 b 188 890 218 958 188 928 b 256 822 188 852 218 822 z m 311 -13 b 532 108 409 -13 486 30 l 543 108 l 543 0 l 661 0 l 661 500 b 382 744 661 652 561 744 b 96 552 227 744 115 667 l 96 548 l 214 548 l 214 550 b 378 640 233 607 291 640 b 543 500 488 640 543 591 l 543 434 l 333 421 b 66 205 163 411 66 336 l 66 204 b 311 -13 66 71 172 -13 z m 187 207 l 187 208 b 347 327 187 281 236 320 l 543 339 l 543 273 b 335 90 543 168 455 90 b 187 207 250 90 187 133 z "},"å":{"ha":766,"x_min":0,"x_max":0,"o":"m 382 836 b 538 987 469 836 538 904 l 538 988 b 382 1139 538 1072 469 1139 b 227 988 296 1139 227 1072 l 227 987 b 382 836 227 904 296 836 z m 382 904 b 298 987 335 904 298 941 l 298 988 b 382 1071 298 1034 335 1071 b 467 988 430 1071 467 1034 l 467 987 b 382 904 467 941 430 904 z m 311 -13 b 532 108 409 -13 486 30 l 543 108 l 543 0 l 661 0 l 661 500 b 382 744 661 652 561 744 b 96 552 227 744 115 667 l 96 548 l 214 548 l 214 550 b 378 640 233 607 291 640 b 543 500 488 640 543 591 l 543 434 l 333 421 b 66 205 163 411 66 336 l 66 204 b 311 -13 66 71 172 -13 z m 187 207 l 187 208 b 347 327 187 281 236 320 l 543 339 l 543 273 b 335 90 543 168 455 90 b 187 207 250 90 187 133 z "},"ǻ":{"ha":766,"x_min":0,"x_max":0,"o":"m 345 1091 l 435 1091 l 577 1281 l 454 1281 z m 382 773 l 383 773 b 518 905 458 773 518 833 l 518 906 b 383 1038 518 979 458 1038 l 382 1038 b 247 906 307 1038 247 979 l 247 905 b 382 773 247 833 307 773 z m 382 844 b 320 905 347 844 320 871 l 320 906 b 382 967 320 940 347 967 l 383 967 b 445 906 418 967 445 940 l 445 905 b 383 844 445 871 418 844 z m 311 -13 b 532 108 409 -13 486 30 l 543 108 l 543 0 l 661 0 l 661 500 b 382 744 661 652 561 744 b 96 552 227 744 115 667 l 96 548 l 214 548 l 214 550 b 378 640 233 607 291 640 b 543 500 488 640 543 591 l 543 434 l 333 421 b 66 205 163 411 66 336 l 66 204 b 311 -13 66 71 172 -13 z m 187 207 l 187 208 b 347 327 187 281 236 320 l 543 339 l 543 273 b 335 90 543 168 455 90 b 187 207 250 90 187 133 z "},"ã":{"ha":766,"x_min":0,"x_max":0,"o":"m 469 838 b 618 1025 562 838 618 909 l 618 1033 l 524 1033 l 524 1030 b 471 927 524 962 505 927 b 412 968 452 927 439 936 l 406 975 b 297 1030 374 1015 342 1030 b 146 842 204 1030 146 959 l 146 835 l 241 835 l 241 838 b 295 941 241 907 260 941 b 353 900 314 941 329 930 l 359 892 b 469 838 392 853 423 838 z m 311 -13 b 532 108 409 -13 486 30 l 543 108 l 543 0 l 661 0 l 661 500 b 382 744 661 652 561 744 b 96 552 227 744 115 667 l 96 548 l 214 548 l 214 550 b 378 640 233 607 291 640 b 543 500 488 640 543 591 l 543 434 l 333 421 b 66 205 163 411 66 336 l 66 204 b 311 -13 66 71 172 -13 z m 187 207 l 187 208 b 347 327 187 281 236 320 l 543 339 l 543 273 b 335 90 543 168 455 90 b 187 207 250 90 187 133 z "},"ằ":{"ha":766,"x_min":0,"x_max":0,"o":"m 330 1029 l 420 1029 l 311 1219 l 188 1219 z m 382 784 b 576 978 501 784 576 864 l 576 985 l 489 985 l 489 981 b 382 865 489 920 450 865 b 276 981 315 865 276 920 l 276 985 l 189 985 l 189 978 b 382 784 189 864 264 784 z m 311 -13 b 532 108 409 -13 486 30 l 543 108 l 543 0 l 661 0 l 661 500 b 382 744 661 652 561 744 b 96 552 227 744 115 667 l 96 548 l 214 548 l 214 550 b 378 640 233 607 291 640 b 543 500 488 640 543 591 l 543 434 l 333 421 b 66 205 163 411 66 336 l 66 204 b 311 -13 66 71 172 -13 z m 187 207 l 187 208 b 347 327 187 281 236 320 l 543 339 l 543 273 b 335 90 543 168 455 90 b 187 207 250 90 187 133 z "},"ǡ":{"ha":766,"x_min":0,"x_max":0,"o":"m 190 1025 l 576 1025 l 576 1112 l 190 1112 z m 382 822 b 451 890 420 822 451 852 b 382 958 451 928 420 958 b 315 890 345 958 315 928 b 382 822 315 852 345 822 z m 311 -13 b 532 108 409 -13 486 30 l 543 108 l 543 0 l 661 0 l 661 500 b 382 744 661 652 561 744 b 96 552 227 744 115 667 l 96 548 l 214 548 l 214 550 b 378 640 233 607 291 640 b 543 500 488 640 543 591 l 543 434 l 333 421 b 66 205 163 411 66 336 l 66 204 b 311 -13 66 71 172 -13 z m 187 207 l 187 208 b 347 327 187 281 236 320 l 543 339 l 543 273 b 335 90 543 168 455 90 b 187 207 250 90 187 133 z "},"ḁ":{"ha":766,"x_min":0,"x_max":0,"o":"m 311 -13 b 532 108 409 -13 486 30 l 543 108 l 543 0 l 661 0 l 661 500 b 382 744 661 652 561 744 b 96 552 227 744 115 667 l 96 548 l 214 548 l 214 550 b 378 640 233 607 291 640 b 543 500 488 640 543 591 l 543 434 l 333 421 b 66 205 163 411 66 336 l 66 204 b 311 -13 66 71 172 -13 z m 187 207 l 187 208 b 347 327 187 281 236 320 l 543 339 l 543 273 b 335 90 543 168 455 90 b 187 207 250 90 187 133 z m 363 -335 b 509 -193 444 -335 509 -271 l 509 -193 b 363 -52 509 -115 444 -52 b 218 -193 282 -52 218 -115 l 218 -193 b 363 -335 218 -271 282 -335 z m 363 -272 b 283 -193 319 -272 283 -237 b 363 -114 283 -149 319 -114 b 444 -193 408 -114 444 -149 b 363 -272 444 -237 408 -272 z "},"â":{"ha":766,"x_min":0,"x_max":0,"o":"m 150 833 l 277 833 l 377 987 l 388 987 l 488 833 l 615 833 l 451 1063 l 314 1063 z m 311 -13 b 532 108 409 -13 486 30 l 543 108 l 543 0 l 661 0 l 661 500 b 382 744 661 652 561 744 b 96 552 227 744 115 667 l 96 548 l 214 548 l 214 550 b 378 640 233 607 291 640 b 543 500 488 640 543 591 l 543 434 l 333 421 b 66 205 163 411 66 336 l 66 204 b 311 -13 66 71 172 -13 z m 187 207 l 187 208 b 347 327 187 281 236 320 l 543 339 l 543 273 b 335 90 543 168 455 90 b 187 207 250 90 187 133 z "},"ậ":{"ha":766,"x_min":0,"x_max":0,"o":"m 150 833 l 277 833 l 377 987 l 388 987 l 488 833 l 615 833 l 451 1063 l 314 1063 z m 311 -13 b 532 108 409 -13 486 30 l 543 108 l 543 0 l 661 0 l 661 500 b 382 744 661 652 561 744 b 96 552 227 744 115 667 l 96 548 l 214 548 l 214 550 b 378 640 233 607 291 640 b 543 500 488 640 543 591 l 543 434 l 333 421 b 66 205 163 411 66 336 l 66 204 b 311 -13 66 71 172 -13 z m 187 207 l 187 208 b 347 327 187 281 236 320 l 543 339 l 543 273 b 335 90 543 168 455 90 b 187 207 250 90 187 133 z m 363 -304 b 445 -222 408 -304 445 -267 b 363 -141 445 -178 408 -141 b 282 -222 319 -141 282 -178 b 363 -304 282 -267 319 -304 z "},"ấ":{"ha":766,"x_min":0,"x_max":0,"o":"m 493 1002 l 584 1002 l 726 1192 l 602 1192 z m 190 786 l 292 786 l 382 918 l 473 786 l 575 786 l 436 989 l 329 989 z m 311 -13 b 532 108 409 -13 486 30 l 543 108 l 543 0 l 661 0 l 661 500 b 382 744 661 652 561 744 b 96 552 227 744 115 667 l 96 548 l 214 548 l 214 550 b 378 640 233 607 291 640 b 543 500 488 640 543 591 l 543 434 l 333 421 b 66 205 163 411 66 336 l 66 204 b 311 -13 66 71 172 -13 z m 187 207 l 187 208 b 347 327 187 281 236 320 l 543 339 l 543 273 b 335 90 543 168 455 90 b 187 207 250 90 187 133 z "},"ẫ":{"ha":766,"x_min":0,"x_max":0,"o":"m 475 1031 b 576 1198 538 1031 576 1086 l 576 1206 l 495 1206 l 495 1199 b 461 1117 495 1143 484 1117 b 405 1152 444 1117 426 1133 l 382 1172 b 292 1207 358 1192 328 1207 b 190 1040 228 1207 190 1152 l 190 1032 l 271 1032 l 271 1039 b 305 1121 271 1095 282 1121 b 361 1086 323 1121 340 1105 l 385 1066 b 475 1031 408 1046 438 1031 z m 190 786 l 292 786 l 382 918 l 473 786 l 575 786 l 436 989 l 329 989 z m 311 -13 b 532 108 409 -13 486 30 l 543 108 l 543 0 l 661 0 l 661 500 b 382 744 661 652 561 744 b 96 552 227 744 115 667 l 96 548 l 214 548 l 214 550 b 378 640 233 607 291 640 b 543 500 488 640 543 591 l 543 434 l 333 421 b 66 205 163 411 66 336 l 66 204 b 311 -13 66 71 172 -13 z m 187 207 l 187 208 b 347 327 187 281 236 320 l 543 339 l 543 273 b 335 90 543 168 455 90 b 187 207 250 90 187 133 z "},"ầ":{"ha":766,"x_min":0,"x_max":0,"o":"m 478 1002 l 569 1002 l 460 1192 l 336 1192 z m 190 786 l 292 786 l 382 918 l 473 786 l 575 786 l 436 989 l 329 989 z m 311 -13 b 532 108 409 -13 486 30 l 543 108 l 543 0 l 661 0 l 661 500 b 382 744 661 652 561 744 b 96 552 227 744 115 667 l 96 548 l 214 548 l 214 550 b 378 640 233 607 291 640 b 543 500 488 640 543 591 l 543 434 l 333 421 b 66 205 163 411 66 336 l 66 204 b 311 -13 66 71 172 -13 z m 187 207 l 187 208 b 347 327 187 281 236 320 l 543 339 l 543 273 b 335 90 543 168 455 90 b 187 207 250 90 187 133 z "},"ẩ":{"ha":766,"x_min":0,"x_max":0,"o":"m 492 1002 l 569 1002 b 621 1101 601 1027 621 1060 b 501 1206 621 1169 567 1206 b 447 1197 480 1206 461 1202 l 447 1110 b 473 1114 454 1112 463 1114 b 526 1070 505 1114 526 1099 b 492 1003 526 1047 513 1025 z m 190 786 l 292 786 l 382 918 l 473 786 l 575 786 l 436 989 l 329 989 z m 311 -13 b 532 108 409 -13 486 30 l 543 108 l 543 0 l 661 0 l 661 500 b 382 744 661 652 561 744 b 96 552 227 744 115 667 l 96 548 l 214 548 l 214 550 b 378 640 233 607 291 640 b 543 500 488 640 543 591 l 543 434 l 333 421 b 66 205 163 411 66 336 l 66 204 b 311 -13 66 71 172 -13 z m 187 207 l 187 208 b 347 327 187 281 236 320 l 543 339 l 543 273 b 335 90 543 168 455 90 b 187 207 250 90 187 133 z "},"ă":{"ha":766,"x_min":0,"x_max":0,"o":"m 382 833 b 619 1062 536 833 619 928 l 619 1063 l 515 1063 l 515 1063 b 382 920 515 977 473 920 b 250 1063 292 920 250 977 l 250 1063 l 146 1063 l 146 1062 b 382 833 146 928 229 833 z m 311 -13 b 532 108 409 -13 486 30 l 543 108 l 543 0 l 661 0 l 661 500 b 382 744 661 652 561 744 b 96 552 227 744 115 667 l 96 548 l 214 548 l 214 550 b 378 640 233 607 291 640 b 543 500 488 640 543 591 l 543 434 l 333 421 b 66 205 163 411 66 336 l 66 204 b 311 -13 66 71 172 -13 z m 187 207 l 187 208 b 347 327 187 281 236 320 l 543 339 l 543 273 b 335 90 543 168 455 90 b 187 207 250 90 187 133 z "},"ắ":{"ha":766,"x_min":0,"x_max":0,"o":"m 345 1029 l 435 1029 l 577 1219 l 454 1219 z m 382 784 b 576 978 501 784 576 864 l 576 985 l 489 985 l 489 981 b 382 865 489 920 450 865 b 276 981 315 865 276 920 l 276 985 l 189 985 l 189 978 b 382 784 189 864 264 784 z m 311 -13 b 532 108 409 -13 486 30 l 543 108 l 543 0 l 661 0 l 661 500 b 382 744 661 652 561 744 b 96 552 227 744 115 667 l 96 548 l 214 548 l 214 550 b 378 640 233 607 291 640 b 543 500 488 640 543 591 l 543 434 l 333 421 b 66 205 163 411 66 336 l 66 204 b 311 -13 66 71 172 -13 z m 187 207 l 187 208 b 347 327 187 281 236 320 l 543 339 l 543 273 b 335 90 543 168 455 90 b 187 207 250 90 187 133 z "},"ẵ":{"ha":766,"x_min":0,"x_max":0,"o":"m 474 1031 b 576 1198 538 1031 576 1086 l 576 1206 l 494 1206 l 494 1199 b 460 1117 494 1143 484 1117 b 404 1152 443 1117 425 1133 l 381 1172 b 291 1207 357 1192 328 1207 b 189 1040 227 1207 189 1152 l 189 1032 l 271 1032 l 271 1039 b 304 1121 271 1095 281 1121 b 361 1086 322 1121 340 1105 l 384 1066 b 474 1031 408 1046 437 1031 z m 382 784 b 576 978 501 784 576 864 l 576 985 l 489 985 l 489 981 b 382 865 489 920 450 865 b 276 981 315 865 276 920 l 276 985 l 189 985 l 189 978 b 382 784 189 864 264 784 z m 311 -13 b 532 108 409 -13 486 30 l 543 108 l 543 0 l 661 0 l 661 500 b 382 744 661 652 561 744 b 96 552 227 744 115 667 l 96 548 l 214 548 l 214 550 b 378 640 233 607 291 640 b 543 500 488 640 543 591 l 543 434 l 333 421 b 66 205 163 411 66 336 l 66 204 b 311 -13 66 71 172 -13 z m 187 207 l 187 208 b 347 327 187 281 236 320 l 543 339 l 543 273 b 335 90 543 168 455 90 b 187 207 250 90 187 133 z "},"ẳ":{"ha":766,"x_min":0,"x_max":0,"o":"m 341 1024 l 418 1024 b 469 1123 450 1049 469 1082 b 350 1227 469 1191 416 1227 b 296 1219 329 1227 310 1223 l 296 1132 b 322 1135 303 1134 312 1135 b 375 1092 354 1135 375 1120 b 341 1025 375 1069 361 1046 z m 382 813 b 576 1007 501 813 576 893 l 576 1014 l 489 1014 l 489 1010 b 382 895 489 949 450 895 b 276 1010 315 895 276 949 l 276 1014 l 189 1014 l 189 1007 b 382 813 189 893 264 813 z m 311 -13 b 532 108 409 -13 486 30 l 543 108 l 543 0 l 661 0 l 661 500 b 382 744 661 652 561 744 b 96 552 227 744 115 667 l 96 548 l 214 548 l 214 550 b 378 640 233 607 291 640 b 543 500 488 640 543 591 l 543 434 l 333 421 b 66 205 163 411 66 336 l 66 204 b 311 -13 66 71 172 -13 z m 187 207 l 187 208 b 347 327 187 281 236 320 l 543 339 l 543 273 b 335 90 543 168 455 90 b 187 207 250 90 187 133 z "},"ặ":{"ha":766,"x_min":0,"x_max":0,"o":"m 382 833 b 619 1062 536 833 619 928 l 619 1063 l 515 1063 l 515 1063 b 382 920 515 977 473 920 b 250 1063 292 920 250 977 l 250 1063 l 146 1063 l 146 1062 b 382 833 146 928 229 833 z m 311 -13 b 532 108 409 -13 486 30 l 543 108 l 543 0 l 661 0 l 661 500 b 382 744 661 652 561 744 b 96 552 227 744 115 667 l 96 548 l 214 548 l 214 550 b 378 640 233 607 291 640 b 543 500 488 640 543 591 l 543 434 l 333 421 b 66 205 163 411 66 336 l 66 204 b 311 -13 66 71 172 -13 z m 187 207 l 187 208 b 347 327 187 281 236 320 l 543 339 l 543 273 b 335 90 543 168 455 90 b 187 207 250 90 187 133 z m 363 -304 b 445 -222 408 -304 445 -267 b 363 -141 445 -178 408 -141 b 282 -222 319 -141 282 -178 b 363 -304 282 -267 319 -304 z "},"ȃ":{"ha":766,"x_min":0,"x_max":0,"o":"m 382 1063 b 146 834 229 1063 146 968 l 146 833 l 250 833 l 250 833 b 382 977 250 920 292 977 b 515 833 473 977 515 920 l 515 833 l 619 833 l 619 834 b 382 1063 619 968 536 1063 z m 311 -13 b 532 108 409 -13 486 30 l 543 108 l 543 0 l 661 0 l 661 500 b 382 744 661 652 561 744 b 96 552 227 744 115 667 l 96 548 l 214 548 l 214 550 b 378 640 233 607 291 640 b 543 500 488 640 543 591 l 543 434 l 333 421 b 66 205 163 411 66 336 l 66 204 b 311 -13 66 71 172 -13 z m 187 207 l 187 208 b 347 327 187 281 236 320 l 543 339 l 543 273 b 335 90 543 168 455 90 b 187 207 250 90 187 133 z "},"ǎ":{"ha":766,"x_min":0,"x_max":0,"o":"m 615 1063 l 488 1063 l 388 909 l 377 909 l 277 1063 l 150 1063 l 314 833 l 451 833 z m 311 -13 b 532 108 409 -13 486 30 l 543 108 l 543 0 l 661 0 l 661 500 b 382 744 661 652 561 744 b 96 552 227 744 115 667 l 96 548 l 214 548 l 214 550 b 378 640 233 607 291 640 b 543 500 488 640 543 591 l 543 434 l 333 421 b 66 205 163 411 66 336 l 66 204 b 311 -13 66 71 172 -13 z m 187 207 l 187 208 b 347 327 187 281 236 320 l 543 339 l 543 273 b 335 90 543 168 455 90 b 187 207 250 90 187 133 z "},"ȧ":{"ha":766,"x_min":0,"x_max":0,"o":"m 382 872 b 464 954 427 872 464 909 b 382 1035 464 998 427 1035 b 301 954 338 1035 301 998 b 382 872 301 909 338 872 z m 311 -13 b 532 108 409 -13 486 30 l 543 108 l 543 0 l 661 0 l 661 500 b 382 744 661 652 561 744 b 96 552 227 744 115 667 l 96 548 l 214 548 l 214 550 b 378 640 233 607 291 640 b 543 500 488 640 543 591 l 543 434 l 333 421 b 66 205 163 411 66 336 l 66 204 b 311 -13 66 71 172 -13 z m 187 207 l 187 208 b 347 327 187 281 236 320 l 543 339 l 543 273 b 335 90 543 168 455 90 b 187 207 250 90 187 133 z "},"ạ":{"ha":766,"x_min":0,"x_max":0,"o":"m 311 -13 b 532 108 409 -13 486 30 l 543 108 l 543 0 l 661 0 l 661 500 b 382 744 661 652 561 744 b 96 552 227 744 115 667 l 96 548 l 214 548 l 214 550 b 378 640 233 607 291 640 b 543 500 488 640 543 591 l 543 434 l 333 421 b 66 205 163 411 66 336 l 66 204 b 311 -13 66 71 172 -13 z m 187 207 l 187 208 b 347 327 187 281 236 320 l 543 339 l 543 273 b 335 90 543 168 455 90 b 187 207 250 90 187 133 z m 363 -304 b 445 -222 408 -304 445 -267 b 363 -141 445 -178 408 -141 b 282 -222 319 -141 282 -178 b 363 -304 282 -267 319 -304 z "},"ả":{"ha":766,"x_min":0,"x_max":0,"o":"m 333 786 l 425 786 b 487 905 463 816 487 855 b 343 1030 487 986 422 1030 b 278 1019 318 1030 296 1025 l 278 922 b 311 926 288 924 298 926 b 387 869 358 926 387 904 b 333 787 387 839 366 812 z m 311 -13 b 532 108 409 -13 486 30 l 543 108 l 543 0 l 661 0 l 661 500 b 382 744 661 652 561 744 b 96 552 227 744 115 667 l 96 548 l 214 548 l 214 550 b 378 640 233 607 291 640 b 543 500 488 640 543 591 l 543 434 l 333 421 b 66 205 163 411 66 336 l 66 204 b 311 -13 66 71 172 -13 z m 187 207 l 187 208 b 347 327 187 281 236 320 l 543 339 l 543 273 b 335 90 543 168 455 90 b 187 207 250 90 187 133 z "},"ȁ":{"ha":766,"x_min":0,"x_max":0,"o":"m 197 833 l 300 833 l 164 1063 l 24 1063 z m 455 833 l 558 833 l 438 1063 l 298 1063 z m 311 -13 b 532 108 409 -13 486 30 l 543 108 l 543 0 l 661 0 l 661 500 b 382 744 661 652 561 744 b 96 552 227 744 115 667 l 96 548 l 214 548 l 214 550 b 378 640 233 607 291 640 b 543 500 488 640 543 591 l 543 434 l 333 421 b 66 205 163 411 66 336 l 66 204 b 311 -13 66 71 172 -13 z m 187 207 l 187 208 b 347 327 187 281 236 320 l 543 339 l 543 273 b 335 90 543 168 455 90 b 187 207 250 90 187 133 z "},"ā":{"ha":766,"x_min":0,"x_max":0,"o":"m 161 906 l 604 906 l 604 998 l 161 998 z m 311 -13 b 532 108 409 -13 486 30 l 543 108 l 543 0 l 661 0 l 661 500 b 382 744 661 652 561 744 b 96 552 227 744 115 667 l 96 548 l 214 548 l 214 550 b 378 640 233 607 291 640 b 543 500 488 640 543 591 l 543 434 l 333 421 b 66 205 163 411 66 336 l 66 204 b 311 -13 66 71 172 -13 z m 187 207 l 187 208 b 347 327 187 281 236 320 l 543 339 l 543 273 b 335 90 543 168 455 90 b 187 207 250 90 187 133 z "},"ą":{"ha":766,"x_min":0,"x_max":0,"o":"m 311 -13 b 532 108 409 -13 486 30 l 543 108 l 543 1 b 425 -183 459 -56 425 -122 l 425 -184 b 593 -335 425 -287 507 -335 b 673 -322 621 -335 648 -330 l 673 -241 b 623 -248 655 -245 638 -248 b 543 -159 578 -248 543 -214 l 543 -157 b 659 0 543 -92 589 -43 l 661 0 l 661 500 b 382 744 661 652 561 744 b 96 552 227 744 115 667 l 96 548 l 214 548 l 214 550 b 378 640 233 607 291 640 b 543 500 488 640 543 591 l 543 434 l 333 421 b 66 205 163 411 66 336 l 66 204 b 311 -13 66 71 172 -13 z m 187 207 l 187 208 b 347 327 187 281 236 320 l 543 339 l 543 273 b 335 90 543 168 455 90 b 187 207 250 90 187 133 z "},"ɐ":{"ha":766,"x_min":0,"x_max":0,"o":"m 456 744 b 235 623 357 744 281 701 l 224 623 l 224 731 l 106 731 l 106 231 b 384 -13 106 79 205 -13 b 670 179 540 -13 651 64 l 671 183 l 553 183 l 552 181 b 388 92 533 124 475 92 b 224 231 279 92 224 140 l 224 297 l 433 310 b 700 526 604 320 700 395 l 700 527 b 456 744 700 660 595 744 z m 224 458 b 431 642 224 563 311 642 b 579 524 516 642 579 598 l 579 523 b 419 404 579 450 530 411 l 224 392 z "},"ɑ":{"ha":853,"x_min":0,"x_max":0,"o":"m 380 -13 b 608 117 481 -13 563 35 l 618 117 l 618 0 l 736 0 l 736 731 l 618 731 l 618 616 l 608 616 b 380 744 568 694 480 744 b 73 366 194 744 73 595 l 73 365 b 380 -13 73 137 195 -13 z m 407 92 b 194 365 273 92 194 195 l 194 366 b 407 640 194 536 273 640 b 621 366 540 640 621 535 l 621 365 b 407 92 621 196 540 92 z "},"ɒ":{"ha":853,"x_min":0,"x_max":0,"o":"m 473 744 b 245 614 372 744 290 696 l 235 614 l 235 731 l 117 731 l 117 0 l 235 0 l 235 115 l 245 115 b 473 -13 286 37 373 -13 b 780 365 659 -13 780 136 l 780 366 b 473 744 780 594 659 744 z m 446 640 b 659 366 580 640 659 536 l 659 365 b 446 92 659 195 580 92 b 232 365 313 92 232 196 l 232 366 b 446 640 232 535 313 640 z "},"b":{"ha":853,"x_min":0,"x_max":0,"o":"m 473 -13 b 780 365 659 -13 780 137 l 780 366 b 473 744 780 595 659 744 b 245 616 373 744 286 694 l 235 616 l 235 1021 l 117 1021 l 117 0 l 235 0 l 235 117 l 245 117 b 473 -13 290 35 372 -13 z m 446 92 b 232 365 313 92 232 196 l 232 366 b 446 640 232 535 313 640 b 659 366 580 640 659 536 l 659 365 b 446 92 659 195 580 92 z "},"ḇ":{"ha":853,"x_min":0,"x_max":0,"o":"m 473 -13 b 780 365 659 -13 780 137 l 780 366 b 473 744 780 595 659 744 b 245 616 373 744 286 694 l 235 616 l 235 1021 l 117 1021 l 117 0 l 235 0 l 235 117 l 245 117 b 473 -13 290 35 372 -13 z m 446 92 b 232 365 313 92 232 196 l 232 366 b 446 640 232 535 313 640 b 659 366 580 640 659 536 l 659 365 b 446 92 659 195 580 92 z m 227 -267 l 670 -267 l 670 -175 l 227 -175 z "},"ḅ":{"ha":853,"x_min":0,"x_max":0,"o":"m 473 -13 b 780 365 659 -13 780 137 l 780 366 b 473 744 780 595 659 744 b 245 616 373 744 286 694 l 235 616 l 235 1021 l 117 1021 l 117 0 l 235 0 l 235 117 l 245 117 b 473 -13 290 35 372 -13 z m 446 92 b 232 365 313 92 232 196 l 232 366 b 446 640 232 535 313 640 b 659 366 580 640 659 536 l 659 365 b 446 92 659 195 580 92 z m 448 -304 b 530 -222 493 -304 530 -267 b 448 -141 530 -178 493 -141 b 367 -222 404 -141 367 -178 b 448 -304 367 -267 404 -304 z "},"ḃ":{"ha":853,"x_min":0,"x_max":0,"o":"m 175 1156 b 247 1227 214 1156 247 1188 b 175 1299 247 1267 214 1299 b 103 1227 136 1299 103 1267 b 175 1156 103 1188 136 1156 z m 473 -13 b 780 365 659 -13 780 137 l 780 366 b 473 744 780 595 659 744 b 245 616 373 744 286 694 l 235 616 l 235 1021 l 117 1021 l 117 0 l 235 0 l 235 117 l 245 117 b 473 -13 290 35 372 -13 z m 446 92 b 232 365 313 92 232 196 l 232 366 b 446 640 232 535 313 640 b 659 366 580 640 659 536 l 659 365 b 446 92 659 195 580 92 z "},"ɓ":{"ha":853,"x_min":0,"x_max":0,"o":"m 473 -13 b 780 365 659 -13 780 137 l 780 366 b 473 744 780 595 659 744 b 245 616 373 744 286 694 l 235 616 l 235 794 b 336 926 235 894 273 926 b 395 920 358 926 385 923 l 395 1017 b 308 1028 377 1023 340 1028 b 117 816 205 1028 117 966 l 117 0 l 235 0 l 235 117 l 245 117 b 473 -13 290 35 372 -13 z m 446 92 b 232 365 313 92 232 196 l 232 366 b 446 640 232 535 313 640 b 659 366 580 640 659 536 l 659 365 b 446 92 659 195 580 92 z "},"c":{"ha":777,"x_min":0,"x_max":0,"o":"m 409 -13 b 713 214 585 -13 683 81 l 714 221 l 597 220 l 596 216 b 408 92 569 135 507 92 b 194 368 278 92 194 199 l 194 369 b 408 640 194 534 277 640 b 597 509 513 640 578 581 l 597 507 l 715 507 l 714 511 b 408 744 692 642 586 744 b 73 369 203 744 73 596 l 73 368 b 409 -13 73 136 204 -13 z "},"ć":{"ha":777,"x_min":0,"x_max":0,"o":"m 460 833 l 616 1063 l 477 1063 l 357 833 z m 409 -13 b 713 214 585 -13 683 81 l 714 221 l 597 220 l 596 216 b 408 92 569 135 507 92 b 194 368 278 92 194 199 l 194 369 b 408 640 194 534 277 640 b 597 509 513 640 578 581 l 597 507 l 715 507 l 714 511 b 408 744 692 642 586 744 b 73 369 203 744 73 596 l 73 368 b 409 -13 73 136 204 -13 z "},"č":{"ha":777,"x_min":0,"x_max":0,"o":"m 640 1063 l 512 1063 l 412 909 l 401 909 l 302 1063 l 174 1063 l 338 833 l 475 833 z m 409 -13 b 713 214 585 -13 683 81 l 714 221 l 597 220 l 596 216 b 408 92 569 135 507 92 b 194 368 278 92 194 199 l 194 369 b 408 640 194 534 277 640 b 597 509 513 640 578 581 l 597 507 l 715 507 l 714 511 b 408 744 692 642 586 744 b 73 369 203 744 73 596 l 73 368 b 409 -13 73 136 204 -13 z "},"ĉ":{"ha":777,"x_min":0,"x_max":0,"o":"m 174 833 l 302 833 l 401 987 l 412 987 l 512 833 l 640 833 l 475 1063 l 338 1063 z m 409 -13 b 713 214 585 -13 683 81 l 714 221 l 597 220 l 596 216 b 408 92 569 135 507 92 b 194 368 278 92 194 199 l 194 369 b 408 640 194 534 277 640 b 597 509 513 640 578 581 l 597 507 l 715 507 l 714 511 b 408 744 692 642 586 744 b 73 369 203 744 73 596 l 73 368 b 409 -13 73 136 204 -13 z "},"ċ":{"ha":777,"x_min":0,"x_max":0,"o":"m 407 872 b 488 954 452 872 488 909 b 407 1035 488 998 452 1035 b 326 954 362 1035 326 998 b 407 872 326 909 362 872 z m 409 -13 b 713 214 585 -13 683 81 l 714 221 l 597 220 l 596 216 b 408 92 569 135 507 92 b 194 368 278 92 194 199 l 194 369 b 408 640 194 534 277 640 b 597 509 513 640 578 581 l 597 507 l 715 507 l 714 511 b 408 744 692 642 586 744 b 73 369 203 744 73 596 l 73 368 b 409 -13 73 136 204 -13 z "},"ç":{"ha":777,"x_min":0,"x_max":0,"o":"m 390 -335 b 568 -197 482 -335 568 -297 l 568 -195 b 422 -71 568 -119 510 -71 l 466 -9 b 713 214 606 9 686 96 l 714 221 l 597 220 l 596 216 b 408 92 569 135 507 92 b 194 368 278 92 194 199 l 194 369 b 408 640 194 534 277 640 b 597 509 513 640 578 581 l 597 507 l 715 507 l 714 511 b 408 744 692 642 586 744 b 73 369 203 744 73 596 l 73 368 b 369 -11 73 151 187 7 l 321 -83 l 321 -144 l 346 -144 b 455 -199 418 -144 455 -155 l 455 -201 b 368 -253 455 -240 410 -253 b 281 -244 328 -253 293 -247 l 281 -323 b 390 -335 316 -331 353 -335 z "},"ḉ":{"ha":777,"x_min":0,"x_max":0,"o":"m 460 833 l 616 1063 l 477 1063 l 357 833 z m 390 -335 b 568 -197 482 -335 568 -297 l 568 -195 b 422 -71 568 -119 510 -71 l 466 -9 b 713 214 606 9 686 96 l 714 221 l 597 220 l 596 216 b 408 92 569 135 507 92 b 194 368 278 92 194 199 l 194 369 b 408 640 194 534 277 640 b 597 509 513 640 578 581 l 597 507 l 715 507 l 714 511 b 408 744 692 642 586 744 b 73 369 203 744 73 596 l 73 368 b 369 -11 73 151 187 7 l 321 -83 l 321 -144 l 346 -144 b 455 -199 418 -144 455 -155 l 455 -201 b 368 -253 455 -240 410 -253 b 281 -244 328 -253 293 -247 l 281 -323 b 390 -335 316 -331 353 -335 z "},"ɕ":{"ha":777,"x_min":0,"x_max":0,"o":"m 384 -193 l 486 -193 l 486 -11 b 721 184 621 4 721 79 l 721 185 b 561 336 721 275 651 336 b 384 129 444 336 384 245 l 384 81 b 194 367 254 102 194 204 l 194 368 b 408 640 194 534 276 640 b 595 512 512 640 576 582 l 597 507 l 715 507 l 713 515 b 408 745 690 641 583 745 b 73 368 204 745 73 597 l 73 367 b 384 -11 73 125 211 8 z m 486 138 b 559 238 486 202 515 238 b 614 180 588 238 614 219 l 614 178 b 486 80 614 132 575 91 z "},"ʗ":{"ha":777,"x_min":0,"x_max":0,"o":"m 409 -281 b 715 9 585 -281 694 -152 l 714 11 l 597 10 l 596 9 b 408 -173 575 -106 507 -173 b 194 228 278 -173 194 -11 l 194 230 b 408 622 194 463 277 622 b 597 436 513 622 578 534 l 597 435 l 714 436 l 715 435 b 408 730 694 588 586 730 b 73 230 203 730 73 526 l 73 228 b 409 -281 73 -75 204 -281 z "},"d":{"ha":853,"x_min":0,"x_max":0,"o":"m 380 -13 b 608 117 481 -13 563 35 l 618 117 l 618 0 l 736 0 l 736 1021 l 618 1021 l 618 616 l 608 616 b 380 744 568 694 480 744 b 73 366 194 744 73 595 l 73 365 b 380 -13 73 137 195 -13 z m 407 92 b 194 365 273 92 194 195 l 194 366 b 407 640 194 536 273 640 b 621 366 540 640 621 535 l 621 365 b 407 92 621 196 540 92 z "},"ḋ":{"ha":853,"x_min":0,"x_max":0,"o":"m 677 1156 b 749 1227 716 1156 749 1188 b 677 1299 749 1267 716 1299 b 605 1227 637 1299 605 1267 b 677 1156 605 1188 637 1156 z m 380 -13 b 608 117 481 -13 563 35 l 618 117 l 618 0 l 736 0 l 736 1021 l 618 1021 l 618 616 l 608 616 b 380 744 568 694 480 744 b 73 366 194 744 73 595 l 73 365 b 380 -13 73 137 195 -13 z m 407 92 b 194 365 273 92 194 195 l 194 366 b 407 640 194 536 273 640 b 621 366 540 640 621 535 l 621 365 b 407 92 621 196 540 92 z "},"ḓ":{"ha":853,"x_min":0,"x_max":0,"o":"m 380 -13 b 608 117 481 -13 563 35 l 618 117 l 618 0 l 736 0 l 736 1021 l 618 1021 l 618 616 l 608 616 b 380 744 568 694 480 744 b 73 366 194 744 73 595 l 73 365 b 380 -13 73 137 195 -13 z m 407 92 b 194 365 273 92 194 195 l 194 366 b 407 640 194 536 273 640 b 621 366 540 640 621 535 l 621 365 b 407 92 621 196 540 92 z m 188 -313 l 315 -313 l 415 -175 l 426 -175 l 526 -313 l 653 -313 l 489 -102 l 352 -102 z "},"ḑ":{"ha":853,"x_min":0,"x_max":0,"o":"m 380 -13 b 608 117 481 -13 563 35 l 618 117 l 618 0 l 736 0 l 736 1021 l 618 1021 l 618 616 l 608 616 b 380 744 568 694 480 744 b 73 366 194 744 73 595 l 73 365 b 380 -13 73 137 195 -13 z m 407 92 b 194 365 273 92 194 195 l 194 366 b 407 640 194 536 273 640 b 621 366 540 640 621 535 l 621 365 b 407 92 621 196 540 92 z m 294 -335 l 376 -335 l 479 -102 l 353 -102 z "},"ḏ":{"ha":853,"x_min":0,"x_max":0,"o":"m 380 -13 b 608 117 481 -13 563 35 l 618 117 l 618 0 l 736 0 l 736 1021 l 618 1021 l 618 616 l 608 616 b 380 744 568 694 480 744 b 73 366 194 744 73 595 l 73 365 b 380 -13 73 137 195 -13 z m 407 92 b 194 365 273 92 194 195 l 194 366 b 407 640 194 536 273 640 b 621 366 540 640 621 535 l 621 365 b 407 92 621 196 540 92 z m 199 -267 l 642 -267 l 642 -175 l 199 -175 z "},"ď":{"ha":1008,"x_min":0,"x_max":0,"o":"m 838 833 l 914 833 l 1008 1063 l 890 1063 z m 380 -13 b 608 117 481 -13 563 35 l 618 117 l 618 0 l 736 0 l 736 1021 l 618 1021 l 618 616 l 608 616 b 380 744 568 694 480 744 b 73 366 194 744 73 595 l 73 365 b 380 -13 73 137 195 -13 z m 407 92 b 194 365 273 92 194 195 l 194 366 b 407 640 194 536 273 640 b 621 366 540 640 621 535 l 621 365 b 407 92 621 196 540 92 z "},"ḍ":{"ha":853,"x_min":0,"x_max":0,"o":"m 380 -13 b 608 117 481 -13 563 35 l 618 117 l 618 0 l 736 0 l 736 1021 l 618 1021 l 618 616 l 608 616 b 380 744 568 694 480 744 b 73 366 194 744 73 595 l 73 365 b 380 -13 73 137 195 -13 z m 407 92 b 194 365 273 92 194 195 l 194 366 b 407 640 194 536 273 640 b 621 366 540 640 621 535 l 621 365 b 407 92 621 196 540 92 z m 420 -304 b 502 -222 465 -304 502 -267 b 420 -141 502 -178 465 -141 b 339 -222 376 -141 339 -178 b 420 -304 339 -267 376 -304 z "},"đ":{"ha":892,"x_min":0,"x_max":0,"o":"m 380 -13 b 608 117 481 -13 563 35 l 618 117 l 618 0 l 736 0 l 736 837 l 853 837 l 853 926 l 736 926 l 736 1021 l 618 1021 l 618 926 l 415 926 l 415 837 l 618 837 l 618 616 l 608 616 b 380 744 568 694 480 744 b 73 366 194 744 73 595 l 73 365 b 380 -13 73 137 195 -13 z m 407 92 b 194 365 273 92 194 195 l 194 366 b 407 640 194 536 273 640 b 621 366 540 640 621 535 l 621 365 b 407 92 621 196 540 92 z "},"ɗ":{"ha":853,"x_min":0,"x_max":0,"o":"m 380 -13 b 608 117 481 -13 563 35 l 618 117 l 618 0 l 736 0 l 736 829 b 834 930 736 897 769 930 b 869 929 847 930 860 930 l 869 1025 b 817 1028 857 1027 836 1028 b 618 825 683 1028 618 964 l 618 616 l 608 616 b 380 744 568 694 480 744 b 73 366 194 744 73 595 l 73 365 b 380 -13 73 137 195 -13 z m 407 92 b 194 365 273 92 194 195 l 194 366 b 407 640 194 536 273 640 b 621 366 540 640 621 535 l 621 365 b 407 92 621 196 540 92 z "},"ɖ":{"ha":853,"x_min":0,"x_max":0,"o":"m 380 -13 b 608 117 481 -13 563 35 l 618 117 l 618 -49 b 817 -252 618 -187 683 -252 b 869 -248 836 -252 857 -250 l 869 -153 b 834 -154 860 -153 847 -154 b 736 -53 769 -154 736 -121 l 736 1021 l 618 1021 l 618 616 l 608 616 b 380 744 568 694 480 744 b 73 366 194 744 73 595 l 73 365 b 380 -13 73 137 195 -13 z m 407 92 b 194 365 273 92 194 195 l 194 366 b 407 640 194 536 273 640 b 621 366 540 640 621 535 l 621 365 b 407 92 621 196 540 92 z "},"e":{"ha":793,"x_min":0,"x_max":0,"o":"m 408 -13 b 710 184 581 -13 685 85 l 711 189 l 593 189 l 591 183 b 411 92 571 139 510 92 b 194 332 281 92 197 180 l 720 332 l 720 378 b 401 744 720 596 600 744 b 73 363 202 744 73 589 l 73 363 b 408 -13 73 134 199 -13 z m 400 639 b 600 426 508 639 588 570 l 196 426 b 400 639 209 565 292 639 z "},"è":{"ha":793,"x_min":0,"x_max":0,"o":"m 350 833 l 453 833 l 333 1063 l 193 1063 z m 408 -13 b 710 184 581 -13 685 85 l 711 189 l 593 189 l 591 183 b 411 92 571 139 510 92 b 194 332 281 92 197 180 l 720 332 l 720 378 b 401 744 720 596 600 744 b 73 363 202 744 73 589 l 73 363 b 408 -13 73 134 199 -13 z m 400 639 b 600 426 508 639 588 570 l 196 426 b 400 639 209 565 292 639 z "},"ȅ":{"ha":793,"x_min":0,"x_max":0,"o":"m 218 833 l 321 833 l 184 1063 l 45 1063 z m 475 833 l 578 833 l 458 1063 l 319 1063 z m 408 -13 b 710 184 581 -13 685 85 l 711 189 l 593 189 l 591 183 b 411 92 571 139 510 92 b 194 332 281 92 197 180 l 720 332 l 720 378 b 401 744 720 596 600 744 b 73 363 202 744 73 589 l 73 363 b 408 -13 73 134 199 -13 z m 400 639 b 600 426 508 639 588 570 l 196 426 b 400 639 209 565 292 639 z "},"é":{"ha":793,"x_min":0,"x_max":0,"o":"m 456 833 l 612 1063 l 473 1063 l 353 833 z m 408 -13 b 710 184 581 -13 685 85 l 711 189 l 593 189 l 591 183 b 411 92 571 139 510 92 b 194 332 281 92 197 180 l 720 332 l 720 378 b 401 744 720 596 600 744 b 73 363 202 744 73 589 l 73 363 b 408 -13 73 134 199 -13 z m 400 639 b 600 426 508 639 588 570 l 196 426 b 400 639 209 565 292 639 z "},"ê":{"ha":793,"x_min":0,"x_max":0,"o":"m 170 833 l 298 833 l 397 987 l 408 987 l 508 833 l 635 833 l 471 1063 l 334 1063 z m 408 -13 b 710 184 581 -13 685 85 l 711 189 l 593 189 l 591 183 b 411 92 571 139 510 92 b 194 332 281 92 197 180 l 720 332 l 720 378 b 401 744 720 596 600 744 b 73 363 202 744 73 589 l 73 363 b 408 -13 73 134 199 -13 z m 400 639 b 600 426 508 639 588 570 l 196 426 b 400 639 209 565 292 639 z "},"ể":{"ha":793,"x_min":0,"x_max":0,"o":"m 513 1002 l 589 1002 b 641 1101 621 1027 641 1060 b 522 1206 641 1169 587 1206 b 467 1197 500 1206 481 1202 l 467 1110 b 494 1114 475 1112 484 1114 b 547 1070 526 1114 547 1099 b 513 1003 547 1047 533 1025 z m 210 786 l 312 786 l 403 918 l 494 786 l 595 786 l 456 989 l 349 989 z m 408 -13 b 710 184 581 -13 685 85 l 711 189 l 593 189 l 591 183 b 411 92 571 139 510 92 b 194 332 281 92 197 180 l 720 332 l 720 378 b 401 744 720 596 600 744 b 73 363 202 744 73 589 l 73 363 b 408 -13 73 134 199 -13 z m 400 639 b 600 426 508 639 588 570 l 196 426 b 400 639 209 565 292 639 z "},"ề":{"ha":793,"x_min":0,"x_max":0,"o":"m 498 1002 l 589 1002 l 480 1192 l 357 1192 z m 210 786 l 312 786 l 403 918 l 494 786 l 595 786 l 456 989 l 349 989 z m 408 -13 b 710 184 581 -13 685 85 l 711 189 l 593 189 l 591 183 b 411 92 571 139 510 92 b 194 332 281 92 197 180 l 720 332 l 720 378 b 401 744 720 596 600 744 b 73 363 202 744 73 589 l 73 363 b 408 -13 73 134 199 -13 z m 400 639 b 600 426 508 639 588 570 l 196 426 b 400 639 209 565 292 639 z "},"ễ":{"ha":793,"x_min":0,"x_max":0,"o":"m 495 1031 b 597 1198 559 1031 597 1086 l 597 1206 l 515 1206 l 515 1199 b 481 1117 515 1143 505 1117 b 425 1152 464 1117 446 1133 l 402 1172 b 312 1207 378 1192 349 1207 b 210 1040 248 1207 210 1152 l 210 1032 l 292 1032 l 292 1039 b 326 1121 292 1095 302 1121 b 382 1086 343 1121 361 1105 l 405 1066 b 495 1031 429 1046 458 1031 z m 210 786 l 312 786 l 403 918 l 494 786 l 595 786 l 456 989 l 349 989 z m 408 -13 b 710 184 581 -13 685 85 l 711 189 l 593 189 l 591 183 b 411 92 571 139 510 92 b 194 332 281 92 197 180 l 720 332 l 720 378 b 401 744 720 596 600 744 b 73 363 202 744 73 589 l 73 363 b 408 -13 73 134 199 -13 z m 400 639 b 600 426 508 639 588 570 l 196 426 b 400 639 209 565 292 639 z "},"ệ":{"ha":793,"x_min":0,"x_max":0,"o":"m 170 833 l 298 833 l 397 987 l 408 987 l 508 833 l 635 833 l 471 1063 l 334 1063 z m 408 -13 b 710 184 581 -13 685 85 l 711 189 l 593 189 l 591 183 b 411 92 571 139 510 92 b 194 332 281 92 197 180 l 720 332 l 720 378 b 401 744 720 596 600 744 b 73 363 202 744 73 589 l 73 363 b 408 -13 73 134 199 -13 z m 400 639 b 600 426 508 639 588 570 l 196 426 b 400 639 209 565 292 639 z m 404 -304 b 485 -222 448 -304 485 -267 b 404 -141 485 -178 448 -141 b 322 -222 359 -141 322 -178 b 404 -304 322 -267 359 -304 z "},"ế":{"ha":793,"x_min":0,"x_max":0,"o":"m 513 1002 l 604 1002 l 746 1192 l 623 1192 z m 210 786 l 312 786 l 403 918 l 494 786 l 595 786 l 456 989 l 349 989 z m 408 -13 b 710 184 581 -13 685 85 l 711 189 l 593 189 l 591 183 b 411 92 571 139 510 92 b 194 332 281 92 197 180 l 720 332 l 720 378 b 401 744 720 596 600 744 b 73 363 202 744 73 589 l 73 363 b 408 -13 73 134 199 -13 z m 400 639 b 600 426 508 639 588 570 l 196 426 b 400 639 209 565 292 639 z "},"ë":{"ha":793,"x_min":0,"x_max":0,"o":"m 253 878 b 328 953 294 878 328 911 b 253 1027 328 994 294 1027 b 178 953 212 1027 178 994 b 253 878 178 911 212 878 z m 552 878 b 627 953 593 878 627 911 b 552 1027 627 994 593 1027 b 477 953 511 1027 477 994 b 552 878 477 911 511 878 z m 408 -13 b 710 184 581 -13 685 85 l 711 189 l 593 189 l 591 183 b 411 92 571 139 510 92 b 194 332 281 92 197 180 l 720 332 l 720 378 b 401 744 720 596 600 744 b 73 363 202 744 73 589 l 73 363 b 408 -13 73 134 199 -13 z m 400 639 b 600 426 508 639 588 570 l 196 426 b 400 639 209 565 292 639 z "},"ẹ":{"ha":793,"x_min":0,"x_max":0,"o":"m 408 -13 b 710 184 581 -13 685 85 l 711 189 l 593 189 l 591 183 b 411 92 571 139 510 92 b 194 332 281 92 197 180 l 720 332 l 720 378 b 401 744 720 596 600 744 b 73 363 202 744 73 589 l 73 363 b 408 -13 73 134 199 -13 z m 400 639 b 600 426 508 639 588 570 l 196 426 b 400 639 209 565 292 639 z m 404 -304 b 485 -222 448 -304 485 -267 b 404 -141 485 -178 448 -141 b 322 -222 359 -141 322 -178 b 404 -304 322 -267 359 -304 z "},"ȇ":{"ha":793,"x_min":0,"x_max":0,"o":"m 403 1063 b 166 834 249 1063 166 968 l 166 833 l 271 833 l 271 833 b 403 977 271 920 312 977 b 535 833 494 977 535 920 l 535 833 l 640 833 l 640 834 b 403 1063 640 968 557 1063 z m 408 -13 b 710 184 581 -13 685 85 l 711 189 l 593 189 l 591 183 b 411 92 571 139 510 92 b 194 332 281 92 197 180 l 720 332 l 720 378 b 401 744 720 596 600 744 b 73 363 202 744 73 589 l 73 363 b 408 -13 73 134 199 -13 z m 400 639 b 600 426 508 639 588 570 l 196 426 b 400 639 209 565 292 639 z "},"ẻ":{"ha":793,"x_min":0,"x_max":0,"o":"m 353 786 l 445 786 b 507 905 484 816 507 855 b 363 1030 507 986 443 1030 b 298 1019 338 1030 316 1025 l 298 922 b 332 926 308 924 318 926 b 408 869 378 926 408 904 b 353 787 408 839 387 812 z m 408 -13 b 710 184 581 -13 685 85 l 711 189 l 593 189 l 591 183 b 411 92 571 139 510 92 b 194 332 281 92 197 180 l 720 332 l 720 378 b 401 744 720 596 600 744 b 73 363 202 744 73 589 l 73 363 b 408 -13 73 134 199 -13 z m 400 639 b 600 426 508 639 588 570 l 196 426 b 400 639 209 565 292 639 z "},"ě":{"ha":793,"x_min":0,"x_max":0,"o":"m 635 1063 l 508 1063 l 408 909 l 397 909 l 298 1063 l 170 1063 l 334 833 l 471 833 z m 408 -13 b 710 184 581 -13 685 85 l 711 189 l 593 189 l 591 183 b 411 92 571 139 510 92 b 194 332 281 92 197 180 l 720 332 l 720 378 b 401 744 720 596 600 744 b 73 363 202 744 73 589 l 73 363 b 408 -13 73 134 199 -13 z m 400 639 b 600 426 508 639 588 570 l 196 426 b 400 639 209 565 292 639 z "}}}
